<?xml version="1.0" encoding="utf-8" ?>
<svg baseProfile="full" height="200mm" version="1.1" viewBox="0,0,200,200" width="200mm" xmlns="http://www.w3.org/2000/svg" xmlns:ev="http://www.w3.org/2001/xml-events" xmlns:xlink="http://www.w3.org/1999/xlink"><defs /><rect fill="#1a1a1a" height="200" width="200" x="0" y="0" /><text alignment-baseline="middle" fill="#e1ed5e" style="dominant-baseline: central; font-size:9.0px; font-family:Arial;" text-anchor="middle" x="100.0" y="100.0">2024</text><line stroke="#e1ed5e" stroke-width="0.3" x1="100.0" x2="100.0" y1="15.0" y2="10.0" /><path d="M 100.0 14.0 a86.0,86.0 0 0,1 42.35913384403234,11.155469271406648" fill="none" id="id121" stroke="none" /><text fill="#e1ed5e" style="font-size:6.75px; font-family:Arial;" text-anchor="middle"><textPath startOffset="22.145653131862478" xlink:href="#id121">January</textPath></text><path d="M 100.0 79.0 l 0.0 -13.647760722682065 a34.647760722682065,34.647760722682065 0 0,0 0.5947748858277585,0.005105427058165724 l -0.2342819609789037 13.645749693818335" fill="#ff730a" stroke="none" /><path d="M 101.80034050326958 79.07731436759882 l 5.057826095709647 -58.77960596437359 a79.99681077940963,79.99681077940963 0 0,0 1.3671852531684106,0.1294738649321967 l -6.0661109122630705 58.68412034393621" fill="#48fbff" stroke="none" /><path d="M 102.15924093988457 79.11130261209362 l 3.3868073267181473 -32.76428862206621 a53.938868723415034,53.938868723415034 0 0,0 0.920207627231775,0.10311118400075392 l -3.9487508555507187 32.70132167755849" fill="#8bff24" stroke="none" /><path d="M 102.51750503828377 79.15144685158666 l 1.2115166026045658 -10.033095424033604 a31.105977254385177,31.105977254385177 0 0,0 0.5295750828668229,0.06856409693963078 l -1.3835695073621803 10.010819730893576" fill="#ff3d05" stroke="none" /><path d="M 104.64783097203109 79.52079915486377 l 9.839581154852821 -43.3550100928457 a65.45755568464924,65.45755568464924 0 0,0 1.0936643611678298,0.258101811341941 l -10.582377669760536 43.179712137857535" fill="#34ff5b" stroke="none" /><path d="M 105.3480935250658 79.69241777938227 l 2.5359182441293893 -9.629294627338902 a30.957620014893426,30.957620014893426 0 0,0 0.5127445725703021,0.13975081332787212 l -2.7008442176343843 9.584343319866889" fill="#ff3b05" stroke="none" /><path d="M 106.72888874123014 80.10723608172694 l 6.863249293488553 -20.289977016719515 a42.4193220761904,42.4193220761904 0 0,0 0.6877873486050552,0.23924814267056116 l -7.210542414138627 20.169170441480365" fill="#ffe115" stroke="none" /><path d="M 109.06512990194946 81.05736502329252 l 3.470715270192436 -7.252460051035965 a29.04015181937627,29.04015181937627 0 0,0 0.4478264536465972,0.21905435934832168 l -3.5947019731011007 7.191811941590422" fill="#ff1d03" stroke="none" /><line stroke="#e1ed5e" stroke-width="0.3" x1="143.13028292997686" x2="145.6673583964461" y1="26.7553504044142" y2="22.446841604673864" /><path d="M 143.63769802327073 25.89364864446614 a86.0,86.0 0 0,1 29.32050498858742,28.57503671076993" fill="none" id="id122" stroke="none" /><text fill="#e1ed5e" style="font-size:6.75px; font-family:Arial;" text-anchor="middle"><textPath startOffset="20.669276256404974" xlink:href="#id122">February</textPath></text><path d="M 114.65682725009322 84.96080404539774 l 8.884218274411836 -9.115990606458722 a33.72912483576294,33.72912483576294 0 0,0 0.41118707070954585,0.4076726724195056 l -9.039397265251344 8.962137923810555" fill="#ff6509" stroke="none" /><path d="M 114.91283532996326 85.21462403516908 l 10.123633054049904 -10.037106795739435 a35.25592715477077,35.25592715477077 0 0,0 0.42242174332408716,0.43344192197497666 l -10.294441598524802 9.861842181696716" fill="#ff7c0b" stroke="none" /><path d="M 115.16444852881244 85.47280134310134 l 26.838677633004778 -25.710846056968766 a58.16668161207693,58.16668161207693 0 0,0 0.6845502872069129,0.726968682656148 l -27.27608375394795 25.246335914368125" fill="#5aff2a" stroke="none" /><path d="M 115.41159269507618 85.73525988315684 l 5.054408025766271 -4.678284610718864 a27.887190093922154,27.887190093922154 0 0,0 0.3221664968497682,0.3541174153013981 l -5.133972223457917 4.590829619859793" fill="#ff0b01" stroke="none" /><path d="M 117.01052211995028 87.68569379921539 l 13.449632749784811 -9.736496904742564 a37.60397521921018,37.60397521921018 0 0,0 0.3740429837403104,0.5261382993169248 l -13.614790832055082 9.504181378716135" fill="#ff9e0e" stroke="none" /><line stroke="#e1ed5e" stroke-width="0.3" x1="172.87174338648825" x2="177.1583165268699" y1="56.24261187166439" y2="53.66864786411523" /><path d="M 173.72905801456457 55.72781907015455 a86.0,86.0 0 0,1 12.242430191666344,42.057860355516425" fill="none" id="id123" stroke="none" /><text fill="#e1ed5e" style="font-size:6.75px; font-family:Arial;" text-anchor="middle"><textPath startOffset="22.145653131862474" xlink:href="#id123">March</textPath></text><path d="M 118.18653347947321 89.5 l 40.172690995706404 -23.193713960442754 a67.3874279208855,67.3874279208855 0 0,0 0.5697980388464863,1.0067785376481662 l -40.56492239957427 22.50067865269547" fill="#36ff73" stroke="none" /><path d="M 118.36410011445183 89.81374322990088 l 55.092300343355504 -30.558770310297362 a84.0,84.0 0 0,0 0.6886186015386349,1.2669806661015868 l -55.60876429450948 29.60853481072117" fill="#4dd2ff" stroke="none" /><path d="M 118.70294669586156 90.45014215332178 l 11.067150360721104 -5.650965830752562 a33.42639255484641,33.42639255484641 0 0,0 0.2565556596670806,0.513283179157293 l -11.162525933599921 5.460150795431519" fill="#ff6008" stroke="none" /><path d="M 118.8641267826498 90.77261029715802 l 11.168152317962885 -5.46290294196516 a33.43265598134813,33.43265598134813 0 0,0 0.2477530824851611,0.5177086546615595 l -11.260284658407958 5.270381785238497" fill="#ff6108" stroke="none" /><path d="M 119.31412917781788 91.75594674310238 l 53.16413813517984 -22.692609234842127 a78.80467193524868,78.80467193524868 0 0,0 0.520389110819053,1.2487444249617172 l -53.54585309053538 21.776632300439132" fill="#46fff7" stroke="none" /><path d="M 119.58574465831526 92.42381321644754 l 12.727729224376102 -4.923359086753614 a34.646778224407285,34.646778224407285 0 0,0 0.20980986165860016,0.5565455849605198 l -12.810369769849142 4.704145221598936" fill="#ff730a" stroke="none" /><path d="M 119.71291397450082 92.76114493625339 l 6.9553832283816295 -2.5541130635580496 a28.409510739251974,28.409510739251974 0 0,0 0.1641796853547804,0.4592398001093802 l -6.9982030837803535 2.434338307067753" fill="#ff1302" stroke="none" /><path d="M 120.16314734710363 94.1308016681162 l 41.62724688103485 -12.117084885072781 a64.3549469957776,64.3549469957776 0 0,0 0.2996535123670228,1.0633646031036388 l -41.829118885476454 11.400712358066128" fill="#32ff4d" stroke="none" /><path d="M 120.35273937422433 94.82641323984039 l 39.99056307802195 -10.165444752552736 a62.262348482780936,62.262348482780936 0 0,0 0.2544231489624798,1.0381332698793697 l -40.15917375350072 9.477455658065272" fill="#30ff31" stroke="none" /><path d="M 120.51834098615036 95.52812308129327 l 39.67805355494839 -8.647647097362796 a61.60947837918975,61.60947837918975 0 0,0 0.21634399859991102,1.0352843507096967 l -39.820655264372675 7.965246295367695" fill="#35ff2f" stroke="none" /><path d="M 120.592083275326 95.88100663000786 l 39.92952100489698 -7.987022492435441 a61.720500684239866,61.720500684239866 0 0,0 0.19889786302400872,1.0407176655785186 l -40.060745160203155 7.300402261823608" fill="#34ff2f" stroke="none" /><path d="M 120.65975698304385 96.23510406497455 l 54.71034928223421 -9.97004813684691 a76.61136734908709,76.61136734908709 0 0,0 0.2246726209696671,1.2958519733274076 l -54.87343672069611 9.029403130598908" fill="#43ffdf" stroke="none" /><path d="M 120.7213421655516 96.59031103205396 l 19.710598188877306 -3.2433714312174793 a40.975663673685816,40.975663673685816 0 0,0 0.10825088948858952,0.6950483644652107 l -19.76337057050416 2.9045348848208277" fill="#ffcd13" stroke="none" /><path d="M 120.82617615685814 97.30363454192243 l 40.587817060724944 -5.25490551491717 a61.92657969737493,61.92657969737493 0 0,0 0.12744464664739114,1.0554244971522233 l -40.672043793632 4.557387340841534" fill="#31ff2f" stroke="none" /><path d="M 120.86939407059847 97.66154086499901 l 45.72253170560152 -5.123305045687407 a67.00867483595786,67.00867483595786 0 0,0 0.1182786313877593,1.1442384649518107 l -45.80374272947095 4.337662058452665" fill="#36ff6e" stroke="none" /><path d="M 120.9064616781168 98.02013634271609 l 41.755417932165074 -3.9542814911203767 a62.94223728892857,62.94223728892857 0 0,0 0.0926341206619026,1.0765488983461864 l -41.81714567552472 3.236911545398528" fill="#30ff3a" stroke="none" /><path d="M 120.93736805541906 98.37931529534042 l 54.8968273909971 -4.24936163186463 a76.06104550292605,76.06104550292605 0 0,0 0.08959280835171687,1.3026597705154173 l -54.96168416051389 3.306358437194879" fill="#42ffd9" stroke="none" /><path d="M 120.99303781780057 99.45929381324524 l 20.900754522456243 -0.5383292964180766 a41.907686099598806,41.907686099598806 0 0,0 0.01234993247471429,0.7193216523428894 l -20.906915886529625 0.17946072810612082" fill="#ffda14" stroke="none" /><line stroke="#e1ed5e" stroke-width="0.3" x1="184.99686870605535" x2="189.99668451229388" y1="99.2704041080226" y2="99.22748670261217" /><path d="M 185.99683186730306 99.26182062694052 a86.0,86.0 0 0,1 -10.086455211305974,41.156179273409016" fill="none" id="id124" stroke="none" /><text fill="#e1ed5e" style="font-size:6.75px; font-family:Arial;" text-anchor="middle"><textPath startOffset="21.40746469413373" xlink:href="#id124">April</textPath></text><path d="M 120.99922638620191 99.81974689727618 l 41.8539899106107 -0.35926616552486734 a62.855531816179244,62.855531816179244 0 0,0 0.0,1.0790385364973833 l -41.8539899106107 -0.3592661655248623" fill="#30ff39" stroke="none" /><path d="M 120.99922638620191 100.18025310272382 l 41.80449838329195 0.3588413402863665 a62.806038465587214,62.806038465587214 0 0,0 -0.018508545955283454,1.0780300124136222 l -41.792178405738 -1.0764182686690598" fill="#30ff38" stroke="none" /><path d="M 120.99303781780057 100.54070618675476 l 55.562360253784085 1.431089306876936 a76.58078709028456,76.58078709028456 0 0,0 -0.04512910525096103,1.313884659208531 l -55.52960646153628 -2.3846802306495776" fill="#43ffdf" stroke="none" /><path d="M 120.98066250479742 100.90099992219065 l 31.60326348911547 1.3571801146962108 a52.632391642526585,52.632391642526585 0 0,0 -0.04651302533259342,0.9023402653977332 l -31.575308874326304 -1.8994921734706747" fill="#9aff22" stroke="none" /><path d="M 120.96210409425399 101.26102812881392 l 38.95232451228248 2.3432751155042864 a60.02274366542035,60.02274366542035 0 0,0 -0.07070118658510102,1.0279797361698406 l -38.906359364532314 -3.0115982758284705" fill="#46ff2c" stroke="none" /><path d="M 120.9064616781168 101.97986365728391 l 53.68129299042404 5.083674258423043 a74.9214703164658,74.9214703164658 0 0,0 -0.13224569792320287,1.279357163780868 l -53.586114900019176 -6.0044359444868425" fill="#41ffcc" stroke="none" /><path d="M 120.86939407059847 102.33845913500097 l 53.963732879276186 6.046748826698321 a75.30145152423691,75.30145152423691 0 0,0 -0.15497007792840903,1.2833745541604678 l -53.85198071508811 -6.972217057782197" fill="#41ffd0" stroke="none" /><path d="M 120.82617615685814 102.69636545807757 l 41.54025964625472 5.378218276178864 a62.8869717609722,62.8869717609722 0 0,0 -0.14780080445912508,1.0694129941778219 l -41.44181432524039 -6.090519578556771" fill="#30ff39" stroke="none" /><path d="M 120.77682067341334 103.0534771498775 l 8.09358700600842 1.1894785719076026 a29.180526260385435,29.180526260385435 0 0,0 -0.07709009788315639,0.4949737291147117 l -8.071975415986996 -1.328240482953765" fill="#ff1f03" stroke="none" /><path d="M 120.592083275326 104.11899336999214 l 29.405190478457516 5.8818616360808615 a50.98768953054517,50.98768953054517 0 0,0 -0.17904518789328502,0.8567960391569797 l -29.299887579739867 -6.38577412652325" fill="#aeff20" stroke="none" /><path d="M 120.43855184770803 104.8234425847677 l 13.44699236341804 3.1734535835047533 a34.81638198909115,34.81638198909115 0 0,0 -0.14227046934463802,0.5805120648428445 l -13.390534367557107 -3.4038214729556975" fill="#ff750a" stroke="none" /><path d="M 120.35273937422433 105.17358676015961 l 13.378869724285812 3.400856366250367 a34.804346385225095,34.804346385225095 0 0,0 -0.15216214818473928,0.5777844610691153 l -13.318518095296342 -3.6300213316922854" fill="#ff750a" stroke="none" /><path d="M 120.26092885502905 105.52220625578681 l 11.904694872283624 3.2446775252675577 a33.338950208391005,33.338950208391005 0 0,0 -0.155234896382237,0.5508738832239916 l -11.847241483826807 -3.4485593323945576" fill="#ff5f08" stroke="none" /><path d="M 119.94978838288452 106.5578916946017 l 21.45545920508695 7.052835600282243 a43.584933466932306,43.584933466932306 0 0,0 -0.23974739120139077,0.7087705617672622 l -21.331226392313194 -7.420107836523666" fill="#fff116" stroke="none" /><path d="M 119.83427380445688 106.89939002012753 l 24.754699272620382 8.610969415698857 a47.20961522716374,47.20961522716374 0 0,0 -0.2728262322028314,0.7631435282061454 l -24.60323287037361 -9.034647900285925" fill="#deff1b" stroke="none" /><path d="M 119.0197475246899 108.90220220490707 l 14.546837766603705 6.808654587668946 a37.061390546963025,37.061390546963025 0 0,0 -0.27464386180742334,0.5739000410454729 l -14.427814646836369 -7.0573671307795225" fill="#ff960d" stroke="none" /><path d="M 118.8641267826498 109.22738970284198 l 11.154913766520616 5.456427303062472 a33.41791850722643,33.41791850722643 0 0,0 -0.256490619298953,0.513153054852215 l -11.05960323400993 -5.647112214078432" fill="#ff6008" stroke="none" /><path d="M 118.70294669586154 109.54985784667822 l 12.485244531885431 6.375054818870085 a35.01865382141145,35.01865382141145 0 0,0 -0.2779679536851832,0.5330402026398584 l -12.3739685092253 -6.588441264614446" fill="#ff780b" stroke="none" /><line stroke="#e1ed5e" stroke-width="0.3" x1="174.33088141563837" x2="178.70328620479359" y1="141.23008692659167" y2="143.65538615756765" /><path d="M 175.20536237346943 141.71514677278685 a86.0,86.0 0 0,1 -30.301960400862466,31.631185727798858" fill="none" id="id125" stroke="none" /><text fill="#e1ed5e" style="font-size:6.75px; font-family:Arial;" text-anchor="middle"><textPath startOffset="22.145653131862474" xlink:href="#id125">May</textPath></text><path d="M 118.36410011445183 110.18625677009912 l 12.439150597040824 6.899787149585129 a35.22461002226216,35.22461002226216 0 0,0 -0.29784359381368214,0.5262610914468259 l -12.318873638205762 -7.1123050111310775" fill="#ff7b0b" stroke="none" /><path d="M 118.18653347947321 110.5 l 12.93585963398584 7.468522041880934 a35.937044083761876,35.937044083761876 0 0,0 -0.31303953062598217,0.531609559981135 l -12.805746393230093 -7.689482770155619" fill="#ff860c" stroke="none" /><path d="M 117.81537515405839 111.11811171558189 l 19.945011551373693 12.44716233473358 a44.51032402949054,44.51032402949054 0 0,0 -0.41009334474787856,0.6447348526377302 l -19.728400514999922 -12.787710862049982" fill="#fffd17" stroke="none" /><path d="M 117.423217284605 111.72311816256416 l 10.312847205487312 6.938943847599395 a33.429954111092485,33.429954111092485 0 0,0 -0.32444608312540585,0.47337653146863273 l -10.192211385546585 -7.1149551141380725" fill="#ff6008" stroke="none" /><path d="M 117.21940702142032 112.02048342749411 l 10.226651676560968 7.138997112033904 a33.47195591233932,33.47195591233932 0 0,0 -0.3329422006075476,0.46832490064860727 l -10.10259437742346 -7.313499239392015" fill="#ff6109" stroke="none" /><path d="M 116.79662413953412 112.60449989151573 l 10.865033214829419 8.15332347976388 a34.58402114710572,34.58402114710572 0 0,0 -0.3604116496752861,0.471790418794335 l -10.723469587799828 -8.338634811799093" fill="#ff720a" stroke="none" /><path d="M 116.35404254752997 113.17365903436017 l 10.615567789328164 8.55114997446716 a34.6313038765795,34.6313038765795 0 0,0 -0.376909269281233,0.45976802393316685 l -10.467211700808303 -8.732120280098819" fill="#ff720a" stroke="none" /><path d="M 116.1254893667686 113.45245675266167 l 36.65047123482594 30.575126623271412 a68.72939775195036,68.72939775195036 0 0,0 -0.7635686734481867,0.8994819773558439 l -36.12020799787064 -31.199775383076815" fill="#38ff83" stroke="none" /><path d="M 115.6541949942343 113.99807769240083 l 9.289286427536652 8.306537204085906 a33.46151686816978,33.46151686816978 0 0,0 -0.3865638535969623,0.42490139112304837 l -9.14532487309781 -8.464776170766626" fill="#ff6108" stroke="none" /><path d="M 115.16444852881244 114.52719865689866 l 8.90590386036284 8.531654438531927 a33.333055218742324,33.333055218742324 0 0,0 -0.3993826976668828,0.4098018315015406 l -8.75813436154515 -8.683278962101205" fill="#ff5f08" stroke="none" /><path d="M 114.65682725009322 115.03919595460226 l 19.109465183547034 19.607994730318293 a48.37964786014214,48.37964786014214 0 0,0 -0.599740641054399,0.5745379674479546 l -18.77005205662732 -19.933144828071825" fill="#cfff1d" stroke="none" /><path d="M 114.39649973595853 115.28858382429668 l 25.69641250743477 27.288699601220472 a58.48304605655603,58.48304605655603 0 0,0 -0.7368034699732768,0.6819742919701567 l -25.224179266147523 -27.72579163932301" fill="#57ff2a" stroke="none" /><path d="M 113.86319453409587 115.77377054828091 l 8.165528545255352 9.290872559099965 a33.36916203034048,33.36916203034048 0 0,0 -0.4335139116664313,0.3744589917707281 l -8.004835153826065 -9.429675683335411" fill="#ff6008" stroke="none" /><path d="M 113.31354834802062 116.24036423190432 l 8.65807057787991 10.561438322429584 a34.65672601943943,34.65672601943943 0 0,0 -0.46332614914127124,0.37322274861098914 l -8.475493658383385 -10.708509364833978" fill="#ff730a" stroke="none" /><path d="M 112.7482090630111 116.68781488649013 l 17.266586808256374 22.60251639689036 a49.44307943030695,49.44307943030695 0 0,0 -0.67889353203698,0.5094543629615426 l -16.876040287308626 -22.895589787115917" fill="#c1ff1e" stroke="none" /><path d="M 112.45986205192187 116.90419585922612 l 24.194009242022528 32.82382013081697 a61.77687152275536,61.77687152275536 0 0,0 -0.8590485525872483,0.6218849041378575 l -23.62697967906131 -33.2343058063279" fill="#33ff2f" stroke="none" /><path d="M 111.8722381534696 117.32195027204791 l 3.5025298895270014 5.110295783193797 a27.19538849619282,27.19538849619282 0 0,0 -0.3873448402788251,0.2606228951905725 l -3.4142887611511727 -5.16966835244149" fill="#ff0000" stroke="none" /><path d="M 111.5731344415666 117.5232005979908 l 6.873450722330955 10.407280449038488 a33.47220153690802,33.47220153690802 0 0,0 -0.4821819945192228,0.3125445432897755 l -6.693783095554723 -10.523738834032159" fill="#ff6109" stroke="none" /><path d="M 111.27062007382361 117.71928675628689 l 4.71441914144603 7.4118499345591085 a29.784148637953287,29.784148637953287 0 0,0 -0.43376481175928905,0.2707013236445646 l -4.5864902008970265 -7.491687055045221" fill="#ff2904" stroke="none" /><line stroke="#e1ed5e" stroke-width="0.3" x1="143.1302829299769" x2="145.66735839644613" y1="173.24464959558577" y2="177.55315839532614" /><path d="M 143.63769802327073 174.10635135553383 a86.0,86.0 0 0,1 -40.68552437913181,11.842963189579606" fill="none" id="id126" stroke="none" /><text fill="#e1ed5e" style="font-size:6.75px; font-family:Arial;" text-anchor="middle"><textPath startOffset="21.407464694133747" xlink:href="#id126">June</textPath></text><path d="M 110.34350942703117 118.27599006163325 l 14.12149208380225 24.951323416841426 a49.670282156349785,49.670282156349785 0 0,0 -0.7456592917007575,0.413604639537811 l -13.6910886039454 -25.19006097181238" fill="#bfff1e" stroke="none" /><path d="M 109.71004243097381 118.62028667847754 l 6.28164473138356 12.045882038332097 a34.58537208223355,34.58537208223355 0 0,0 -0.5287819763101063,0.26999984482468914 l -6.0739355333598715 -12.151939834829623" fill="#ff720a" stroke="none" /><path d="M 108.07796709384702 119.3841803445677 l 4.3500064915148435 10.438432015375668 a32.30855514271567,32.30855514271567 0 0,0 -0.5137760883472636,0.2089482623757839 l -4.170175941977139 -10.511567534330743" fill="#ff5007" stroke="none" /><path d="M 106.0420521117495 120.11202640906438 l 14.365435955894036 47.817864192337545 a70.92908857689804,70.92908857689804 0 0,0 -1.1691139924662572,0.3403120443570332 l -13.542461951046173 -48.05741993099709" fill="#3bff9e" stroke="none" /><path d="M 105.69591212413111 120.21278271476187 l 3.6823485944547736 13.067356096382406 a34.576283973191835,34.576283973191835 0 0,0 -0.5726797453542732,0.15608641119001937 l -3.457487448165805 -13.128643001716567" fill="#ff720a" stroke="none" /><path d="M 104.9986988182912 120.39639698878246 l 3.2474226395402717 13.2505925550173 a34.64272541902382,34.64272541902382 0 0,0 -0.5788104026835061,0.1365976790142911 l -3.0194800831168864 -13.304386377677817" fill="#ff730a" stroke="none" /><path d="M 104.29559338865022 120.5559693870025 l 2.776303291837147 13.285616284545823 a34.572599604661406,34.572599604661406 0 0,0 -0.5819778792656569,0.11641187509423451 l -2.547828927040531 -13.331317556302919" fill="#ff710a" stroke="none" /><path d="M 103.58742460773223 120.69131181640829 l 4.200571838037492 24.227782103273245 a45.589229947483126,45.589229947483126 0 0,0 -0.7722435576574453,0.1270723835393901 l -3.784050777326974 -24.296320485308307" fill="#f3ff19" stroke="none" /><path d="M 103.2317021107853 120.74984581791261 l 2.083478876233647 13.377428972319684 a34.538703414181505,34.538703414181505 0 0,0 -0.5866232567952696,0.08621341726760096 l -1.853530513830692 -13.411223462886168" fill="#ff710a" stroke="none" /><path d="M 101.80034050326958 120.92268563240118 l 1.0592457551674896 12.310041296397047 a33.355529866777914,33.355529866777914 0 0,0 -0.5709053157057443,0.044191682093187724 l -0.8477714446865096 -12.326410745485289" fill="#ff5f08" stroke="none" /><path d="M 101.08105385017728 120.97215588758144 l 0.6977521931241633 13.536206140611835 a34.55417776200929,34.55417776200929 0 0,0 -0.5926440330235917,0.02545068476835969 l -0.46528239949974204 -13.546189393806026" fill="#ff710a" stroke="none" /><line stroke="#e1ed5e" stroke-width="0.3" x1="101.45913802915013" x2="101.54496967792366" y1="184.9874750549273" y2="189.98673829345242" /><path d="M 101.47630435890484 185.9873277026323 a86.0,86.0 0 0,1 -42.54439059252881,-10.42667462771756" fill="none" id="id127" stroke="none" /><text fill="#e1ed5e" style="font-size:6.75px; font-family:Arial;" text-anchor="middle"><textPath startOffset="22.145653131862474" xlink:href="#id127">July</textPath></text><path d="M 100.0 121.0 l 1.5240953322892236e-15 12.44518283435157 a33.44518283435157,33.44518283435157 0 0,0 -0.5741310372409534,-0.004928224446436332 l 0.2136381123920997 -12.443349008099569" fill="#ff6108" stroke="none" /><path d="M 99.27912038922189 120.98762331915562 l -0.28873520569870975 8.406210476174396 a29.411167730389998,29.411167730389998 0 0,0 -0.5044354746254464,-0.021662629732680263 l 0.43299644092499484 -8.400015278015887" fill="#ff2303" stroke="none" /><path d="M 98.19965949673042 120.92268563240118 l -1.2739587285299556 14.805331512165894 a35.86004078147601,35.86004078147601 0 0,0 -0.6128659187382333,-0.058039039698804286 l 1.527924210653204 -14.781280716961907" fill="#ff840c" stroke="none" /><line stroke="#e1ed5e" stroke-width="0.3" x1="58.13341422392154" x2="55.67067388415222" y1="173.97424548756322" y2="178.32567169271397" /><path d="M 57.64086615596768 174.84453072859336 a86.0,86.0 0 0,1 -31.369924170532247,-30.572349798747897" fill="none" id="id128" stroke="none" /><text fill="#e1ed5e" style="font-size:6.75px; font-family:Arial;" text-anchor="middle"><textPath startOffset="22.145653131862474" xlink:href="#id128">August</textPath></text><line stroke="#e1ed5e" stroke-width="0.3" x1="26.387840678322732" x2="22.057713659400548" y1="142.50000000000003" y2="145.00000000000006" /><path d="M 25.521815274538298 143.00000000000003 a86.0,86.0 0 0,1 -11.493303480769221,-40.785679425670985" fill="none" id="id129" stroke="none" /><text fill="#e1ed5e" style="font-size:6.75px; font-family:Arial;" text-anchor="middle"><textPath startOffset="21.40746469413373" xlink:href="#id129">September</textPath></text><line stroke="#e1ed5e" stroke-width="0.3" x1="15.003131293944662" x2="10.003315487706104" y1="100.72959589197737" y2="100.7725132973878" /><path d="M 14.003168132696942 100.73817937305945 a86.0,86.0 0 0,1 10.791469493833604,-42.45332614584628" fill="none" id="id130" stroke="none" /><text fill="#e1ed5e" style="font-size:6.75px; font-family:Arial;" text-anchor="middle"><textPath startOffset="22.145653131862435" xlink:href="#id130">October</textPath></text><line stroke="#e1ed5e" stroke-width="0.3" x1="26.387840678322718" x2="22.05771365940052" y1="57.49999999999999" y2="54.99999999999999" /><path d="M 25.521815274538284 56.99999999999999 a86.0,86.0 0 0,1 29.574782752854787,-30.34633250058573" fill="none" id="id131" stroke="none" /><text fill="#e1ed5e" style="font-size:6.75px; font-family:Arial;" text-anchor="middle"><textPath startOffset="21.40746469413373" xlink:href="#id131">November</textPath></text><line stroke="#e1ed5e" stroke-width="0.3" x1="56.869717070023135" x2="54.33264160355391" y1="26.7553504044142" y2="22.446841604673864" /><path d="M 56.362301976729285 25.89364864446614 a86.0,86.0 0 0,1 42.16139366436587,-11.88097634709845" fill="none" id="id132" stroke="none" /><text fill="#e1ed5e" style="font-size:6.75px; font-family:Arial;" text-anchor="middle"><textPath startOffset="22.145653131862474" xlink:href="#id132">December</textPath></text></svg>