<?xml version="1.0" encoding="utf-8" ?>
<svg baseProfile="full" height="200mm" version="1.1" viewBox="0,0,200,200" width="200mm" xmlns="http://www.w3.org/2000/svg" xmlns:ev="http://www.w3.org/2001/xml-events" xmlns:xlink="http://www.w3.org/1999/xlink"><defs /><rect fill="#1a1a1a" height="200" width="200" x="0" y="0" /><text alignment-baseline="middle" fill="#e1ed5e" style="dominant-baseline: central; font-size:9.0px; font-family:Arial;" text-anchor="middle" x="100.0" y="100.0">2021</text><line stroke="#e1ed5e" stroke-width="0.3" x1="100.0" x2="100.0" y1="15.0" y2="10.0" /><path d="M 100.0 14.0 a86.0,86.0 0 0,1 42.46469731375804,11.215312516191453" fill="none" id="id85" stroke="none" /><text fill="#e1ed5e" style="font-size:6.75px; font-family:Arial;" text-anchor="middle"><textPath startOffset="22.20632615414155" xlink:href="#id85">January</textPath></text><path d="M 105.36241919743992 79.69619591428918 l 1.3323093515594653 -5.044541849420913 a26.217513840787753,26.217513840787753 0 0,0 0.4353382102661555,0.118994377861905 l -1.4189454510493316 5.020860930732714" fill="#ff3304" stroke="none" /><path d="M 107.76421540070413 80.48803036053334 l 4.333132346842903 -10.889438588697834 a32.71989371591218,32.71989371591218 0 0,0 0.5215179148604457,0.2127402520065772 l -4.519934131291736 10.813237450507678" fill="#ff8e0d" stroke="none" /><path d="M 110.05341064243156 81.56283822128135 l 3.169626729934559 -5.812845299614676 a27.62085372775808,27.62085372775808 0 0,0 0.4154648729458885,0.23120575198011317 l -3.269215691952483 5.7574241500743835" fill="#ff4706" stroke="none" /><line stroke="#e1ed5e" stroke-width="0.3" x1="143.23703022742887" x2="145.7803849466894" y1="26.81831364943548" y2="22.513508569990506" /><path d="M 143.74570117128098 25.957352633546492 a86.0,86.0 0 0,1 28.547481713284135,27.462654790039103" fill="none" id="id86" stroke="none" /><text fill="#e1ed5e" style="font-size:6.75px; font-family:Arial;" text-anchor="middle"><textPath startOffset="19.985693538727396" xlink:href="#id86">February</textPath></text><path d="M 112.19680574252982 82.90503203632743 l 6.052539807412932 -8.483202593428866 a31.421034706854996,31.421034706854996 0 0,0 0.4375823221442811,0.3179221665411603 l -6.1976674459110015 8.37776119207103" fill="#ff7c0b" stroke="none" /><path d="M 113.6212207817346 84.01681056812373 l 3.3683670702890853 -3.952454029136482 a26.19305204794301,26.19305204794301 0 0,0 0.3406421403172052,0.29540150733968934 l -3.4359030092530545 3.8938875283771215" fill="#ff3304" stroke="none" /><path d="M 113.89432698308785 84.25364557470407 l 6.8694057349723705 -7.785054830341732 a31.382476287625146,31.382476287625146 0 0,0 0.40197815730478803,0.36089995860645196 l -7.002394879873148 7.665655862965982" fill="#ff7b0b" stroke="none" /><path d="M 114.16331599549186 84.49514656593476 l 3.584282151615362 -3.9237823575228545 a26.314428147185364,26.314428147185364 0 0,0 0.331802529324841,0.30837428986146254 l -3.65129256473505 3.8615034815867513" fill="#ff3505" stroke="none" /><path d="M 114.42810811169701 84.74124197986012 l 7.145130615103013 -7.556487533508415 a31.39968246394814,31.39968246394814 0 0,0 0.38953063938608573,0.37472816646469337 l -7.274144498101517 7.432376280281419" fill="#ff7c0b" stroke="none" /><path d="M 114.68862486808459 84.99185889309783 l 3.666543507146086 -3.746300475642834 a26.2419756336325,26.2419756336325 0 0,0 0.32010736620086133,0.3187327234406089 l -3.7304866735142697 3.6826319015521065" fill="#ff3404" stroke="none" /><path d="M 114.94478906791727 85.2469230424477 l 7.395544329975818 -7.300674111041713 a31.39201224076801,31.39201224076801 0 0,0 0.376309110250988,0.38781961661830033 l -7.520117703929916 7.172290298873298" fill="#ff7c0b" stroke="none" /><path d="M 115.19652480421416 85.50635884689758 l 3.838103540929929 -3.6605800436204894 a26.303855677396534,26.303855677396534 0 0,0 0.30967488960119943,0.33033958076929887 l -3.9005457525015914 3.5939710459731358" fill="#ff3405" stroke="none" /><path d="M 116.15771136456269 86.58626213691792 l 7.987314679683685 -6.630873824012267 a31.381025164320793,31.381025164320793 0 0,0 0.3414576938207362,0.41858675821203817 l -8.10027086558083 6.492402896192127" fill="#ff7b0b" stroke="none" /><path d="M 117.45458315368197 88.32363383020206 l 13.819332838736981 -9.244539902596763 a37.62634891124621,37.62634891124621 0 0,0 0.3554854391994251,0.5414287123548532 l -13.976414913294331 9.005293126264236" fill="#ffce13" stroke="none" /><path d="M 117.65298651832404 88.62581576622439 l 4.3622383990254745 -2.810680400773155 a26.189320588017537,26.189320588017537 0 0,0 0.24090733384155377,0.3810575481159775 l -4.409973329112984 2.7351752049429714" fill="#ff3304" stroke="none" /><line stroke="#e1ed5e" stroke-width="0.3" x1="172.23445277983987" x2="176.4835382374775" y1="55.19839476539836" y2="52.563006222186495" /><path d="M 173.08426987136738 54.67131705675599 a86.0,86.0 0 0,1 12.851231095245387,41.99856678651699" fill="none" id="id87" stroke="none" /><text fill="#e1ed5e" style="font-size:6.75px; font-family:Arial;" text-anchor="middle"><textPath startOffset="22.20632615414155" xlink:href="#id87">March</textPath></text><path d="M 118.73160827565052 90.50648371742162 l 13.887256049443915 -7.038311365773664 a36.56899828069858,36.56899828069858 0 0,0 0.27973540048182194,0.5639294976858392 l -14.006351462879145 6.798222279588875" fill="#ffc011" stroke="none" /><path d="M 118.89224826269711 90.83032412892265 l 7.0230842300736045 -3.4087740701675426 a28.806628770740616,28.806628770740616 0 0,0 0.21267770256884075,0.44795348118632217 l -7.080720126484201 3.28737817334068" fill="#ff5808" stroke="none" /><path d="M 119.7369772167798 92.82701384747503 l 14.628525809116274 -5.3164277340015635 a36.56464491078553,36.56464491078553 0 0,0 0.20989310929897487,0.5933960844982723 l -14.717871999225059 5.0638340230766765" fill="#ffc011" stroke="none" /><path d="M 120.37134235888165 94.90015583598534 l 12.193746829392467 -3.0526318545835482 a33.57004466893165,33.57004466893165 0 0,0 0.13550660389069252,0.5617623557388574 l -12.244486233543979 2.842284267185285" fill="#ff990e" stroke="none" /><path d="M 120.45610955862082 95.25157060432595 l 24.960993816961118 -5.79413775850385 a46.624660869851354,46.624660869851354 0 0,0 0.17474392926589344,0.7833427710577681 l -25.057032133229047 5.363616817896117" fill="#c2ff1e" stroke="none" /><path d="M 120.53481517161879 95.60439243477599 l 21.397486539231956 -4.5802678486544455 a42.882213867934624,42.882213867934624 0 0,0 0.14829221732443315,0.7231255165829805 l -21.473158052471387 4.211266675908053" fill="#efff19" stroke="none" /><path d="M 120.6074358757038 95.95851677861258 l 8.64640617378577 -1.6957134156537774 a29.811117052344095,29.811117052344095 0 0,0 0.09442213667500557,0.5044068297155944 l -8.674314034370635 1.5466285084756202" fill="#ff6609" stroke="none" /><path d="M 120.67395015179393 96.31383870115 l 8.830234744953504 -1.5744291409053104 a29.969496795847352,29.969496795847352 0 0,0 0.08618105346080296,0.5086454559553789 l -8.856027659934531 1.4221978966340938" fill="#ff6809" stroke="none" /><path d="M 120.73433829027371 96.67025291283417 l 13.607897727607495 -2.1853052258825394 a34.78225088638626,34.78225088638626 0 0,0 0.08984438683343533,0.5919622542759875 l -13.64349800788023 1.9507438592144697" fill="#ffa90f" stroke="none" /><path d="M 120.78858239683441 97.02765380044208 l 14.684662915608918 -2.099609351700945 a35.834004327045676,35.834004327045676 0 0,0 0.08204963322967458,0.6113650705121865 l -14.718628547896428 1.846525939124094" fill="#ffb711" stroke="none" /><path d="M 120.83666639777658 97.38593545837742 l 14.219005188297226 -1.7838456771492712 a35.33046454043649,35.33046454043649 0 0,0 0.07050891890994822,0.6040773581493083 l -14.247604460210763 1.5388245806751102" fill="#ffb010" stroke="none" /><path d="M 120.87857604477298 97.74499172005257 l 26.047509716488783 -2.813283336791466 a47.19899474337987,47.19899474337987 0 0,0 0.08028970272109089,0.8085063493022137 l -26.0920765448921 2.3645014567848173" fill="#bcff1f" stroke="none" /><path d="M 120.94382443527127 98.46500227214037 l 7.473348411366314 -0.5477305668983522 a28.49339344033037,28.49339344033037 0 0,0 0.03164043310986515,0.4894634958224383 l -7.481669435480595 0.41900800682287864" fill="#ff5307" stroke="none" /><line stroke="#e1ed5e" stroke-width="0.3" x1="184.98032266829074" x2="189.97916517819016" y1="98.17113171792111" y2="98.06355123074" /><path d="M 185.9800911702706 98.14961562048488 a86.0,86.0 0 0,1 -9.607161424134198,41.387399972396054" fill="none" id="id88" stroke="none" /><text fill="#e1ed5e" style="font-size:6.75px; font-family:Arial;" text-anchor="middle"><textPath startOffset="21.466115282336823" xlink:href="#id88">April</textPath></text><path d="M 120.99513854157772 99.54816195383933 l 8.4042039916846 -0.18086754243695 a29.406149998766054,29.406149998766054 0 0,0 0.006535156797125239,0.5061550959328237 l -8.40607215559944 0.03617618844366359" fill="#ff6008" stroke="none" /><path d="M 120.99980553446 99.90962569577887 l 8.82140052955119 -0.03796358655825989 a29.82148221880373,29.82148221880373 0 0,0 -0.00220920765327765,0.5133420556197571 l -8.820747024608409 -0.1138879472651819" fill="#ff6609" stroke="none" /><path d="M 120.99824983174949 100.27111621757518 l 21.92495667602825 0.28308127449350073 a42.926784083711055,42.926784083711055 0 0,0 -0.01589913503511068,0.7387703306300942 l -21.91683547830813 -0.6604414209137098" fill="#eeff19" stroke="none" /><path d="M 120.9904718944345 100.63252640178507 l 6.902762467100106 0.20800768689957522 a27.905895805398114,27.905895805398114 0 0,0 -0.018601096292958516,0.48001164320791445 l -6.898159237955944 -0.32679657712149585" fill="#ff4b07" stroke="none" /><path d="M 120.81339534386255 102.79330883721812 l 36.02002725793873 4.834149296362015 a57.342968550768745,57.342968550768745 0 0,0 -0.13971463825834607,0.9771638545703609 l -35.93147856866378 -5.453458622912786" fill="#4eff2c" stroke="none" /><path d="M 120.76222939487914 103.15116336523771 l 3.295592509653188 0.5001847434424496 a24.33333388175484,24.33333388175484 0 0,0 -0.06641638136396223,0.41357487015277966 l -3.2864943739279373 -0.5568388432884341" fill="#ff1802" stroke="none" /><path d="M 120.64145759157962 103.86396538481128 l 12.230930893308548 2.2895618386485515 a33.443382334794876,33.443382334794876 0 0,0 -0.11079325478819857,0.564932419223184 l -12.189707705544686 -2.4997579849396803" fill="#ff970d" stroke="none" /><path d="M 120.5718875245553 104.21870165774334 l 13.337195308879632 2.735074644563198 a34.61474979639851,34.61474979639851 0 0,0 -0.1247218246503515,0.5826588427330405 l -13.288139445504838 -2.9642473067124073" fill="#ffa70f" stroke="none" /><path d="M 120.49622156327973 104.57218783832717 l 11.236207352310464 2.5065132344781067 a32.51238308339023,32.51238308339023 0 0,0 -0.12654970445168504,0.5451728146643813 l -11.191397081928226 -2.699554706491053" fill="#ff8b0c" stroke="none" /><path d="M 120.41448212921028 104.9243191809786 l 34.906764321814684 8.420103336829591 a56.907942514457766,56.907942514457766 0 0,0 -0.23789873711983223,0.9502871979520806 l -34.75665427039979 -9.019718374179067" fill="#52ff2b" stroke="none" /><path d="M 120.32669344350535 105.2749913415812 l 24.63853891871209 6.393960720991953 a46.4546721399133,46.4546721399133 0 0,0 -0.20752391220749117,0.7722736781143328 l -24.52482693016282 -6.817125332281834" fill="#c4ff1e" stroke="none" /><path d="M 120.13307415673323 105.97154293290107 l 10.295210217681044 3.0535967502788752 a31.738519755513693,31.738519755513693 0 0,0 -0.1598612224008834,0.5224357243145125 l -10.241122222774028 -3.230359447145445" fill="#ff800b" stroke="none" /><path d="M 120.02730092923936 106.31721596034902 l 9.941505985083365 3.135851431042495 a31.42435156012208,31.42435156012208 0 0,0 -0.16715921790739643,0.5144631730406884 l -9.886054516159723 -3.306513504060979" fill="#ff7c0b" stroke="none" /><path d="M 119.9155931802556 106.66101706037122 l 9.892935464108248 3.30881492241502 a31.431607176643826,31.431607176643826 0 0,0 -0.17603072391256497,0.5116276818452908 l -9.834513909252452 -3.478615307349611" fill="#ff7c0b" stroke="none" /><path d="M 119.67450827220406 107.3425965602758 l 11.961050954149664 4.463906816786943 a33.76687918000016,33.76687918000016 0 0,0 -0.20791669705947327,0.5428048872743158 l -11.882439977496684 -4.669135270894403" fill="#ff9c0e" stroke="none" /><path d="M 119.54520255179757 107.68017299344265 l 20.34102468677817 7.992886645422671 a42.85505713181036,42.85505713181036 0 0,0 -0.2756955325884604,0.6842537022584932 l -20.200426539932316 -8.341839715523978" fill="#efff19" stroke="none" /><path d="M 119.41010516605496 108.01547362559984 l 6.911990806666779 2.8543317791042417 a28.4781566456347,28.4781566456347 0 0,0 -0.19100573433282736,0.451481133781011 l -6.861834091141643 -2.9728874385514166" fill="#ff5307" stroke="none" /><path d="M 119.26925614724726 108.34839909993367 l 10.02763460339774 4.3444695040513315 a31.928305953389653,31.928305953389653 0 0,0 -0.22282751842365855,0.5024172292984778 l -9.951366000242807 -4.5164350698424975" fill="#ff830c" stroke="none" /><path d="M 118.81262510543309 109.33194174019688 l 9.765120651588276 4.843956465187706 a31.900527307277827,31.900527307277827 0 0,0 -0.24824888605118053,0.4898186035569012 l -9.680293095750827 -5.011329280447302" fill="#ff820c" stroke="none" /><path d="M 118.64920377521936 109.65438752849418 l 7.4714023676689285 3.867822707510545 a29.413198311958602,29.413198311958602 0 0,0 -0.236632670470915,0.44761983518075377 l -7.40371718897312 -3.995857557777433" fill="#ff6008" stroke="none" /><line stroke="#e1ed5e" stroke-width="0.3" x1="174.80103733775053" x2="179.2010983576182" y1="140.37084112569926" y2="142.7455964860345" /><path d="M 175.68104954172406 140.8457921977663 a86.0,86.0 0 0,1 -30.038265399797805,32.042727171017184" fill="none" id="id89" stroke="none" /><text fill="#e1ed5e" style="font-size:6.75px; font-family:Arial;" text-anchor="middle"><textPath startOffset="22.206326154141568" xlink:href="#id89">May</textPath></text><path d="M 118.48025628344425 109.97397251340804 l 21.041140227685208 11.35610627162706 a44.91005503409811,44.91005503409811 0 0,0 -0.37301776432274764,0.6771355925796443 l -20.84254605391095 -11.71661238260451" fill="#d6ff1c" stroke="none" /><path d="M 118.30583269289576 110.29060199501025 l 12.228123361896037 6.874024950091096 a35.02780167981507,35.02780167981507 0 0,0 -0.2999847719659556,0.5230487357143228 l -12.107986593777701 -7.083493531663733" fill="#ffac0f" stroke="none" /><path d="M 118.12598468904814 110.60418214915192 l 9.541472056509711 5.582014406059035 a32.05434637753885,32.05434637753885 0 0,0 -0.2827179983863547,0.4738516272044145 l -9.443973182425129 -5.745428127149554" fill="#ff850c" stroke="none" /><path d="M 117.94076556474637 110.91462005526583 l 10.645179909348 6.476206029847037 a33.460381207788686,33.460381207788686 0 0,0 -0.30358979953682574,0.48948342194995925 l -10.532125470143212 -6.65848578316227" fill="#ff970e" stroke="none" /><path d="M 117.75023020441432 111.22182372390056 l 13.154512043856144 8.316377513423413 a36.5628828324874,36.5628828324874 0 0,0 -0.3408968875959891,0.5290795398759831 l -13.009410292883105 -8.54157865322085" fill="#ffc011" stroke="none" /><path d="M 117.14729908036423 112.12312394758627 l 18.596118264596196 13.147437716522516 a43.77434374511562,43.77434374511562 0 0,0 -0.4402869511650026,0.6115200665832095 l -18.367051521055593 -13.465591388556856" fill="#e4ff1a" stroke="none" /><path d="M 116.93607887273984 112.41649034213515 l 32.539072487165555 23.855644645658508 a61.34703235412674,61.34703235412674 0 0,0 -0.6316954556319796,0.8462592930150412 l -32.12361576483848 -24.412216818182866" fill="#31ff3b" stroke="none" /><path d="M 116.71984013943494 112.70617746262583 l 13.507390535559987 10.26488888473416 a37.96518620281176,37.96518620281176 0 0,0 -0.3998876367194575,0.5169086758558 l -13.32869608162246 -10.495875554703213" fill="#ffd213" stroke="none" /><path d="M 116.498646956653 112.99209946851258 l 13.562329984528679 10.679853969039208 a38.26256282853876,38.26256282853876 0 0,0 -0.41192762354325607,0.5139430471378209 l -13.376484448930569 -10.911724849755279" fill="#ffd614" stroke="none" /><path d="M 116.27256486870786 113.27417163493432 l 18.356041099814398 14.973745200143927 a44.688758730184844,44.688758730184844 0 0,0 -0.491372054790096,0.5918892940171251 l -18.09557304513076 -15.287495751274822" fill="#d9ff1c" stroke="none" /><path d="M 116.0416608686014 113.55231037782055 l 13.192296833468076 11.145111640742856 a38.2699220967251,38.2699220967251 0 0,0 -0.42945684763028746,0.49955533619126774 l -12.99849747626701 -11.370544076095653" fill="#ffd614" stroke="none" /><path d="M 115.80600337817218 113.82643327865902 l 13.000213809997337 11.372045453340647 a38.27220243334622,38.27220243334622 0 0,0 -0.4380183409200999,0.49211824942428306 l -12.8025366194289 -11.594137872505797" fill="#ffd614" stroke="none" /><path d="M 115.32070863581623 114.36230785411682 l 6.354412027095569 5.956906037080761 a29.709953027698027,29.709953027698027 0 0,0 -0.3529732685356836,0.3700910608911333 l -6.250932207180921 -6.065404214554402" fill="#ff6409" stroke="none" /><path d="M 114.81725581225074 114.88116024355365 l 13.647121539363507 13.705979370526395 a40.34160791701286,40.34160791701286 0 0,0 -0.49629792031415754,0.4857319718930788 l -13.409173666673555 -13.938861445342045" fill="#fff016" stroke="none" /><path d="M 114.55890576462653 115.13401014063108 l 11.8003056522731 12.266440094553936 a38.02095079836461,38.02095079836461 0 0,0 -0.475559110339076,0.4496708217286321 l -11.587410707543215 -12.46774555302849" fill="#ffd313" stroke="none" /><path d="M 114.29624159901734 115.38237550388516 l 11.792891028713683 12.688836910292647 a38.32278444566926,38.32278444566926 0 0,0 -0.487065163534923,0.4449224786855882 l -11.572726315711895 -12.889952155564819" fill="#ffd714" stroke="none" /><path d="M 114.0293411484842 115.62618273729858 l 15.576595325738984 17.34954780903924 a44.31602734429628,44.31602734429628 0 0,0 -0.5720094333558224,0.5047318185401011 l -15.275643539476574 -17.61510276935163" fill="#ddff1b" stroke="none" /><path d="M 113.75828350139079 115.86535959552629 l 20.450508352730747 23.582496239054013 a52.21469879319848,52.21469879319848 0 0,0 -0.6840983937209376,0.5830034923266846 l -20.041544482432762 -23.931024121603645" fill="#84ff25" stroke="none" /><path d="M 113.20401910651253 116.32954008644616 l 10.838872442427453 13.404539982314796 a38.23841199068781,38.23841199068781 0 0,0 -0.515385524016723,0.4094534304288298 l -10.60652942569338 -13.589127326748752" fill="#ffd614" stroke="none" /><path d="M 112.92097659922987 116.55440617244103 l 10.979550997392664 14.06704403540995 a38.844670576912,38.844670576912 0 0,0 -0.5306390495071485,0.4068713955522144 l -10.73578321939202 -14.253954772789536" fill="#ffdd14" stroke="none" /><path d="M 112.63410532772338 116.77436683061366 l 11.14454866434506 14.796674763121992 a39.524107238341244,39.524107238341244 0 0,0 -0.5469666473452561,0.40463284958027856 l -10.888197046581238 -14.98631756144204" fill="#ffe615" stroke="none" /><path d="M 112.34349029814194 116.9893568818739 l 8.947494650465643 12.31516987041345 a36.2223871142883,36.2223871142883 0 0,0 -0.5075837451339881,0.3621475249688019 l -8.73418357748277 -12.467361657226473" fill="#ffbc11" stroke="none" /><path d="M 112.04921762599082 117.19931262002967 l 9.982450844543363 14.249165225386339 a38.397931902501625,38.397931902501625 0 0,0 -0.5445980791371172,0.37457952474092154 l -9.735695880783362 -14.418885539492354" fill="#ffd814" stroke="none" /><path d="M 111.7513745106137 117.40417183066458 l 10.461537395541322 15.49388067587131 a39.69502883326067,39.69502883326067 0 0,0 -0.5695769772241944,0.3774845624209205 l -10.193285719577164 -15.671663259383548" fill="#ffe815" stroke="none" /><path d="M 111.1453310114006 117.79835938074945 l 12.020960278116739 19.196681634020734 a43.64985809593538,43.64985809593538 0 0,0 -0.640241153026248,0.3932884082407459 l -11.688739925158183 -19.400758509089858" fill="#e5ff1a" stroke="none" /><line stroke="#e1ed5e" stroke-width="0.3" x1="143.8653032363475" x2="146.44561519142675" y1="172.8068346515853" y2="177.08958963109032" /><path d="M 144.38136562736335 173.6633856474863 a86.0,86.0 0 0,1 -40.68145358897372,12.25698825130547" fill="none" id="id90" stroke="none" /><text fill="#e1ed5e" style="font-size:6.75px; font-family:Arial;" text-anchor="middle"><textPath startOffset="21.466115282336833" xlink:href="#id90">June</textPath></text><path d="M 110.8373102113329 117.98757091392108 l 9.793135581976326 16.254468804097947 a39.97665040596902,39.97665040596902 0 0,0 -0.5924770483335158,0.3500458834077734 l -9.511890662614428 -16.42063325979947" fill="#ffec16" stroke="none" /><path d="M 110.5260780823613 118.17145234162733 l 8.707218618095487 15.031506218065077 a38.371293424700355,38.371293424700355 0 0,0 -0.5743839715658592,0.32615020955592394 l -8.447185879608428 -15.17915959341563" fill="#ffd714" stroke="none" /><path d="M 110.21172684928248 118.3499491758327 l 9.431051962141447 16.947116460727944 a40.3945739176216,40.3945739176216 0 0,0 -0.610491251701846,0.3328885064107318 l -9.137937898570952 -17.106945618898447" fill="#fff116" stroke="none" /><path d="M 109.89434966115114 118.52300852407294 l 9.19932533791779 17.221867781671513 a40.524864060019254,40.524864060019254 0 0,0 -0.6181182205857725,0.3233702389392281 l -8.90151621480552 -17.37766743955546" fill="#fff216" stroke="none" /><path d="M 109.57404056367764 118.69057910512821 l 6.128422431116863 11.963994039569084 a34.44227342651015,34.44227342651015 0 0,0 -0.5299945746808883,0.2657502822518861 l -5.921573948753213 -12.067712162730272" fill="#ffa40f" stroke="none" /><path d="M 109.2508944713604 118.85261126421891 l 14.503602898378178 29.557226949267417 a53.92391474239271,53.92391474239271 0 0,0 -0.8368152717324419,0.40172218361188894 l -13.992674958645503 -29.80250340937887" fill="#71ff27" stroke="none" /><path d="M 108.92500713936063 119.00905698771935 l 4.558764515710831 9.709551277619259 a31.726496162420514,31.726496162420514 0 0,0 -0.4963413986436803,0.2278459921090183 l -4.390955121299732 -9.786584340062351" fill="#ff800b" stroke="none" /><path d="M 108.59647513512805 119.15986991738527 l 8.156910059610992 18.18016491798182 a40.926203305336415,40.926203305336415 0 0,0 -0.6452295132928756,0.2828496570800939 l -7.842759871660362 -18.317879128356367" fill="#fff717" stroke="none" /><path d="M 108.2653958097858 119.30500536409082 l 10.301388924757415 24.06035633702838 a47.172874523901584,47.172874523901584 0 0,0 -0.749214285298395,0.3131716320178068 l -9.885703179961558 -24.23411301206616" fill="#bcff1f" stroke="none" /><path d="M 107.93186726928326 119.44442032107085 l 6.924157792285237 16.974090704215488 a39.33204070384416,39.33204070384416 0 0,0 -0.6290858813659378,0.25032625504846256 l -6.630950834877432 -17.09076380367002" fill="#ffe415" stroke="none" /><path d="M 107.59598834532513 119.57807347666477 l 5.709654259776831 14.716193014311184 a36.78500834971743,36.78500834971743 0 0,0 -0.5922907977438763,0.22395369939778892 l -5.455493241272679 -14.812294963815603" fill="#ffc312" stroke="none" /><path d="M 107.2578585660854 119.70592522655815 l 3.866801909239761 10.498814298401193 a32.18826432819736,32.18826432819736 0 0,0 -0.5215731775316778,0.1870175847780522 l -3.6855091710783485 -10.563819424219204" fill="#ff860c" stroke="none" /><path d="M 106.91757812671514 119.82793768551818 l 5.693092649469924 16.31818018153331 a38.282774903135056,38.282774903135056 0 0,0 -0.6240644074521071,0.21171653002388585 l -5.41135850908059 -16.41375969845532" fill="#ffd614" stroke="none" /><path d="M 106.57524785965236 119.94407469862006 l 4.906632874806536 14.882823379835331 a36.67078421533222,36.67078421533222 0 0,0 -0.6011889649578549,0.19248172165772554 l -4.64972256475774 -14.965077948152764" fill="#ffc212" stroke="none" /><path d="M 105.88484417918355 120.15858648285463 l 0.5818860495138283 1.9932558781732315 a23.07645379685919,23.07645379685919 0 0,0 -0.382265667933402,0.10803209610653053 l -0.5474892134758206 -2.0029767676182813" fill="#ff0600" stroke="none" /><path d="M 105.53697534728816 120.25689768951611 l 2.7792599992224605 10.167859151546999 a31.540856031128406,31.540856031128406 0 0,0 -0.524944315466,0.1386425648592085 l -2.603825240944963 -10.214193065709791" fill="#ff7e0b" stroke="none" /><path d="M 105.18746579009965 120.34920634021253 l 4.442108706197773 17.42534607564833 a38.98263094248978,38.98263094248978 0 0,0 -0.6516535497346998,0.16016058787269422 l -4.1415018717198615 -17.499227921835054" fill="#ffdf14" stroke="none" /><path d="M 104.83641907484287 120.43548508189849 l 4.186093957167367 17.687644368555574 a39.176252251955816,39.176252251955816 0 0,0 -0.6575637876722351,0.14965937723030917 l -3.88101002010227 -17.757080479363566" fill="#ffe215" stroke="none" /><path d="M 104.48393922423573 120.51570834832081 l 3.3475672854007414 15.316379341731047 a36.67793618018937,36.67793618018937 0 0,0 -0.6179508094142544,0.12949760033593585 l -3.0834250145571094 -15.371732922793523" fill="#ffc212" stroke="none" /><path d="M 104.13013068566511 120.58985236759428 l 1.6925242321535585 8.437704934996665 a29.605783104778673,29.605783104778673 0 0,0 -0.5005243713410621,0.09592668702555851 l -1.547032246240792 -8.46558882037069" fill="#ff6309" stroke="none" /><path d="M 103.41894727170886 120.7198165907248 l 3.0361892043954466 18.400191184688538 a39.64900749417988,39.64900749417988 0 0,0 -0.6743430247827709,0.10531851190631629 l -2.7190103160041588 -18.44972800394196" fill="#ffe815" stroke="none" /><path d="M 103.06178313531738 120.77559828337769 l 2.8253708907264645 19.17143312672844 a40.37850790960917,40.37850790960917 0 0,0 -0.6884947244270221,0.09541909522736851 l -2.494947575112612 -19.217226787448414" fill="#fff116" stroke="none" /><path d="M 102.70371172650421 120.8252237178851 l 2.221322455673439 17.109641029952922 a38.25323417872509,38.25323417872509 0 0,0 -0.653716034587528,0.07915590789437303 l -1.9264789980345305 -17.145342466572647" fill="#ffd614" stroke="none" /><path d="M 102.34483914955558 120.86867818915974 l 1.928134028834144 17.160071965249273 a38.268056366762366,38.268056366762366 0 0,0 -0.6552355076546276,0.06791783946475566 l -1.6324659245739137 -17.19071917316979" fill="#ffd614" stroke="none" /><path d="M 101.98527174616119 120.90594882070398 l 1.5264321198246424 16.074127804940645 a37.146441704164985,37.146441704164985 0 0,0 -0.637071526449409,0.05496921195923655 l -1.249516275633692 -16.098021269178545" fill="#ffc812" stroke="none" /><path d="M 101.26447882468166 120.96189622390904 l 0.9048750730134479 15.000565455008898 a36.027832939840906,36.027832939840906 0 0,0 -0.6193560743089729,0.0320136345045971 l -0.6465309302909954 -15.013918896275696" fill="#ffb911" stroke="none" /><path d="M 100.90346689309514 120.98055641714683 l 1.369450116085251 31.801746849365944 a52.83121889421771,52.83121889421771 0 0,0 -0.9088973420334495,0.03130426219504351 l -0.8218324223771492 -31.820607909987082" fill="#7dff26" stroke="none" /><line stroke="#e1ed5e" stroke-width="0.3" x1="102.19456741930631" x2="102.32365962044197" y1="184.97166512339345" y2="189.96999836594603" /><path d="M 102.22038585953345 185.97133177190398 a86.0,86.0 0 0,1 -42.740103519485714,-10.115201625700543" fill="none" id="id91" stroke="none" /><text fill="#e1ed5e" style="font-size:6.75px; font-family:Arial;" text-anchor="middle"><textPath startOffset="22.20632615414155" xlink:href="#id91">July</textPath></text><path d="M 99.81925306533755 120.99922214144158 l -0.3363747722065733 39.0801015659502 a60.08154918106958,60.08154918106958 0 0,0 -1.0340901794159387,-0.01780280023249961 l 1.0090246415151798 -39.068521288438546" fill="#32ff2f" stroke="none" /><path d="M 98.73552117531835 120.96189622390904 l -1.042543604441253 17.282765372286573 a38.314181357507756,38.314181357507756 0 0,0 -0.6579771708469992,-0.04537795804116679 l 1.3398835360671821 -17.26225906972912" fill="#ffd714" stroke="none" /><path d="M 98.37488393609728 120.93702456842531 l -1.443927006250294 18.602692986908366 a39.65864709898734,39.65864709898734 0 0,0 -0.680156528732534,-0.058686767248459414 l 1.7639278527243696 -18.57508196738124" fill="#ffe815" stroke="none" /><path d="M 98.01472825383883 120.90594882070398 l -2.3038663712803533 24.260916693576807 a45.370061121576825,45.370061121576825 0 0,0 -0.7768378604443286,-0.08052242053342402 l 2.7211368283302755 -24.217664904587622" fill="#d1ff1c" stroke="none" /><path d="M 97.2962882734958 120.8252237178851 l -3.541192666998626 27.275884775531058 a48.504798413965005,48.504798413965005 0 0,0 -0.8270562620136768,-0.11462246176126771 l 4.010177520199133 -27.210887748277187" fill="#adff20" stroke="none" /><path d="M 96.93821686468263 120.77559828337769 l -1.1979694684302173 8.128770501336616 a29.216571104219284,29.216571104219284 0 0,0 -0.4969100660361349,-0.07760713284319004 l 1.3377153980748695 -8.10694506114632" fill="#ff5e08" stroke="none" /><path d="M 94.81253420990036 120.34920634021253 l -5.4551924694945715 21.39943503804511 a43.08381635557457,43.08381635557457 0 0,0 -0.7170574084013326,-0.18938137879216044 l 5.822740320707394 -21.302362309949366" fill="#ecff1a" stroke="none" /><path d="M 94.11515582081647 120.15858648285463 l -4.2421941619051005 14.531674125259435 a36.138221962636045,36.138221962636045 0 0,0 -0.5956353809762605,-0.17946005421661246 l 4.491704517321607 -14.456498701937099" fill="#ffbb11" stroke="none" /><path d="M 93.76903079525671 120.05430185196036 l -5.235724097620302 16.851117060140588 a38.64576303255156,38.64576303255156 0 0,0 -0.6335672054657672,-0.20284821179722398 l 5.52501264817701 -16.758496001683657" fill="#ffdb14" stroke="none" /><path d="M 93.42475214034765 119.94407469862007 l -6.3043321347911325 19.12233176679565 a41.13475045450433,41.13475045450433 0 0,0 -0.6705557194595733,-0.22748890726081944 l 6.632557587187932 -19.010979872636707" fill="#fffa17" stroke="none" /><path d="M 93.08242187328487 119.8279376855182 l -5.709959655802191 16.366526285382296 a38.333978825445655,38.333978825445655 0 0,0 -0.6211572932158763,-0.22272490562927688 l 5.990836509647794 -16.26581383871306" fill="#ffd714" stroke="none" /><path d="M 92.7421414339146 119.70592522655815 l -6.256788625842717 16.987904585985472 a39.103488783409155,39.103488783409155 0 0,0 -0.6296216204684233,-0.23806902228069052 l 6.548280467071424 -16.87768731359815" fill="#ffe115" stroke="none" /><path d="M 92.40401165467489 119.57807347666478 l -15.212097520909895 39.20800683980209 a63.05562639333339,63.05562639333339 0 0,0 -1.0085264734523538,-0.40131349740100586 l 15.884745070404106 -38.940346497995016" fill="#33ff50" stroke="none" /><path d="M 91.7346041902142 119.30500536409082 l -4.185535896385108 9.775913312662427 a31.63424618092974,31.63424618092974 0 0,0 -0.4987354706330038,-0.21863097384107175 l 4.353192041675855 -9.702417785526903" fill="#ff7f0b" stroke="none" /><path d="M 91.40352486487194 119.15986991738527 l -7.688096276729826 17.13527024263106 a39.780956063211065,39.780956063211065 0 0,0 -0.6223484393207123,-0.2856896442287775 l 7.981912711817958 -17.000393528068205" fill="#ffe915" stroke="none" /><path d="M 91.07499286063937 119.00905698771935 l -8.085302738665776 17.2206002888723 a40.02422652001876,40.02422652001876 0 0,0 -0.621113733141089,-0.29817233692713035 l 8.380529139807107 -17.078873675445607" fill="#ffec16" stroke="none" /><path d="M 90.7491055286396 118.85261126421891 l -8.303271564866746 16.921428681118186 a39.84884790352169,39.84884790352169 0 0,0 -0.6131904515889074,-0.30746642205164043 l 8.593315924138414 -16.775994418157246" fill="#ffea16" stroke="none" /><path d="M 90.42595943632237 118.69057910512821 l -5.3836759452362255 10.510089283783163 a32.80872319247127,32.80872319247127 0 0,0 -0.5004253578589763,-0.2617988956687789 l 5.563792205621698 -10.415860969169668" fill="#ff8f0d" stroke="none" /><path d="M 90.10565033884886 118.52300852407294 l -10.752862197951238 20.130212188969658 a43.822127162494546,43.822127162494546 0 0,0 -0.6622925474651138,-0.3611347031067604 l 11.097777557284994 -19.94213683410313" fill="#e3ff1b" stroke="none" /><line stroke="#e1ed5e" stroke-width="0.3" x1="58.666819895761336" x2="56.23545636021788" y1="174.27360380694188" y2="178.64263932499728" /><path d="M 58.180547188652646 175.14741091055294 a86.0,86.0 0 0,1 -31.652253787137756,-30.449443065178592" fill="none" id="id92" stroke="none" /><text fill="#e1ed5e" style="font-size:6.75px; font-family:Arial;" text-anchor="middle"><textPath startOffset="22.20632615414155" xlink:href="#id92">August</textPath></text><path d="M 89.7882731507175 118.34994917583269 l -1.096970359643887 1.9711994498045728 a23.255874828275516,23.255874828275516 0 0,0 -0.34811966326640315,-0.1976714301677838 l 1.1307387898314973 -1.9520248538421558" fill="#ff0801" stroke="none" /><path d="M 89.4739219176387 118.17145234162733 l -9.335556925585934 16.116223576196262 a39.62485665632892,39.62485665632892 0 0,0 -0.5872632617783065,-0.34696548641053737 l 9.611588058392622 -15.953139517491977" fill="#ffe715" stroke="none" /><path d="M 89.1626897886671 117.98757091392108 l -9.48802448164591 15.748050934091923 a39.3854213111113,39.3854213111113 0 0,0 -0.5776918563453144,-0.3548655214707447 l 9.757695537923533 -15.5823969457928" fill="#ffe415" stroke="none" /><path d="M 88.54995079064634 117.60387380957326 l -6.291936781907504 9.673535816425058 a32.53974712284368,32.53974712284368 0 0,0 -0.46690710022458726,-0.3094405663628553 l 6.457518580872053 -9.563797228970884" fill="#ff8b0c" stroke="none" /><path d="M 88.24862548938628 117.40417183066458 l -6.800834541064825 10.072259448263438 a33.153261325589625,33.153261325589625 0 0,0 -0.47021288752976476,-0.323416711672991 l 6.9732043132174795 -9.953701947225346" fill="#ff930d" stroke="none" /><path d="M 87.95078237400918 117.19931262002967 l -18.42064003505388 26.294018122846666 a53.104444682093764,53.104444682093764 0 0,0 -0.7441517542714619,-0.5309325182181819 l 18.870519117174226 -25.973041342784267" fill="#7aff26" stroke="none" /><path d="M 87.36589467227662 116.77436683061367 l -10.41930959114844 13.833771103691568 a38.3186383790854,38.3186383790854 0 0,0 -0.5234531673431669,-0.40136156753060703 l 10.655891486985094 -13.652370194333594" fill="#ffd714" stroke="none" /><path d="M 87.07902340077011 116.55440617244103 l -8.771778597138608 11.238437329916101 a35.25645725191468,35.25645725191468 0 0,0 -0.47519409802310547,-0.377522930870642 l 8.963930187879072 -11.08578048504033" fill="#ffaf10" stroke="none" /><path d="M 86.79598089348748 116.32954008644616 l -6.603454206180444 8.166556659680248 a31.502297611898552,31.502297611898552 0 0,0 -0.4187253468074381,-0.34458245374604174 l 6.743049681532572 -8.051679087077025" fill="#ff7d0b" stroke="none" /><path d="M 86.24171649860922 115.8653595955263 l -1.8127374065010604 2.090357478350684 a23.76687753473565,23.76687753473565 0 0,0 -0.3067711382534631,-0.27068986184004007 l 1.8484508976611111 -2.058844474738355" fill="#ff1001" stroke="none" /><path d="M 85.97065885151581 115.62618273729859 l -14.619824289064681 16.283875594029894 a42.883872294568164,42.883872294568164 0 0,0 -0.5450345160012435,-0.497876107723488 l 14.89795835453278 -16.02980671971983" fill="#efff19" stroke="none" /><path d="M 85.18274418774928 114.88116024355367 l -12.245929689476222 12.298744406485744 a38.3557456750109,38.3557456750109 0 0,0 -0.46384767605498584,-0.46987524692174104 l 12.455817990586741 -12.086128665583338" fill="#ffd714" stroke="none" /><path d="M 84.9287848128048 114.62390073753433 l -12.700927790811194 12.323963594204402 a38.697277909855956,38.697277909855956 0 0,0 -0.45974844371318335,-0.4820444051832163 l 12.911182785903334 -12.103512072438685" fill="#ffdc14" stroke="none" /><path d="M 84.67929136418377 114.36230785411682 l -13.337225048409508 12.502902875986338 a39.28125138819193,39.28125138819193 0 0,0 -0.4581944583790653,-0.4972795900658945 l 13.550465914784303 -12.2714720311191" fill="#ffe315" stroke="none" /><path d="M 84.43433777217949 114.09645910891817 l -13.84164742781944 12.535169664518632 a39.6740911970122,39.6740911970122 0 0,0 -0.45406270083079275,-0.5101442578690425 l 14.055368978298572 -12.295051236908725" fill="#ffe815" stroke="none" /><path d="M 84.19399662182784 113.82643327865904 l -35.05369797160408 30.66351465190545 a67.57266228477883,67.57266228477883 0 0,0 -0.7582859055072507,-0.8820578191848489 l 35.57632638668211 -30.05557973355907" fill="#38ff84" stroke="none" /><path d="M 83.72743513129214 113.27417163493432 l -14.801406455178025 12.07408981372581 a40.101447010143055,40.101447010143055 0 0,0 -0.4317247080797379,-0.5386429540379846 l 15.007049075312624 -11.817519026109565" fill="#ffed16" stroke="none" /><path d="M 83.50135304334701 112.99209946851258 l -17.237116844948986 13.573618320843325 a42.9399478451148,42.9399478451148 0 0,0 -0.4522868443976708,-0.5846417152641684 l 17.468210506564724 -13.274898611465904" fill="#eeff19" stroke="none" /><path d="M 83.28015986056508 112.70617746262583 l -17.346237552774845 13.182205739789486 a42.78675068484135,42.78675068484135 0 0,0 -0.4405787033487284,-0.5902271714783255 l 17.570577522818656 -12.881665688801853" fill="#f0ff19" stroke="none" /><path d="M 83.06392112726016 112.41649034213515 l -17.102373191991095 12.538407098926982 a42.206197711437056,42.206197711437056 0 0,0 -0.42451437350694743,-0.5896133357247958 l 17.31566735787365 -12.242160157751048" fill="#f7ff19" stroke="none" /><path d="M 82.85270091963577 112.12312394758628 l -17.347151774378435 12.264419609919932 a42.244756130666914,42.244756130666914 0 0,0 -0.4146807479015506,-0.5973785457038243 l 17.55569342944212 -11.963999802029095" fill="#f6ff19" stroke="none" /><path d="M 82.6465618267979 111.8261652097733 l -18.122030987711028 12.349952226081317 a42.93010093697814,42.93010093697814 0 0,0 -0.41089604632078575,-0.6142338381419064 l 18.331930139442544 -12.03618147373359" fill="#eeff19" stroke="none" /><path d="M 82.44556493220864 111.52570212397912 l -43.06987669353496 28.278356288263684 a72.52358404422472,72.52358404422472 0 0,0 -0.676179287920252,-1.049445270824828 l 43.55026084483226 -27.53278941751741" fill="#3fffba" stroke="none" /><path d="M 82.24976979558568 111.22182372390057 l -18.28906995976619 11.562482108628705 a42.63749228782257,42.63749228782257 0 0,0 -0.3868547598435726,-0.6237330501049689 l 18.485389359277722 -11.245952727158471" fill="#f2ff19" stroke="none" /><path d="M 82.05923443525364 110.91462005526583 l -9.793310487084966 5.95795439520275 a32.46325219437155,32.46325219437155 0 0,0 -0.28632453063947383,-0.47989638270799106 l 9.894415893422671 -5.788495918608647" fill="#ff8a0c" stroke="none" /><line stroke="#e1ed5e" stroke-width="0.3" x1="26.63291911575756" x2="22.317208475507996" y1="142.92168965132927" y2="145.44649492493687" /><path d="M 25.769776987707644 143.4266507060508 a86.0,86.0 0 0,1 -11.730757126820373,-40.83630448921669" fill="none" id="id93" stroke="none" /><text fill="#e1ed5e" style="font-size:6.75px; font-family:Arial;" text-anchor="middle"><textPath startOffset="21.46611528233685" xlink:href="#id93">September</textPath></text><path d="M 81.87401531095188 110.60418214915194 l -11.730081709843518 6.862409144082114 a34.58997704855999,34.58997704855999 0 0,0 -0.2962351583485048,-0.5165109683164317 l 11.846468864344398 -6.659478329907375" fill="#ffa60f" stroke="none" /><path d="M 81.69416730710424 110.29060199501025 l -19.503502575285157 10.963870689630358 a43.37393736477982,43.37393736477982 0 0,0 -0.36025894720904394,-0.653974633469312 l 19.68933793194572 -10.626525537763225" fill="#e9ff1a" stroke="none" /><path d="M 81.51974371655577 109.97397251340807 l -9.169178284387252 4.948693934561179 a31.41937628022145,31.41937628022145 0 0,0 -0.25277261027056774,-0.4781505187865665 l 9.253003402882706 -4.790128400688486" fill="#ff7c0b" stroke="none" /><path d="M 81.35079622478065 109.6543875284942 l -19.46506137491512 10.076743653209626 a42.918699253872546,42.918699253872546 0 0,0 -0.3339919487195721,-0.6589978006481104 l 19.635631993420958 -9.74019164085883" fill="#eeff19" stroke="none" /><path d="M 81.02952815118164 109.00673069616217 l -11.08443229718307 5.262625907050834 a33.27028405491893,33.27028405491893 0 0,0 -0.24117055895751613,-0.5194599284543395 l 11.173377472980413 -5.071045911317667" fill="#ff950d" stroke="none" /><path d="M 80.87730276802145 108.67885076344099 l -9.984778532980053 4.531599373378628 a31.964998642656774,31.964998642656774 0 0,0 -0.22308359655399465,-0.5029946178797452 l 10.06130321426533 -4.359056419006187" fill="#ff830c" stroke="none" /><path d="M 80.73074385275274 108.34839909993369 l -10.573655775688257 4.581033003361413 a32.52337015983745,32.52337015983745 0 0,0 -0.21813737025392949,-0.5156123065428085 l 10.650944127134492 -4.398346171152446" fill="#ff8b0c" stroke="none" /><path d="M 80.58989483394504 108.01547362559985 l -10.588767154654322 4.372669963900049 a32.4561002295144,32.4561002295144 0 0,0 -0.20879687106702816,-0.5182167106815927 l 10.662466639978739 -4.189753885375651" fill="#ff8a0c" stroke="none" /><path d="M 80.45479744820244 107.68017299344265 l -10.336201431415894 4.061549880486797 a32.105550299849455,32.105550299849455 0 0,0 -0.197687205265184,-0.5160989121467533 l 10.404582916274588 -3.883027401506886" fill="#ff850c" stroke="none" /><path d="M 80.32549172779594 107.34259656027581 l -21.40968981222347 7.990172491065431 a43.852082493562904,43.852082493562904 0 0,0 -0.25784134725488295,-0.7094686491932134 l 21.544055420483577 -7.6204560448661" fill="#e3ff1b" stroke="none" /><path d="M 80.0844068197444 106.66101706037122 l -10.862362730799113 3.6330518910943543 a32.45381989289328,32.45381989289328 0 0,0 -0.1726353888647227,-0.5313170942428074 l 10.923290370680084 -3.4455358968737437" fill="#ff8a0c" stroke="none" /><path d="M 79.97269907076064 106.31721596034903 l -11.085899645177328 3.4968277762829665 a32.62432688115432,32.62432688115432 0 0,0 -0.16432287376355725,-0.5370166591171533 l 11.144449291447016 -3.3054841446137653" fill="#ff8c0c" stroke="none" /><path d="M 79.86692584326677 105.97154293290107 l -11.129642759503286 3.3010924734511287 a32.60888278312946,32.60888278312946 0 0,0 -0.154981266889251,-0.5395101216735817 l 11.18481666327864 -3.109024876272951" fill="#ff8c0c" stroke="none" /><path d="M 79.76711848015287 105.62410040840567 l -11.506083417497582 3.198326861352907 a32.942330188136,32.942330188136 0 0,0 -0.14716111260635517,-0.5476412452858777 l 11.55943260644571 -2.9997946828914905" fill="#ff900d" stroke="none" /><path d="M 79.67330655649465 105.27499134158121 l -11.184104202572001 2.9023930033617633 a32.55456931088096,32.55456931088096 0 0,0 -0.1360915644520315,-0.543618150368285 l 11.232407081319092 -2.7094470135960864" fill="#ff8b0c" stroke="none" /><path d="M 79.50377843672027 104.57218783832718 l -14.499591736388961 3.234491625353926 a35.85597847994011,35.85597847994011 0 0,0 -0.12919414662668735,-0.6035520420938217 l 14.55311992174009 -2.9844257638439404" fill="#ffb711" stroke="none" /><path d="M 79.4281124754447 104.21870165774334 l -21.444239395727603 4.397595902651949 a42.890506001102324,42.890506001102324 0 0,0 -0.14209025605734615,-0.7245151544285978 l 21.516759584760614 -4.027817021155396" fill="#efff19" stroke="none" /><path d="M 79.35854240842038 103.8639653848113 l -13.370378882569375 2.5028601277234905 a34.602622551640735,34.602622551640735 0 0,0 -0.1045552145378964,-0.5864011686469037 l 13.41148053944646 -2.272340208343373" fill="#ffa70f" stroke="none" /><path d="M 79.23777060512086 103.15116336523772 l -11.65729128216327 1.7692719085031476 a32.790791454496095,32.790791454496095 0 0,0 -0.07989390298505182,-0.5587777713970388 l 11.68601923616492 -1.5683486651257084" fill="#ff8e0d" stroke="none" /><path d="M 79.18660465613746 102.79330883721812 l -11.442753121995409 1.5357005855942838 a32.54534431273188,32.54534431273188 0 0,0 -0.06973768452926711,-0.555877961218104 l 11.467492315771525 -1.3385048700887712" fill="#ff8b0c" stroke="none" /><path d="M 79.10278846688536 102.07522291339032 l -22.81995921991864 2.2661637023085364 a43.9322052302959,43.9322052302959 0 0,0 -0.06825266343222791,-0.7531624535719309 l 22.855586479627945 -1.8730198601880392" fill="#e2ff1b" stroke="none" /><path d="M 79.07016306316243 101.71520430193888 l -11.59757558944433 0.9504236274323268 a32.636454125912095,32.636454125912095 0 0,0 -0.04106511576191185,-0.5603008781848783 l 11.612217263870576 -0.7506496127506879" fill="#ff8c0c" stroke="none" /><path d="M 79.04373962182676 101.35467743843564 l -13.603769672889982 0.8793897155779422 a34.632163276050704,34.632163276050704 0 0,0 -0.033335352212752474,-0.5952251071817081 l 13.616891375990267 -0.6450928920607966" fill="#ffa70f" stroke="none" /><path d="M 79.0235259727143 100.99374915477108 l -14.230650088243788 0.6741693803563009 a35.24661034377802,35.24661034377802 0 0,0 -0.023494160430366392,-0.6062798867525921 l 14.240146381525356 -0.429112246589712" fill="#ffaf10" stroke="none" /><path d="M 79.0095281055655 100.63252640178507 l -13.85380469449902 0.4174702349959118 a34.860093286498135,34.860093286498135 0 0,0 -0.012911410494151187,-0.5999425112498373 l 13.858938167678179 -0.17893790795594558" fill="#ffaa0f" stroke="none" /><line stroke="#e1ed5e" stroke-width="0.3" x1="15.007084014347285" x2="10.007500721073583" y1="101.09737516637583" y2="101.16192664675087" /><path d="M 14.007167355692545 101.11028546245083 a86.0,86.0 0 0,1 10.666146001902534,-42.60595125391555" fill="none" id="id94" stroke="none" /><text fill="#e1ed5e" style="font-size:6.75px; font-family:Arial;" text-anchor="middle"><textPath startOffset="22.20632615414155" xlink:href="#id94">October</textPath></text><path d="M 79.00175016825051 100.2711162175752 l -11.759234101367046 0.1518278474010502 a32.760214213440165,32.760214213440165 0 0,0 -0.002426912097538608,-0.5639289014369455 l 11.760105310754087 0.050610532239570655" fill="#ff8e0d" stroke="none" /><path d="M 79.00019446554 99.90962569577889 l -12.740122724208993 -0.05482811376527722 a33.740240702198896,33.740240702198896 0 0,0 0.0074983553906536335,-0.5807558884836753 l 12.737291361700624 0.2741202603094245" fill="#ff9b0e" stroke="none" /><path d="M 79.00486145842228 99.54816195383935 l -13.522478213056905 -0.2910183289782866 a34.525609364845636,34.525609364845636 0 0,0 0.017901208755689593,-0.5940539686600907 l 13.51546530984557 0.5237424450633718" fill="#ffa60f" stroke="none" /><path d="M 79.08570108090925 98.10471618934814 l -30.996160578830178 -2.8089165964725544 a52.12317437335987,52.12317437335987 0 0,0 0.08866617177061019,-0.8928562494979676 l 30.943217281377336 3.3420483766749527" fill="#85ff25" stroke="none" /><path d="M 79.16333360222342 97.38593545837743 l -1.6841976403451249 -0.21129106012756288 a22.697399659430246,22.697399659430246 0 0,0 0.05197056126708406,-0.38724104670484305 l 1.680311080020207 0.24025044889706532" fill="#ff0000" stroke="none" /><path d="M 79.26566170972629 96.67025291283419 l -15.399161980589925 -2.4729660542731944 a36.59646597181662,36.59646597181662 0 0,0 0.10523773595126229,-0.6211190747510308 l 15.354312383118438 2.7376709173400533" fill="#ffc111" stroke="none" /><path d="M 79.32604984820605 96.31383870115002 l -12.34896109510352 -2.2018173660839935 a33.543717146124166,33.543717146124166 0 0,0 0.10624457444508625,-0.567562765019643 l 12.309230796748572 2.414058208566209" fill="#ff990e" stroke="none" /><path d="M 79.46518482838121 95.60439243477599 l -11.667753562958058 -2.497556729967138 a32.93206867334096,32.93206867334096 0 0,0 0.12342565010601404,-0.553292988087362 l 11.623033525850007 2.6980278876044594" fill="#ff900d" stroke="none" /><path d="M 79.54389044137918 95.25157060432595 l -15.21766541850975 -3.532441474255379 a36.622275236301114,36.622275236301114 0 0,0 0.1478270342789978,-0.6128384937271698 l 15.154605583969937 3.7938651996419455" fill="#ffc111" stroke="none" /><path d="M 79.62865764111835 94.90015583598534 l -25.93725139248624 -6.493236322587314 a47.73767244428723,47.73767244428723 0 0,0 0.2064169412340491,-0.7954086773444575 l 25.82163811938188 6.938741425480635" fill="#b6ff1f" stroke="none" /><path d="M 79.71946130924805 94.55025226153421 l -29.644778505932948 -7.966088430072029 a51.6964404702166,51.6964404702166 0 0,0 0.23832854057835964,-0.8573945652024747 l 29.50326319478823 8.475194298693447" fill="#89ff24" stroke="none" /><path d="M 79.91906864156998 93.8553929516997 l -15.065728621897225 -4.609994458201611 a36.75526032197827,36.75526032197827 0 0,0 0.19033014298510756,-0.6033985656645628 l 14.984142995143914 4.868643190292588" fill="#ffc312" stroke="none" /><path d="M 80.14247586403 93.16781622104843 l -14.817844891610063 -5.09823071669319 a36.67036960867383,36.67036960867383 0 0,0 0.2105000038995819,-0.5951118572595003 l 14.727891806900672 5.352540200379302" fill="#ffc212" stroke="none" /><path d="M 80.2630227832202 92.82701384747504 l -11.89430477008225 -4.322733034173891 a33.65545364055906,33.65545364055906 0 0,0 0.20256642438394562,-0.5427773076589987 l 11.818133757196676 4.526833478862231" fill="#ff9a0e" stroke="none" /><path d="M 80.38941819471856 92.48833698450439 l -21.34699774723096 -8.176782058886083 a43.85944176174924,43.85944176174924 0 0,0 0.27611909997578926,-0.7026929916884211 l 21.20308509737348 8.543024055470267" fill="#e3ff1b" stroke="none" /><path d="M 80.52162464483688 92.15188598940014 l -41.44321954006013 -16.6980616189069 a65.6807084509012,65.6807084509012 0 0,0 0.43154825505593675,-1.0450283297184852 l 41.14964959811799 17.408964519078697" fill="#36ff6e" stroke="none" /><path d="M 81.26839172434947 90.50648371742162 l -6.670746055214061 -3.3808541882889043 a28.478571252293087,28.478571252293087 0 0,0 0.22537475710517474,-0.4353522953827961 l 6.611561864948772 3.495179205932036" fill="#ff5307" stroke="none" /><path d="M 81.43458229118936 90.18545643968196 l -15.84901826776912 -8.37852843480469 a38.92738460525991,38.92738460525991 0 0,0 0.31826269787288913,-0.5896924434316153 l 15.70244747067776 8.650101861568777" fill="#ffde14" stroke="none" /><path d="M 81.6062741919709 89.86733742301443 l -55.18117742408733 -30.39798773095671 a84.0,84.0 0 0,0 0.7085694348302773,-1.2604659602608617 l 54.64975034796462 31.34333720115236" fill="#4dd2ff" stroke="none" /><line stroke="#e1ed5e" stroke-width="0.3" x1="26.266209847984243" x2="21.928928074336255" y1="57.711370442889674" y2="55.22380399835377" /><path d="M 25.398753493254645 57.213857153982495 a86.0,86.0 0 0,1 29.58750427330803,-30.492523968695096" fill="none" id="id95" stroke="none" /><text fill="#e1ed5e" style="font-size:6.75px; font-family:Arial;" text-anchor="middle"><textPath startOffset="21.46611528233685" xlink:href="#id95">November</textPath></text><path d="M 81.78341655067845 89.55222093294921 l -6.383843954402298 -3.6613337193373168 a28.35926818634266,28.35926818634266 0 0,0 0.24651000221515934,-0.42136550117696275 l 6.3198742777168135 3.7706786328681714" fill="#ff5207" stroke="none" /><path d="M 81.96595687620814 89.24020034530311 l -10.79737168500852 -6.442124782030632 a33.57315421886954,33.57315421886954 0 0,0 0.3003745371155253,-0.49373676085122775 l 10.684881349606776 6.627029316088934" fill="#ff990e" stroke="none" /><path d="M 82.54541684631803 88.32363383020206 l -14.05874985530026 -9.404699599798338 a37.91439688715953,37.91439688715953 0 0,0 0.3675449335786166,-0.5393268373639186 l 13.894780456052903 9.645304460432673" fill="#ffd213" stroke="none" /><path d="M 82.7489923806493 88.02491185347247 l -5.1281731931654155 -3.559810961414828 a27.242628803645907,27.242628803645907 0 0,0 0.2707234683184891,-0.3829191468635356 l 5.0661371050430475 3.6475566086101496" fill="#ff4206" stroke="none" /><path d="M 82.95767976084542 87.72973835380427 l -35.512925455665886 -25.568870966391465 a64.7599707142916,64.7599707142916 0 0,0 0.659125093055538,-0.8990458861880835 l 35.06753775009671 26.17637929625105" fill="#35ff64" stroke="none" /><path d="M 83.39014120810768 87.1503855733568 l -5.218945225029773 -4.037447560248831 a27.598361316540668,27.598361316540668 0 0,0 0.2939171852732153,-0.3732449775395014 l 5.148673959162587 4.126684931741379" fill="#ff4706" stroke="none" /><path d="M 83.6137871275137 86.86637796730984 l -9.794280763233337 -7.850159315478056 a33.55200927929188,33.55200927929188 0 0,0 0.3650802244850031,-0.4475451876469608 l 9.65770204667194 8.0175886727331" fill="#ff990e" stroke="none" /><path d="M 83.84228863543731 86.58626213691792 l -8.586644403384646 -7.128422742042205 a32.15996742376255,32.15996742376255 0 0,0 0.35726567002683984,-0.42288986591862887 l 8.462668119870683 7.27517155758995" fill="#ff860c" stroke="none" /><path d="M 84.07557802195018 86.31012108654704 l -4.933229017679939 -4.240989594313777 a27.50559307672691,27.50559307672691 0 0,0 0.31174071187514,-0.3563735235042581 l 4.8594964422269555 4.325278674020978" fill="#ff4606" stroke="none" /><path d="M 84.31358615837235 86.03803664274999 l -34.262221729130665 -30.49568175044789 a66.86814192051727,66.86814192051727 0 0,0 0.772665708438207,-0.8531967737174457 l 33.73221238007641 31.08093131143489" fill="#37ff7c" stroke="none" /><path d="M 84.5562425177563 85.77008943001954 l -22.849179008366324 -21.053281512634214 a52.06969011442814,52.06969011442814 0 0,0 0.6130156633885022,-0.6539223684217791 l 22.483396023007366 21.443473297934045" fill="#85ff25" stroke="none" /><path d="M 84.80347519578584 85.50635884689758 l -14.405076901223229 -13.73880002691645 a40.90630218573391,40.90630218573391 0 0,0 0.490360861900403,-0.5053599721250291 l 14.166451775619707 13.984724194591603" fill="#fff717" stroke="none" /><path d="M 85.05521093208273 85.24692304244772 l -24.992187933087685 -24.67158755060545 a56.118324133562574,56.118324133562574 0 0,0 0.6845478856012102,-0.6816082194318369 l 24.563804247319162 25.098131620687397" fill="#5aff2a" stroke="none" /><path d="M 85.31137513191541 84.99185889309783 l -24.04209410401299 -24.56507290906804 a55.37244675512706,55.37244675512706 0 0,0 0.6869262010423458,-0.6608224611518138 l 23.615684659358216 24.975278456982167" fill="#62ff29" stroke="none" /><path d="M 85.57189188830299 84.74124197986013 l -22.267742982316065 -23.54973356114284 a53.410528047646864,53.410528047646864 0 0,0 0.6734612737795526,-0.6259088575170145 l 21.859073824741657 23.929547004734502" fill="#77ff27" stroke="none" /><path d="M 85.83668400450813 84.49514656593479 l -22.64776689765718 -24.792944425501645 a54.579926127623175,54.579926127623175 0 0,0 0.6991143060073427,-0.6276717267200256 l 22.217641604053867 25.17911516099095" fill="#6aff28" stroke="none" /><path d="M 86.10567301691215 84.25364557470407 l -22.75359062737301 -25.786502858527268 a55.389963886443844,55.389963886443844 0 0,0 0.7203496490532894,-0.6246801172156944 l 22.306347179672947 26.174347969162643" fill="#62ff29" stroke="none" /><path d="M 86.37877921826538 84.01681056812374 l -9.325484345992864 -10.94255685554048 a35.37721144116946,35.37721144116946 0 0,0 0.4668822625868592,-0.39100046810141953 l 9.135744546446894 11.101458481035714" fill="#ffb110" stroke="none" /><path d="M 86.65592168130627 83.78471172551755 l -12.910981136220942 -15.689002719426604 a41.3184212041691,41.3184212041691 0 0,0 0.5530698941510673,-0.44721072430380676 l 12.639007843505375 15.908919540994546" fill="#fffc17" stroke="none" /><path d="M 86.93701828274178 83.55741782278169 l -21.061789263462323 -26.51080804210298 a54.85885275705201,54.85885275705201 0 0,0 0.7444279570029719,-0.58103782836141 l 20.60232875129993 26.86942425968761" fill="#67ff28" stroke="none" /><path d="M 87.22198572758235 83.33499621200491 l -20.62389856833582 -26.897555475927167 a54.894301626343974,54.894301626343974 0 0,0 0.7548067014930425,-0.5685047587805531 l 20.157845713084388 27.248576824213576" fill="#67ff28" stroke="none" /><path d="M 87.51073957382395 83.11751280151077 l -20.30178541296406 -27.443148805071605 a55.13632826317651,55.13632826317651 0 0,0 0.7678513066486348,-0.5578766294647204 l 19.82638878996164 27.788544669352994" fill="#64ff29" stroke="none" /><path d="M 87.80319425747018 82.90503203632743 l -11.859459881048481 -16.622146077644484 a41.41917062215678,41.41917062215678 0 0,0 0.5839488878805664,-0.4090935136753209 l 11.571579853584254 16.823824434083747" fill="#fffd18" stroke="none" /><path d="M 88.09926311788651 82.69761687909137 l -11.393187748002799 -16.564461624276984 a41.10438051677758,41.10438051677758 0 0,0 0.5864133067692315,-0.39594888242318715 l 11.106369746827028 16.758122418998838" fill="#fffa17" stroke="none" /><path d="M 88.39885842347998 82.49532879139004 l -24.529627593303555 -37.01213911219472 a65.40271468645372,65.40271468645372 0 0,0 0.9437704358675121,-0.6138545441708099 l 23.888890131651756 37.428892580525066" fill="#36ff6b" stroke="none" /><path d="M 88.70189139769569 82.29822771554957 l -6.7713926337493415 -10.609355483340687 a33.58611067694409,33.58611067694409 0 0,0 0.4900067170343721,-0.30684216125362257 l 6.587766764342727 10.72434198591724" fill="#ff990e" stroke="none" /><path d="M 89.00827224532344 82.1063720568725 l -17.761585332293006 -28.914398783297905 a54.93400021388438,54.93400021388438 0 0,0 0.8099833486012561,-0.4880059045667175 l 17.2612399174741 29.21585129732324" fill="#67ff28" stroke="none" /><line stroke="#e1ed5e" stroke-width="0.3" x1="56.762969772571076" x2="54.21961505331055" y1="26.818313649435495" y2="22.513508569990535" /><path d="M 56.25429882871897 25.957352633546506 a86.0,86.0 0 0,1 42.265352541879196,-11.944610805530505" fill="none" id="id96" stroke="none" /><text fill="#e1ed5e" style="font-size:6.75px; font-family:Arial;" text-anchor="middle"><textPath startOffset="22.20632615414155" xlink:href="#id96">December</textPath></text><path d="M 89.3179101791058 81.91981866633112 l -7.205816999194431 -12.196347361528083 a35.165969348722044,35.165969348722044 0 0,0 0.5238109580145073,-0.30342511653987925 l 6.994809308714603 12.31857663545801" fill="#ffae10" stroke="none" /><path d="M 89.63071344664047 81.73862282372117 l -15.889086367060246 -27.98231080241001 a53.17876292560936,53.17876292560936 0 0,0 0.799899532435647,-0.44514322376759224 l 15.405062745552554 28.251669423737784" fill="#79ff26" stroke="none" /><path d="M 89.94658935756843 81.56283822128135 l -6.838694455498024 -12.541625973088415 a35.284961459678684,35.284961459678684 0 0,0 0.5357516544988755,-0.2861799795785316 l 6.621797754470843 12.657484679168697" fill="#ffb010" stroke="none" /><path d="M 90.26544431104013 81.39251694778311 l -0.9960300068219493 -1.9038990646956988 a23.148699007082865,23.148699007082865 0 0,0 0.3546595776901576,-0.18167041074563073 l 0.963109941543028 1.9207620007538346" fill="#ff0701" stroke="none" /><path d="M 90.58718382345135 81.22770947309562 l -11.726572048976596 -23.386690365473708 a47.161991099118964,47.161991099118964 0 0,0 0.7288295817458402,-0.35763351049056136 l 11.32227120022033 23.5850790360991" fill="#bcff1f" stroke="none" /><path d="M 90.91171255644093 81.06846463323043 l -8.657397307312998 -18.033961219363405 a41.004356660442085,41.004356660442085 0 0,0 0.6389294729018415,-0.2999859546363019 l 8.345689623111548 18.180312156639715" fill="#fff817" stroke="none" /><path d="M 91.23893434514133 80.91482961587045 l -14.27514391812831 -31.097079358646162 a55.217072909897084,55.217072909897084 0 0,0 0.867218000552758,-0.3890954380500617 l 13.737743799108776 31.338195127212753" fill="#64ff29" stroke="none" /><path d="M 91.56875222667455 80.76684994638697 l -12.974817866802978 -29.597827707071982 a53.31682694285173,53.31682694285173 0 0,0 0.8437165512472826,-0.36123539547406597 l 12.463417557765387 29.816782630508833" fill="#78ff26" stroke="none" /><path d="M 91.90106846888425 80.62456947434976 l -13.326830110182213 -31.88236249867471 a55.55559924646885,55.55559924646885 0 0,0 0.8854931048798447,-0.36121487088824744 l 12.776053135713987 32.10703825574654" fill="#60ff29" stroke="none" /><path d="M 92.23578459929587 80.48803036053334 l -4.320677513441257 -10.858138796168188 a32.68620692491835,32.68620692491835 0 0,0 0.5245620002857926,-0.2035219065512503 l 4.1331323481557884 10.930903406609989" fill="#ff8d0d" stroke="none" /><path d="M 92.91201910852362 80.23233633223022 l -8.83509899876278 -24.640199818966195 a47.17629502883326,47.17629502883326 0 0,0 0.7667675464266935,-0.2675101410728373 l 8.4096494482728 24.788630813211242" fill="#bcff1f" stroke="none" /><path d="M 93.25333710446033 80.11325718540243 l -7.24807413157313 -21.364723328777295 a43.560717664382494,43.560717664382494 0 0,0 0.7121496499824298,-0.23478454290602183 l 6.879241659348291 21.48632159594255" fill="#e7ff1a" stroke="none" /><path d="M 93.59665428221793 80.00007090966166 l -9.955982878660322 -31.096080138992985 a53.65099990951045,53.65099990951045 0 0,0 0.8819576160694466,-0.2740285244624639 l 9.419239889880146 31.262848798337977" fill="#74ff27" stroke="none" /><path d="M 93.94186890950719 79.89281104454417 l -10.10407816711819 -33.53585551256443 a56.02493398376124,56.02493398376124 0 0,0 0.9257714354173657,-0.27025806832259963 l 9.525316513977403 33.70481190980573" fill="#5bff2a" stroke="none" /><path d="M 94.28887869178378 79.79150937346287 l -8.84469514370134 -31.296470388210455 a53.52226454208175,53.52226454208175 0 0,0 0.8887298390166771,-0.24292343696742363 l 8.30466741546094 31.444080366004172" fill="#76ff27" stroke="none" /><path d="M 94.63758080256005 79.69619591428918 l -8.407891812446895 -31.83492036864123 a53.926506034007616,53.926506034007616 0 0,0 0.8995226537136959,-0.22930835313898099 l 7.858660270048199 31.974931717949076" fill="#71ff27" stroke="none" /><path d="M 94.98787191387505 79.60689891045804 l -3.025113547737504 -12.308433728406497 a33.67473285017399,33.67473285017399 0 0,0 0.5640939697407544,-0.13350281749243254 l 2.8127958910342152 12.3586824580398" fill="#ff9a0e" stroke="none" /><path d="M 95.33964822691252 79.52364482259891 l -5.3514475790839695 -23.512847672863764 a45.11414516168837,45.11414516168837 0 0,0 0.7586851717830704,-0.16581919292504463 l 4.945919683147378 23.60148036388468" fill="#d4ff1c" stroke="none" /><path d="M 96.04723909329186 79.375362276772 l -2.060023125595375 -10.748747943436785 a31.94437196140209,31.94437196140209 0 0,0 0.5409321201323105,-0.09885188740308351 l 1.8746958843601715 10.782615312190604" fill="#ff830c" stroke="none" /><path d="M 96.40284397218896 79.31037775812273 l -2.0980692688464324 -12.067383308957945 a33.24841355368909,33.24841355368909 0 0,0 0.5647018122293772,-0.0931806375696838 l 1.8900382504781694 12.101710209467257" fill="#ff950d" stroke="none" /><path d="M 96.75951476605007 79.25152402106235 l -1.6175902179261037 -10.357254965637955 a31.482811098954436,31.482811098954436 0 0,0 0.5361538015376822,-0.07901513328729359 l 1.4390674359597728 10.383564583086217" fill="#ff7d0b" stroke="none" /><path d="M 97.83486435360386 79.11191278185805 l -2.2589681059213547 -21.793333317488074 a42.91009616571104,42.91009616571104 0 0,0 0.7353459716276666,-0.06982996053640066 l 1.883497007203452 21.828988822539653" fill="#eeff19" stroke="none" /><path d="M 98.19473922651362 79.07773832637324 l -0.36004230998888226 -4.172748632108505 a25.188252811345745,25.188252811345745 0 0,0 0.43229016314432256,-0.03355403658705368 l 0.2881619574822255 4.178327930884021" fill="#ff2403" stroke="none" /><path d="M 99.63851952072746 79.00311137660856 l -0.17937206095632133 -10.41897253657358 a31.420516448532013,31.420516448532013 0 0,0 0.5408525402288545,-0.0046552885669905565 l 2.552290422831415e-15 10.420516448532013" fill="#ff7c0b" stroke="none" /></svg>