<?xml version="1.0" encoding="utf-8" ?>
<svg baseProfile="full" height="200mm" version="1.1" viewBox="0,0,200,200" width="200mm" xmlns="http://www.w3.org/2000/svg" xmlns:ev="http://www.w3.org/2001/xml-events" xmlns:xlink="http://www.w3.org/1999/xlink"><defs /><rect fill="#1a1a1a" height="200" width="200" x="0" y="0" /><text alignment-baseline="middle" fill="#e1ed5e" style="dominant-baseline: central; font-size:9.0px; font-family:Arial;" text-anchor="middle" x="100.0" y="100.0">2022</text><line stroke="#e1ed5e" stroke-width="0.3" x1="100.0" x2="100.0" y1="15.0" y2="10.0" /><path d="M 100.0 14.0 a86.0,86.0 0 0,1 42.46469731375804,11.215312516191453" fill="none" id="id97" stroke="none" /><text fill="#e1ed5e" style="font-size:6.75px; font-family:Arial;" text-anchor="middle"><textPath startOffset="22.20632615414155" xlink:href="#id97">January</textPath></text><path d="M 100.0 79.0 l 0.0 -24.3433821955917 a45.3433821955917,45.3433821955917 0 0,0 0.7805117870428533,0.006718111367443272 l -0.4190313077703249 24.339775460832815" fill="#e0ff1b" stroke="none" /><path d="M 100.36148047927253 79.00311137660856 l 0.2305652254489882 -13.392569272128489 a34.39455381981597,34.39455381981597 0 0,0 0.5918702688018147,0.015286262855768598 l -0.4610621294456707 13.386616217130362" fill="#ff8e0d" stroke="none" /><path d="M 101.08401301168833 79.027996857942 l 0.6534947139262308 -12.64292314391484 a33.65980098437835,33.65980098437835 0 0,0 0.5783682677937856,0.03488875336854948 l -0.8710250305596284 12.629801121165988" fill="#ff840c" stroke="none" /><path d="M 103.2404852339499 79.25152402106235 l 2.527805834552458 -16.18526697426109 a37.38147335758613,37.38147335758613 0 0,0 0.6348990370547015,0.10476378113889524 l -2.806034077746035 16.139356930182572" fill="#ffb711" stroke="none" /><path d="M 105.01212808612495 79.60689891045804 l 1.876100480038051 -7.633385676927883 a28.86055531778301,28.86055531778301 0 0,0 0.48140933311588197,0.1227219580371748 l -2.007218701838958 7.599960722721841" fill="#ff3f05" stroke="none" /><path d="M 105.36241919743992 79.69619591428918 l 1.9090124638619355 -7.228121046921766 a28.475965653755615,28.475965653755615 0 0,0 0.4728394918979855,0.12924489475100479 l -2.033149844983632 7.194189611344467" fill="#ff3905" stroke="none" /><path d="M 110.36928655335952 81.73862282372117 l 9.302948507910518 -16.38344650620286 a39.84043976032527,39.84043976032527 0 0,0 0.5934390350975236,0.34375819296776716 l -9.58358427547337 16.22088415584504" fill="#ffd814" stroke="none" /><line stroke="#e1ed5e" stroke-width="0.3" x1="143.23703022742887" x2="145.7803849466894" y1="26.81831364943548" y2="22.513508569990506" /><path d="M 143.74570117128098 25.957352633546492 a86.0,86.0 0 0,1 28.547481713284135,27.462654790039103" fill="none" id="id98" stroke="none" /><text fill="#e1ed5e" style="font-size:6.75px; font-family:Arial;" text-anchor="middle"><textPath startOffset="19.985693538727396" xlink:href="#id98">February</textPath></text><path d="M 110.68208982089419 81.91981866633111 l 12.931819870968525 -21.88800620119494 a46.422761074256364,46.422761074256364 0 0,0 0.6844879914050013,0.41239635603310343 l -13.306669928591164 21.662163235703222" fill="#d3ff1c" stroke="none" /><path d="M 111.60114157652 82.49532879139004 l 6.83651999632503 -10.315453350639542 a33.37524074470362,33.37524074470362 0 0,0 0.47614597381736745,0.3214958869913145 l -7.0130706645489385 10.196245551349557" fill="#ff800b" stroke="none" /><path d="M 114.16331599549186 84.49514656593476 l 8.555857812354189 -9.366261504401807 a33.685801412368924,33.685801412368924 0 0,0 0.42474926866893836,0.39475815438020906 l -8.715814964817973 9.217598763946958" fill="#ff840c" stroke="none" /><path d="M 114.42810811169701 84.74124197986012 l 16.125928268492878 -17.054324475125153 a44.47116413438904,44.47116413438904 0 0,0 0.5516896872890854,0.5307250420689338 l -16.41710119939438 16.77421634629392" fill="#ebff1a" stroke="none" /><path d="M 114.68862486808459 84.99185889309783 l 18.236564740324656 -18.633258006516144 a47.072410656965545,47.072410656965545 0 0,0 0.5742031623874656,0.5717373515270098 l -18.554603702879444 18.316584804339016" fill="#cbff1d" stroke="none" /><path d="M 114.94478906791727 85.2469230424477 l 16.943696295458107 -16.726342155535267 a44.80880858121122,44.80880858121122 0 0,0 0.5371418295608406,0.5535718714622606 l -17.229102388722055 16.432206088522893" fill="#e7ff1a" stroke="none" /><path d="M 116.15771136456269 86.58626213691792 l 27.48730558578041 -22.81929063906564 a56.72494917611813,56.72494917611813 0 0,0 0.6172255439824791,0.7566455353526954 l -27.876029621839297 22.34276093410484" fill="#5dff2a" stroke="none" /><path d="M 116.38621287248628 86.86637796730983 l 43.44924994277592 -34.82476584387981 a76.6830462229831,76.6830462229831 0 0,0 0.8166595416854575,1.0370746848656158 l -44.04226356505534 34.07169876506116" fill="#44ffe3" stroke="none" /><path d="M 116.60985879189232 87.15038557335679 l 26.29939796977627 -20.34557474560974 a54.25057511234753,54.25057511234753 0 0,0 0.5650431444642534,0.7435305445020537 l -26.645717054464637 19.889859425226653" fill="#78ff26" stroke="none" /><path d="M 116.82858285166822 87.43820079747576 l 18.66592136415258 -13.933291838851927 a44.292772309009194,44.292772309009194 0 0,0 0.4508105446598294,0.6149050762849273 l -18.902994521326036 13.609924318895507" fill="#edff19" stroke="none" /><path d="M 117.04232023915458 87.72973835380427 l 18.74366724432025 -13.495210632683618 a44.09644500320993,44.09644500320993 0 0,0 0.4382081706515257,0.6198143806916232 l -18.97318803477566 13.170569751660201" fill="#f0ff19" stroke="none" /><path d="M 117.2510076193507 88.02491185347247 l 19.478480495271832 -13.521327335665326 a44.711547720950136,44.711547720950136 0 0,0 0.43343701038430243,0.6360153294210371 l -19.70834197132487 13.184033982973883" fill="#e8ff1a" stroke="none" /><path d="M 117.65298651832404 88.62581576622439 l 19.705805267136057 -12.696857800840306 a44.442034025251445,44.442034025251445 0 0,0 0.4088083114465165,0.6466365731800412 l -19.92144117482853 12.355773579946058" fill="#ecff1a" stroke="none" /><line stroke="#e1ed5e" stroke-width="0.3" x1="172.23445277983987" x2="176.4835382374775" y1="55.19839476539836" y2="52.563006222186495" /><path d="M 173.08426987136738 54.67131705675599 a86.0,86.0 0 0,1 12.851231095245387,41.99856678651699" fill="none" id="id99" stroke="none" /><text fill="#e1ed5e" style="font-size:6.75px; font-family:Arial;" text-anchor="middle"><textPath startOffset="22.20632615414155" xlink:href="#id99">March</textPath></text><path d="M 117.84615892207809 88.93136811851018 l 27.974062791100497 -17.35020990322537 a53.917745559597684,53.917745559597684 0 0,0 0.4823948848891193,0.7929303535630737 l -28.26857347427584 16.866111776455217" fill="#7cff26" stroke="none" /><path d="M 118.03404312379186 89.2402003453031 l 20.35249217683276 -12.143075005049761 a44.69975123047293,44.69975123047293 0 0,0 0.3885479590812341,0.6641544117412788 l -20.558499810384323 11.790941180954588" fill="#e8ff1a" stroke="none" /><path d="M 118.21658344932153 89.55222093294921 l 30.72106286708926 -17.619488222544874 a56.41511074256366,56.41511074256366 0 0,0 0.4758812277945871,0.8465396039922173 l -31.01980173617628 17.08806510861786" fill="#61ff29" stroke="none" /><path d="M 118.3937258080291 89.86733742301442 l 32.349102821749355 -17.820345208033775 a57.93276535416221,57.93276535416221 0 0,0 0.47364698100889413,0.8775959212998803 l -32.65105790197671 17.260868303401434" fill="#50ff2b" stroke="none" /><path d="M 118.56541770881063 90.18545643968196 l 11.890109707111831 -6.2856651806993185 a34.44932323988872,34.44932323988872 0 0,0 0.27262631221368966,0.5266272599845196 l -11.996545452485638 6.080065198454454" fill="#ff8f0d" stroke="none" /><path d="M 118.89224826269711 90.83032412892265 l 32.82886216837193 -15.934049834324375 a57.491480312433126,57.491480312433126 0 0,0 0.424456330778607,0.8940132824798854 l -33.09827669299229 15.366594136203949" fill="#55ff2b" stroke="none" /><path d="M 119.04729006885535 91.15688171328212 l 12.082009188038839 -5.609335291519526 a34.320645195805696,34.320645195805696 0 0,0 0.24416308917030513,0.5379810019428394 l -12.17677459417249 5.400532280734624" fill="#ff8d0d" stroke="none" /><path d="M 119.47837535516314 92.15188598940014 l 12.87641431567508 -5.188090164324269 a34.882302589343034,34.882302589343034 0 0,0 0.21960311415663866,0.5588659722719438 l -12.963810979713418 4.965675187156541" fill="#ff950d" stroke="none" /><path d="M 119.61058180528143 92.48833698450437 l 20.57193405945072 -7.879900645781647 a43.02946447678151,43.02946447678151 0 0,0 0.2589869937665475,0.6939563830621002 l -20.70452564171889 7.524621125690214" fill="#fdff18" stroke="none" /><path d="M 119.85752413597 93.16781622104841 l 37.04823577677578 -12.746823510306506 a60.179756045367,60.179756045367 0 0,0 0.3285892232531648,0.982439953901204 l -37.26216229380072 12.107210453482988" fill="#39ff2e" stroke="none" /><path d="M 119.97218684219823 93.5106431181261 l 35.3108351901968 -11.473185843728965 a58.12800930879521,58.12800930879521 0 0,0 0.3010048691334354,0.9542676921509861 l -35.50309554309844 10.86366798515156" fill="#4eff2b" stroke="none" /><path d="M 120.08093135843002 93.85539295169968 l 35.773130078309514 -10.94629642895857 a58.41040284613739,58.41040284613739 0 0,0 0.2859164266625126,0.9639680540365747 l -35.956252402083734 10.328898988175466" fill="#4bff2c" stroke="none" /><path d="M 120.18372546131832 94.20196356495316 l 35.34620082716896 -10.153653775620809 a57.77567943505243,57.77567943505243 0 0,0 0.2663547670871423,0.9582198135485179 l -35.515742364822465 9.543722658653339" fill="#52ff2b" stroke="none" /><path d="M 120.28053869075195 94.5502522615342 l 25.147199935798746 -6.757507681063729 a47.03930826021828,47.03930826021828 0 0,0 0.20339722553863762,0.7837724809504696 l -25.259793493207688 6.323638774564409" fill="#ccff1d" stroke="none" /><path d="M 120.37134235888165 94.90015583598534 l 11.943470910933014 -2.9899767698246213 a33.31204526000428,33.31204526000428 0 0,0 0.13446518067978125,0.5574449841902754 l -11.993168891873614 2.78394655397494" fill="#ff7f0b" stroke="none" /><path d="M 120.6074358757038 95.95851677861258 l 26.17575423378271 -5.1335290902309225 a47.67439278835866,47.67439278835866 0 0,0 0.15100132020736673,0.8066550905411681 l -26.260241277899933 4.682195922227192" fill="#c4ff1e" stroke="none" /><path d="M 120.67395015179393 96.31383870115 l 27.231969392551985 -4.855454856438371 a48.6614460731864,48.6614460731864 0 0,0 0.1399321020997038,0.825887187694576 l -27.31151335617191 4.385981880427957" fill="#b8ff1f" stroke="none" /><path d="M 120.73433829027371 96.67025291283417 l 25.449615923033427 -4.0869780025225495 a46.77569280975818,46.77569280975818 0 0,0 0.12082407929633796,0.7960797204134703 l -25.516195895769062 3.6482991697169975" fill="#cfff1d" stroke="none" /><path d="M 120.78858239683441 97.02765380044208 l 23.604742274122565 -3.3750000192757756 a44.84479991440189,44.84479991440189 0 0,0 0.10268178101596419,0.765098536338586 l -23.659340054196363 2.9681831408725254" fill="#e7ff1a" stroke="none" /><path d="M 120.83666639777658 97.38593545837742 l 43.84081970495319 -5.5000512115803435 a65.18447731649904,65.18447731649904 0 0,0 0.13008849685619242,1.1145187973576467 l -43.92899855481297 4.744588675897844" fill="#35ff61" stroke="none" /><path d="M 120.87857604477298 97.74499172005257 l 30.67663819638268 -3.3132562769343146 a51.85504493901134,51.85504493901134 0 0,0 0.08821005967136601,0.8882632629039776 l -30.729125381736274 2.784717483325902" fill="#93ff23" stroke="none" /><path d="M 120.91429891909075 98.10471618934814 l 39.61351457551178 -3.5898335941567945 a60.77583993152151,60.77583993152151 0 0,0 0.08544943072771122,1.042699490349312 l -39.66943849005899 2.9074201865997136" fill="#33ff2f" stroke="none" /><path d="M 120.94382443527127 98.46500227214037 l 39.89849456268648 -2.9242079777752132 a61.00551037877166,61.00551037877166 0 0,0 0.06774344988128338,1.047961185702822 l -39.94291860357218 2.236987727819356" fill="#31ff2f" stroke="none" /><path d="M 120.96714384426684 98.82574320788733 l 24.755264024837192 -1.386408999605159 a45.79405628076182,45.79405628076182 0 0,0 0.037303384157905864,0.787415481222112 l -24.775461017228597 0.960082411760047" fill="#dbff1b" stroke="none" /><path d="M 120.98425023603335 99.18683210126433 l 39.521321584600464 -1.5315043266602366 a60.55098437834368,60.55098437834368 0 0,0 0.031395124710612794,1.0418513456522907 l -39.54182840376672 0.8509828335829468" fill="#35ff2f" stroke="none" /><line stroke="#e1ed5e" stroke-width="0.3" x1="184.98032266829074" x2="189.97916517819016" y1="98.17113171792111" y2="98.06355123074" /><path d="M 185.9800911702706 98.14961562048488 a86.0,86.0 0 0,1 -9.607161424134198,41.387399972396054" fill="none" id="id100" stroke="none" /><text fill="#e1ed5e" style="font-size:6.75px; font-family:Arial;" text-anchor="middle"><textPath startOffset="21.466115282336823" xlink:href="#id100">April</textPath></text><path d="M 120.99513854157772 99.54816195383933 l 41.388995917034485 -0.8907358725292497 a62.39857960624866,62.39857960624866 0 0,0 0.01386732032795343,1.074039241723178 l -41.398196244480154 0.17816037274560892" fill="#31ff3f" stroke="none" /><path d="M 120.99980553446 99.90962569577887 l 40.94247074071155 -0.17619912242587016 a61.94284988230259,61.94284988230259 0 0,0 -0.004588793307514576,1.066273958357352 l -40.939437650114535 -0.5285843141351665" fill="#30ff39" stroke="none" /><path d="M 120.99824983174949 100.27111621757518 l 12.361210244952044 0.15960018540191867 a33.36224053070833,33.36224053070833 0 0,0 -0.012356638835026332,0.5741644521837045 l -12.35663154343201 -0.37235445337573797" fill="#ff800b" stroke="none" /><path d="M 120.9904718944345 100.63252640178507 l 20.03687362047091 0.6037906931258203 a41.045968863685,41.045968863685 0 0,0 -0.027359810435595846,0.7060351367579847 l -20.02351167718411 -0.9486030768978113" fill="#ffe715" stroke="none" /><path d="M 120.92983693683757 101.71520430193887 l 40.57835240441936 3.325404054493697 a61.714383158570506,61.714383158570506 0 0,0 -0.09587888885998215,1.0580155491109542 l -40.5150989192823 -4.0234009921532214" fill="#30ff37" stroke="none" /><path d="M 120.89721153311464 102.0752229133903 l 40.42957373833414 4.014907810424443 a61.62843729937942,61.62843729937942 0 0,0 -0.11391781419279232,1.0547374781852132 l -40.3544736226403 -4.710241610494447" fill="#30ff35" stroke="none" /><path d="M 120.8583938346157 102.4346265915055 l 21.19810553145748 2.474278308561684 a42.342017975604534,42.342017975604534 0 0,0 -0.09072985258785862,0.7232061950234917 l -21.152374169622775 -2.8388022578725707" fill="#fff817" stroke="none" /><path d="M 120.81339534386255 102.79330883721812 l 15.481796072294287 2.0777694878841824 a36.620599721806116,36.620599721806116 0 0,0 -0.08922513033844737,0.6240403537733943 l -15.443736890939238 -2.343955313637986" fill="#ffad10" stroke="none" /><path d="M 120.76222939487914 103.15116336523771 l 38.22750041755857 5.801934684823897 a59.6652846137385,59.6652846137385 0 0,0 -0.16285283045685245,1.0140847307099863 l -38.12196583274043 -6.459098645227089" fill="#3eff2d" stroke="none" /><path d="M 120.70491114924044 103.5080841355445 l 41.256565699416036 6.990201627717695 a62.844559169698265,62.844559169698265 0 0,0 -0.18989099328298645,1.0650095346158284 l -41.130128263793864 -7.699329913066742" fill="#32ff45" stroke="none" /><path d="M 120.64145759157962 103.86396538481128 l 38.23112070187538 7.156651915650091 a59.89519580569228,59.89519580569228 0 0,0 -0.19842441841132064,1.011761834602235 l -38.1022663504884 -7.813677477320271" fill="#3cff2e" stroke="none" /><path d="M 120.5718875245553 104.21870165774334 l 27.18691345418339 5.575252962140014 a48.75268831585706,48.75268831585706 0 0,0 -0.17566281077080648,0.8206381707602988 l -27.08691660468814 -6.042404952316481" fill="#b7ff1f" stroke="none" /><path d="M 120.49622156327973 104.57218783832717 l 37.43003333522997 8.349692292072108 a59.35002942435266,59.35002942435266 0 0,0 -0.2310113246262678,0.99519074036188 l -37.280761444673146 -8.992751689782553" fill="#42ff2d" stroke="none" /><path d="M 120.41448212921028 104.9243191809786 l 15.496800264920662 3.738090944719699 a36.94127166702332,36.94127166702332 0 0,0 -0.15442979466271828,0.6168702643277538 l -15.430159155962883 -4.004289048444849" fill="#ffb110" stroke="none" /><path d="M 120.32669344350535 105.2749913415812 l 33.41812704502745 8.672356441263911 a55.525077573293395,55.525077573293395 0 0,0 -0.24804353992489034,0.9230622865222738 l -33.263895428760776 -9.246309660961733" fill="#6aff28" stroke="none" /><path d="M 120.23288151984713 105.62410040840565 l 25.23087210438856 7.013383534496909 a47.18748662529425,47.18748662529425 0 0,0 -0.2242694577163367,0.7807114036993337 l -25.106410009786124 -7.446652413700825" fill="#caff1d" stroke="none" /><path d="M 120.13307415673323 105.97154293290107 l 43.74043612684284 12.973572252397693 a66.62388989942222,66.62388989942222 0 0,0 -0.33557256489799786,1.096670558185319 l -43.510636789438706 -13.72456978313507" fill="#36ff73" stroke="none" /><path d="M 120.02730092923936 106.31721596034902 l 38.27440923629109 12.072905368262779 a61.133345816392044,61.133345816392044 0 0,0 -0.3251937356664043,1.0008434066530207 l -38.060923249608436 -12.729947674893594" fill="#2fff2f" stroke="none" /><path d="M 119.9155931802556 106.66101706037122 l 25.338636418152092 8.474821108275345 a47.71832869676868,47.71832869676868 0 0,0 -0.2672434755621309,0.7767346338815574 l -25.18900211164673 -8.909728445246202" fill="#c4ff1e" stroke="none" /><path d="M 119.79798401119884 107.00284435728193 l 37.82140628106188 13.377999568541084 a61.117697410656966,61.117697410656966 0 0,0 -0.35935965968760997,0.98880344462778 l -37.58552236036905 -14.027050810174995" fill="#30ff2f" stroke="none" /><path d="M 119.67450827220406 107.3425965602758 l 21.521230119175073 8.03179973088375 a43.97113738497754,43.97113738497754 0 0,0 -0.27074855222178135,0.7068390343195485 l -21.379787287359786 -8.40106233203644" fill="#f1ff19" stroke="none" /><path d="M 119.54520255179757 107.68017299344265 l 36.35865667289906 14.286921423148465 a60.06492082174193,60.06492082174193 0 0,0 -0.38641017989781185,0.9590383772381629 l -36.107343878743855 -14.91065916822944" fill="#3aff2e" stroke="none" /><path d="M 119.41010516605496 108.01547362559984 l 37.30616012078156 15.40571470181813 a61.36193291247593,61.36193291247593 0 0,0 -0.4115603829936,0.9728071724251002 l -37.03544875659565 -16.045596399909392" fill="#30ff32" stroke="none" /><path d="M 119.26925614724726 108.34839909993367 l 24.295949788223965 10.526212521857957 a47.478185854911196,47.478185854911196 0 0,0 -0.3313500675153718,0.7471069283840357 l -24.111158635977322 -10.94286778673468" fill="#c6ff1e" stroke="none" /><path d="M 119.12269723197855 108.67885076344098 l 36.22247546318952 16.439598191290205 a60.77848812326128,60.77848812326128 0 0,0 -0.44057279249805753,0.9489545998452049 l -35.93412805385163 -17.06067285841424" fill="#33ff2f" stroke="none" /><path d="M 118.97047184881838 109.00673069616215 l 36.67322746129343 17.4115797506398 a61.596658998502036,61.596658998502036 0 0,0 -0.4629920012536905,0.9539006562835123 l -36.368082203425026 -18.040269362888587" fill="#30ff35" stroke="none" /><path d="M 118.81262510543309 109.33194174019688 l 14.190560209340358 7.039181421633482 a36.840520008559814,36.840520008559814 0 0,0 -0.2866917516935436,0.565670024544892 l -14.067289787860545 -7.2824056578810685" fill="#ffb010" stroke="none" /><path d="M 118.64920377521936 109.65438752849418 l 23.888502053124583 12.366686485701235 a47.89972983094371,47.89972983094371 0 0,0 -0.38535901007824797,0.7289540207333518 l -23.672090534821443 -12.776055521520721" fill="#c1ff1e" stroke="none" /><line stroke="#e1ed5e" stroke-width="0.3" x1="174.80103733775053" x2="179.2010983576182" y1="140.37084112569926" y2="142.7455964860345" /><path d="M 175.68104954172406 140.8457921977663 a86.0,86.0 0 0,1 -30.038265399797805,32.042727171017184" fill="none" id="id101" stroke="none" /><text fill="#e1ed5e" style="font-size:6.75px; font-family:Arial;" text-anchor="middle"><textPath startOffset="22.206326154141568" xlink:href="#id101">May</textPath></text><path d="M 118.30583269289576 110.29060199501025 l 15.793754348322912 8.87844015250003 a39.11820564947571,39.11820564947571 0 0,0 -0.33501577143613887,0.5841282360623201 l -15.638586580734394 -9.148988234420665" fill="#ffce13" stroke="none" /><path d="M 118.12598468904814 110.60418214915192 l 10.513691739710035 6.150788725717165 a33.18071902418147,33.18071902418147 0 0,0 -0.29265255816009833,0.4905025208200193 l -10.40625830585171 -6.330853340423288" fill="#ff7d0b" stroke="none" /><path d="M 117.75023020441432 111.22182372390056 l 33.9177889781188 21.44307113956468 a61.127567943505234,61.127567943505234 0 0,0 -0.5699276436632021,0.8845403593983358 l -33.54365647107855 -22.02373309888447" fill="#2fff2f" stroke="none" /><path d="M 117.55443506779139 111.5257021239791 l 33.76432120983425 22.168614779117537 a61.39154451102076,61.39154451102076 0 0,0 -0.5875957047978413,0.8783758526406122 l -33.37772239962569 -22.746527545963957" fill="#30ff33" stroke="none" /><path d="M 117.35343817320211 111.8261652097733 l 34.25892888660483 23.347059463323838 a62.45792317569014,62.45792317569014 0 0,0 -0.6130961725701788,0.8832107634606211 l -33.85197180687251 -23.93331148897148" fill="#31ff40" stroke="none" /><path d="M 116.93607887273984 112.41649034213515 l 34.0743386265229 24.981207258774386 a63.250695484699335,63.250695484699335 0 0,0 -0.6512976320126593,0.872519611618844 l -33.63927972781515 -25.564039749902545" fill="#32ff4a" stroke="none" /><path d="M 116.71984013943494 112.70617746262583 l 33.458432659876735 25.42660572423854 a63.023552856837156,63.023552856837156 0 0,0 -0.6638276307918622,0.8580866976636345 l -33.0157982118668 -25.99877041601543" fill="#32ff47" stroke="none" /><path d="M 116.498646956653 112.99209946851258 l 32.67298007413485 25.728813288214244 a62.587203081532216,62.587203081532216 0 0,0 -0.6738021691104611,0.8406718077850381 l -32.225259992969534 -26.287412929577535" fill="#31ff42" stroke="none" /><path d="M 116.27256486870786 113.27417163493432 l 33.91035917740715 27.662014658105715 a64.76184998930023,64.76184998930023 0 0,0 -0.7120842960392242,0.8577514068100259 l -33.429178881474385 -28.24162732202951" fill="#34ff5c" stroke="none" /><path d="M 116.0416608686014 113.55231037782055 l 32.04366017617598 27.071113889394084 a62.94807939225337,62.94807939225337 0 0,0 -0.7063898293770384,0.8216909583435683 l -31.572927837228164 -27.61868194689918" fill="#32ff46" stroke="none" /><path d="M 115.56566222782051 114.09645910891815 l 21.43832591352194 19.414817062103037 a49.92294832013696,49.92294832013696 0 0,0 -0.5823240721172136,0.631997769882201 l -21.100955433409002 -19.780966086786574" fill="#a9ff21" stroke="none" /><path d="M 115.07121518719521 114.62390073753431 l 31.367217134878036 30.436236500880952 a64.70659907982025,64.70659907982025 0 0,0 -0.782516545575867,0.7926851293078921 l -30.838659964246634 -30.97166212416951" fill="#34ff5c" stroke="none" /><path d="M 114.81725581225074 114.88116024355365 l 27.311232636315676 27.429021571859487 a59.707294564519586,59.707294564519586 0 0,0 -0.7345420187741009,0.7189039659719264 l -26.83504066516578 -27.895075640753983" fill="#3eff2d" stroke="none" /><path d="M 114.55890576462653 115.13401014063108 l 27.933935175662636 29.037378567513112 a61.29235769313075,61.29235769313075 0 0,0 -0.766633618651731,0.7248999372930158 l -27.4299657226201 -29.513913141552052" fill="#30ff31" stroke="none" /><path d="M 114.29624159901734 115.38237550388516 l 28.28228915092812 30.430990468077777 a62.54435052428846,62.54435052428846 0 0,0 -0.7949102539635702,0.7261316698555128 l -27.754279347497686 -30.913314904519872" fill="#31ff41" stroke="none" /><path d="M 114.0293411484842 115.62618273729858 l 18.384077848216897 20.47658239061343 a48.51844371923818,48.51844371923818 0 0,0 -0.6262521521509927,0.5525947111840673 l -18.02888334315932 -20.790000243569786" fill="#baff1f" stroke="none" /><path d="M 113.48314897796784 116.09983520530334 l 25.95143451008018 30.987851549830253 a61.41935052428846,61.41935052428846 0 0,0 -0.8163797817482474,0.6718249815262372 l -25.41418459978724 -31.42997165021367" fill="#30ff33" stroke="none" /><path d="M 113.20401910651253 116.32954008644616 l 25.49592511120752 31.53106094334153 a61.54935266424138,61.54935266424138 0 0,0 -0.8295753857005175,0.6590648585298158 l -24.949392232789652 -31.96525971587647" fill="#30ff34" stroke="none" /><path d="M 112.92097659922987 116.55440617244103 l 24.411915196124177 31.27664201697509 a60.67581050716885,60.67581050716885 0 0,0 -0.8288641385656839,0.6355376768721215 l -23.869922329064998 -31.69221903567458" fill="#34ff2f" stroke="none" /><path d="M 112.63410532772338 116.77436683061366 l 23.85145550869931 31.667700542993554 a60.64511555745773,60.64511555745773 0 0,0 -0.8392562881761984,0.6208617382085937 l -23.302814250104547 -32.07357222994192" fill="#34ff2f" stroke="none" /><path d="M 112.34349029814194 116.9893568818739 l 14.85369212222775 20.444353289279366 a46.27061042157072,46.27061042157072 0 0,0 -0.648389341467565,0.46260857933235433 l -14.499575452911301 -20.69700613045594" fill="#d5ff1c" stroke="none" /><path d="M 111.7513745106137 117.40417183066458 l 17.13022122456815 25.370420576793574 a51.61213353306228,51.61213353306228 0 0,0 -0.7405734135963424,0.4908116762976981 l -16.69097311223184 -25.661530274182592" fill="#96ff23" stroke="none" /><path d="M 111.1453310114006 117.79835938074945 l 22.231802436355682 35.502723879562424 a62.88909693986733,62.88909693986733 0 0,0 -0.9224357121405967,0.5666353548462405 l -21.617387524282776 -35.88014770123704" fill="#32ff45" stroke="none" /><line stroke="#e1ed5e" stroke-width="0.3" x1="143.8653032363475" x2="146.44561519142675" y1="172.8068346515853" y2="177.08958963109032" /><path d="M 144.38136562736335 173.6633856474863 a86.0,86.0 0 0,1 -40.68145358897372,12.25698825130547" fill="none" id="id102" stroke="none" /><text fill="#e1ed5e" style="font-size:6.75px; font-family:Arial;" text-anchor="middle"><textPath startOffset="21.466115282336833" xlink:href="#id102">June</textPath></text><path d="M 110.8373102113329 117.98757091392108 l 22.6679549383067 37.62386043909414 a64.92483415364862,64.92483415364862 0 0,0 -0.9622235407985367,0.5684986284649733 l -22.01696352647978 -38.00847763985286" fill="#34ff5e" stroke="none" /><path d="M 110.5260780823613 118.17145234162733 l 13.54288098970186 23.379440523539454 a48.018657714530285,48.018657714530285 0 0,0 -0.7187963934929272,0.4081513516588094 l -13.138435829287733 -23.609095040992894" fill="#c0ff1e" stroke="none" /><path d="M 110.21172684928248 118.3499491758327 l 8.260112755209626 14.842998787750966 a37.98658517012626,37.98658517012626 0 0,0 -0.5740988375241315,0.3130444605435247 l -8.003391105816846 -14.982983900054263" fill="#ffbf11" stroke="none" /><path d="M 109.89434966115114 118.52300852407294 l 13.63588599227268 25.52746174514797 a49.94112454526001,49.94112454526001 0 0,0 -0.7617426919001957,0.39850777421921363 l -13.194452397845989 -25.7583989383119" fill="#a9ff21" stroke="none" /><path d="M 109.57404056367764 118.69057910512821 l 6.049373525430933 11.809673633772814 a34.268885084528144,34.268885084528144 0 0,0 -0.5273264906254193,0.26441244951795756 l -5.845193127122753 -11.912053924200073" fill="#ff8c0c" stroke="none" /><path d="M 109.2508944713604 118.85261126421891 l 10.911112012680476 22.23600689341389 a45.76877808688209,45.76877808688209 0 0,0 -0.7102602371249246,0.34096807626349285 l -10.526739107555318 -22.420529246176944" fill="#dbff1b" stroke="none" /><path d="M 108.92500713936063 119.00905698771935 l 16.22193579094922 34.55052719693045 a59.16923015193666,59.16923015193666 0 0,0 -0.925665989081647,0.4249278545376662 l -15.624801806100155 -34.8246421218022" fill="#44ff2d" stroke="none" /><path d="M 108.59647513512805 119.15986991738527 l 17.140061620537516 38.20186132843098 a62.87080034239247,62.87080034239247 0 0,0 -0.9912010552898267,0.43451341392515674 l -16.479939890589936 -38.49123929565059" fill="#32ff45" stroke="none" /><path d="M 108.2653958097858 119.30500536409082 l 10.106496870783323 23.605158275861847 a46.677709715386264,46.677709715386264 0 0,0 -0.7413499235892362,0.3098843281855598 l -9.698675487696626 -23.775627647067378" fill="#d0ff1d" stroke="none" /><path d="M 107.93186726928326 119.44442032107085 l 13.76611864316011 33.74668132987079 a57.44646105285683,57.44646105285683 0 0,0 -0.9188121677922091,0.36561432368657987 l -13.183185399326035 -33.978642497963435" fill="#56ff2b" stroke="none" /><path d="M 107.59598834532513 119.57807347666477 l 9.592631883896 24.724268037232566 a47.51995506098866,47.51995506098866 0 0,0 -0.7651386625835123,0.2893099718762696 l -9.165623000552213 -24.885726259215463" fill="#c6ff1e" stroke="none" /><path d="M 106.91757812671514 119.82793768551818 l 5.633551194157813 16.147515789457376 a38.10202225551038,38.10202225551038 0 0,0 -0.6211178787790756,0.21071690751886743 l -5.35476358244151 -16.242095683874368" fill="#ffc111" stroke="none" /><path d="M 106.57524785965236 119.94407469862006 l 6.275667136689772 19.035384951166428 a41.04320029959341,41.04320029959341 0 0,0 -0.6728713234431968,0.21543214919046 l -5.947074468155635 -19.140589947016593" fill="#ffe715" stroke="none" /><path d="M 106.2309692047433 120.05430185196036 l 8.286688065603252 26.670609075412898 a48.9283115771453,48.9283115771453 0 0,0 -0.8064434807254778,0.24297480538584057 l -7.8263696104375295 -26.809299249904466" fill="#b5ff1f" stroke="none" /><path d="M 105.88484417918355 120.15858648285463 l 7.51347134261799 25.737463428917497 a47.811737641771884,47.811737641771884 0 0,0 -0.7920101583015351,0.22382998191165449 l -7.0693300162118495 -25.86298220416767" fill="#c2ff1e" stroke="none" /><path d="M 105.53697534728816 120.25689768951611 l 4.9783647646716265 18.213233647217976 a39.88136635994008,39.88136635994008 0 0,0 -0.6637580331683381,0.17530452936264312 l -4.664116288691791 -18.2962295258842" fill="#ffd814" stroke="none" /><path d="M 105.18746579009965 120.34920634021253 l 6.277190818172221 24.623940930783494 a46.4114460731864,46.4114460731864 0 0,0 -0.7758374140147466,0.19068196033432278 l -5.852400119414264 -24.728344149431848" fill="#d3ff1c" stroke="none" /><path d="M 104.48393922423573 120.51570834832081 l 3.2184319892277573 14.725536794303222 a36.07314626578216,36.07314626578216 0 0,0 -0.6077612934257464,0.12736228818973577 l -2.9644792343726327 -14.7787550632195" fill="#ffa50f" stroke="none" /><path d="M 104.13013068566511 120.58985236759428 l 2.8465354745747997 14.190772554495247 a35.4734512090734,35.4734512090734 0 0,0 -0.5997249524824566,0.11493871450067976 l -2.6018429075206386 -14.237668467344395" fill="#ff9d0e" stroke="none" /><path d="M 103.7750983002368 120.6578951692458 l 4.793974376897282 26.233335464610867 a47.6677723090092,47.6677723090092 0 0,0 -0.8084250540709411,0.14055505810051758 l -4.341700351354291 -26.31196910123239" fill="#c4ff1e" stroke="none" /><path d="M 103.41894727170886 120.7198165907248 l 2.358123532471017 14.290915655639921 a35.48416434838433,35.48416434838433 0 0,0 -0.6035081388125779,0.09425555951077913 l -2.111779530049922 -14.329389522497806" fill="#ff9d0e" stroke="none" /><path d="M 103.06178313531738 120.77559828337769 l 2.110270213518573 14.319148119840618 a35.47381232612883,35.47381232612883 0 0,0 -0.604864664551949,0.08382873096752447 l -1.8634769577797934 -14.353351416300745" fill="#ff9d0e" stroke="none" /><path d="M 102.70371172650421 120.8252237178851 l 3.4724658404801465 26.746519339254114 a47.97099026321421,47.97099026321421 0 0,0 -0.8197844235493728,0.09926447706711011 l -3.011553993879393 -26.802329345046576" fill="#c0ff1e" stroke="none" /><path d="M 101.98527174616119 120.90594882070398 l 1.2642861514680908 13.313593783029981 a34.37348865824952,34.37348865824952 0 0,0 -0.5895146313959636,0.05086580294504698 l -1.0349272023305855 -13.333383838253692" fill="#ff8e0d" stroke="none" /><path d="M 101.62511606390274 120.93702456842531 l 1.035728308885886 13.343704816553526 a34.38384068050503,34.38384068050503 0 0,0 -0.5904806369921162,0.04072300188630763 l -0.8058849111148394 -13.35955616295612" fill="#ff8e0d" stroke="none" /><path d="M 101.26447882468166 120.96189622390904 l 0.6781096757182237 11.241362348960296 a32.26179649047721,32.26179649047721 0 0,0 -0.5546139746418287,0.02866720746242007 l -0.48450763266291536 -11.251369363184917" fill="#ff700a" stroke="none" /><line stroke="#e1ed5e" stroke-width="0.3" x1="102.19456741930631" x2="102.32365962044197" y1="184.97166512339345" y2="189.96999836594603" /><path d="M 102.22038585953345 185.97133177190398 a86.0,86.0 0 0,1 -42.740103519485714,-10.115201625700543" fill="none" id="id103" stroke="none" /><text fill="#e1ed5e" style="font-size:6.75px; font-family:Arial;" text-anchor="middle"><textPath startOffset="22.20632615414155" xlink:href="#id103">July</textPath></text><path d="M 100.54218724476979 120.99299961872073 l 0.3268967167453849 12.65714513979514 a33.66136582495185,33.66136582495185 0 0,0 -0.579360690590807,0.00997421969810864 l -0.10897633626190999 -12.660896836772409" fill="#ff840c" stroke="none" /><path d="M 100.18074693466247 120.99922214144158 l 0.2187359221336883 25.412791800735956 a46.413733147870744,46.413733147870744 0 0,0 -0.7989657135922701,0.0 l 0.21873592213367082 -25.412791800735956" fill="#d3ff1c" stroke="none" /><path d="M 98.73552117531835 120.96189622390904 l -0.6609173869689523 10.956357202508535 a31.976273271988017,31.976273271988017 0 0,0 -0.5491349958756309,-0.037871564403524044 l 0.8494151436235131 -10.943357293588726" fill="#ff6c0a" stroke="none" /><path d="M 98.37488393609728 120.93702456842531 l -0.8536908169826164 10.998442514979699 a32.03152418146801,32.03152418146801 0 0,0 -0.5493493069216626,-0.047400169742532965 l 1.0428844416458207 -10.982118092958501" fill="#ff6d0a" stroke="none" /><path d="M 95.86986931433489 120.58985236759428 l -2.4144380229830564 12.036646350313184 a33.27641504386904,33.27641504386904 0 0,0 -0.5606418940733559,-0.1174879599221067 l 2.621271378485799 -11.993302409664535" fill="#ff7e0b" stroke="none" /><path d="M 94.81253420990036 120.34920634021253 l -6.887256443738571 27.017084673420573 a48.88112561523647,48.88112561523647 0 0,0 -0.813543836602727,-0.21486432143164816 l 7.351290723152787 -26.894529002685342" fill="#b6ff1f" stroke="none" /><path d="M 93.76903079525671 120.05430185196036 l -3.6092109556815206 11.616203446735142 a33.16398726728012,33.16398726728012 0 0,0 -0.5436977584666848,-0.17407485285171545 l 3.808630059239146 -11.55235574722372" fill="#ff7d0b" stroke="none" /><path d="M 93.42475214034765 119.94407469862007 l -3.8163940820014908 11.57590561990368 a33.18878397175262,33.18878397175262 0 0,0 -0.5410250133589902,-0.18354505899822848 l 4.015088828297706 -11.508497574007327" fill="#ff7d0b" stroke="none" /><path d="M 93.08242187328487 119.8279376855182 l -5.961272277378857 17.086866686159613 a39.096899743205654,39.096899743205654 0 0,0 -0.6335195344111213,-0.22715756549441735 l 6.254511372419706 -16.981721579625237" fill="#ffce13" stroke="none" /><path d="M 92.7421414339146 119.70592522655815 l -9.208556436782757 25.002295502935898 a47.64417932805478,47.64417932805478 0 0,0 -0.7671388494406026,-0.2900662713964369 l 9.637565506983643 -24.84008098143283" fill="#c4ff1e" stroke="none" /><path d="M 91.7346041902142 119.30500536409082 l -5.229042230782792 12.21317050476925 a34.28549646907768,34.28549646907768 0 0,0 -0.5405342400003125,-0.23695432597909857 l 5.438497145440848 -12.121351625495699" fill="#ff8d0c" stroke="none" /><path d="M 91.40352486487194 119.15986991738527 l -5.945341230228424 13.251008441839355 a35.52364647977745,35.52364647977745 0 0,0 -0.5557454655071876,-0.25511548562056585 l 6.172554691503031 -13.146705885884714" fill="#ff9e0e" stroke="none" /><path d="M 91.07499286063937 119.00905698771935 l -6.2069842209701225 13.22003612276643 a35.604657072544406,35.604657072544406 0 0,0 -0.5525288904827528,-0.2652474445571039 l 6.433625779453117 -13.111234401709764" fill="#ff9f0e" stroke="none" /><path d="M 90.7491055286396 118.85261126421891 l -6.44067827497082 13.12560684502857 a35.6206665953349,35.6206665953349 0 0,0 -0.5481275817151287,-0.2748425484139054 l 6.6656597643687086 -13.012796455705361" fill="#ff9f0e" stroke="none" /><path d="M 90.42595943632237 118.69057910512821 l -11.583162971180606 22.61281664314168 a46.406871923817675,46.406871923817675 0 0,0 -0.7078353934517405,-0.3703060234872494 l 11.970689267158843 -22.410081200709712" fill="#d3ff1c" stroke="none" /><line stroke="#e1ed5e" stroke-width="0.3" x1="58.666819895761336" x2="56.23545636021788" y1="174.27360380694188" y2="178.64263932499728" /><path d="M 58.180547188652646 175.14741091055294 a86.0,86.0 0 0,1 -31.652253787137756,-30.449443065178592" fill="none" id="id104" stroke="none" /><text fill="#e1ed5e" style="font-size:6.75px; font-family:Arial;" text-anchor="middle"><textPath startOffset="22.20632615414155" xlink:href="#id104">August</textPath></text><path d="M 89.4739219176387 118.17145234162733 l -7.547447533325882 13.029362130857189 a36.05749786004708,36.05749786004708 0 0,0 -0.5343929440177146,-0.3157287707628823 l 7.7706083483719794 -12.897514787800556" fill="#ffa50f" stroke="none" /><path d="M 89.1626897886671 117.98757091392108 l -7.810178561400198 12.963192709632095 a36.13417504814894,36.13417504814894 0 0,0 -0.5300036908627068,-0.3255715552739059 l 8.032161452195213 -12.82683268752981" fill="#ffa60f" stroke="none" /><path d="M 88.8546689885994 117.79835938074946 l -8.96699393604903 14.319698578314869 a37.89558367215921,37.89558367215921 0 0,0 -0.5498797127123993,-0.3509592493112002 l 9.212155450808353 -14.163224900179864" fill="#ffbe11" stroke="none" /><path d="M 87.65650970185807 116.9893568818739 l -2.1465073407934065 2.954413896026702 a24.651856409159,24.651856409159 0 0,0 -0.3411523799802404,-0.2523763749078573 l 2.1970446911922115 -2.917027572379078" fill="#ff0000" stroke="none" /><path d="M 87.36589467227662 116.77436683061367 l -7.493835704393131 9.94960432995631 a33.45601059276696,33.45601059276696 0 0,0 -0.45702706182297304,-0.35042886237217186 l 7.663991494709591 -9.819136125756772" fill="#ff810b" stroke="none" /><path d="M 85.97065885151581 115.62618273729859 l -7.62918603889657 8.497551946231317 a32.419845388401455,32.419845388401455 0 0,0 -0.41204149239901255,-0.3763901338970053 l 7.774327080762437 -8.364969045747737" fill="#ff720a" stroke="none" /><path d="M 85.44109423537348 115.13401014063109 l -10.877870637056162 11.307567147640253 a36.69041568585491,36.69041568585491 0 0,0 -0.45137955427583437,-0.44176989666174044 l 11.07090014370779 -11.118647148055944" fill="#ffae10" stroke="none" /><path d="M 85.18274418774928 114.88116024355367 l -11.06274659888738 11.110458438313534 a36.67885994008132,36.67885994008132 0 0,0 -0.44356858781231867,-0.4493326375970337 l 11.252355811755232 -10.918385306735836" fill="#ffad10" stroke="none" /><path d="M 84.9287848128048 114.62390073753433 l -11.270670164838018 10.93615608886775 a36.70437887866467,36.70437887866467 0 0,0 -0.43607152694911433,-0.4572192526151558 l 11.45724824316609 -10.740529719670095" fill="#ffae10" stroke="none" /><path d="M 84.67929136418377 114.36230785411682 l -10.984696579528512 10.297538952632616 a36.056655253584424,36.056655253584424 0 0,0 -0.42058129619167495,-0.45645793120123535 l 11.160324283715916 -10.106929766630037" fill="#ffa50f" stroke="none" /><path d="M 84.43433777217949 114.09645910891817 l -15.031605265665243 13.612810419985465 a41.279491226193024,41.279491226193024 0 0,0 -0.47243620986831225,-0.5307870900489279 l 15.263700325181894 -13.352049160195673" fill="#ffea16" stroke="none" /><path d="M 83.06392112726016 112.41649034213515 l -10.20803113844662 7.483899962626508 a33.65751390969399,33.65751390969399 0 0,0 -0.3385308131488783,-0.4701896907221472 l 10.335341743971105 -7.307076666453224" fill="#ff840c" stroke="none" /><path d="M 82.85270091963577 112.12312394758628 l -15.556432473096706 10.998382787267605 a40.051693237748765,40.051693237748765 0 0,0 -0.39315331955476324,-0.5663666795788017 l 15.743446699813603 -10.72897484550179" fill="#ffda14" stroke="none" /><path d="M 82.6465618267979 111.8261652097733 l -16.958475172378247 11.557002542821012 a41.52204151508667,41.52204151508667 0 0,0 -0.39741911435900723,-0.5940876534331883 l 17.154897392147987 -11.263377975182003" fill="#ffed16" stroke="none" /><path d="M 82.44556493220864 111.52570212397912 l -15.40547780801371 10.114762885108131 a39.42924780654826,39.42924780654826 0 0,0 -0.3676216648201638,-0.5705569876073633 l 15.57730433621092 -9.848084297579321" fill="#ffd213" stroke="none" /><path d="M 82.24976979558568 111.22182372390057 l -15.584426459393729 9.852586955290064 a39.43767387117484,39.43767387117484 0 0,0 -0.3578224477000923,-0.5769237188402463 l 15.751713546761778 -9.582866905084554" fill="#ffd213" stroke="none" /><path d="M 82.05923443525364 110.91462005526583 l -13.501130862126976 8.213680355207451 a36.80332495185106,36.80332495185106 0 0,0 -0.3246037913797746,-0.5440546255276992 l 13.640515529204983 -7.980063635793641" fill="#ffaf10" stroke="none" /><line stroke="#e1ed5e" stroke-width="0.3" x1="26.63291911575756" x2="22.317208475507996" y1="142.92168965132927" y2="145.44649492493687" /><path d="M 25.769776987707644 143.4266507060508 a86.0,86.0 0 0,1 -11.730757126820373,-40.83630448921669" fill="none" id="id105" stroke="none" /><text fill="#e1ed5e" style="font-size:6.75px; font-family:Arial;" text-anchor="middle"><textPath startOffset="21.46611528233685" xlink:href="#id105">September</textPath></text><path d="M 81.87401531095188 110.60418214915194 l -10.937597407134499 6.398784792609079 a33.67183821955917,33.67183821955917 0 0,0 -0.2883720423651338,-0.5028009628154055 l 11.046121445652009 -6.209563983935366" fill="#ff840c" stroke="none" /><path d="M 81.69416730710424 110.29060199501025 l -9.84562487049713 5.534706267351617 a32.294658142520866,32.294658142520866 0 0,0 -0.2682357251787765,-0.48692575553266293 l 9.939437005127422 -5.364409993421132" fill="#ff710a" stroke="none" /><path d="M 81.35079622478065 109.6543875284942 l -26.865705675436086 13.907936067585553 a51.25222020115558,51.25222020115558 0 0,0 -0.39884314293714374,-0.7869553592737707 l 27.1011274881595 -13.443426496609097" fill="#9aff23" stroke="none" /><path d="M 81.18737489456691 109.33194174019688 l -37.85155842458596 18.77614293668576 a63.25262144232827,63.25262144232827 0 0,0 -0.4754390621549293,-0.9795452884377235 l 38.16915074335561 -18.12180869228275" fill="#32ff4a" stroke="none" /><path d="M 81.02952815118164 109.00673069616217 l -34.50312199206937 16.381265075320503 a59.194387973464586,59.194387973464586 0 0,0 -0.42908992334250484,-0.9242215212481225 l 34.7799865322517 -15.784923486793552" fill="#43ff2d" stroke="none" /><path d="M 80.87730276802145 108.67885076344099 l -38.37152090239674 17.41494410742714 a63.138508452814044,63.138508452814044 0 0,0 -0.44064339573949246,-0.9935345309334469 l 38.66560538286751 -16.751861240000995" fill="#32ff48" stroke="none" /><path d="M 80.73074385275274 108.34839909993369 l -36.114833845017884 15.646740282139715 a60.35862936015408,60.35862936015408 0 0,0 -0.4048311296169018,-0.9569012052318957 l 36.37881595582709 -15.02276455124166" fill="#37ff2e" stroke="none" /><path d="M 80.58989483394504 108.01547362559985 l -33.675443607889065 13.906397093688243 a57.43382195591697,57.43382195591697 0 0,0 -0.3694837714024298,-0.9170284194772725 l 33.90982999354888 -13.324669306368166" fill="#56ff2b" stroke="none" /><path d="M 80.45479744820244 107.68017299344265 l -23.658547222302705 9.296487716578095 a46.41951102075755,46.41951102075755 0 0,0 -0.2858242054026714,-0.7461968076064882 l 23.815065707298885 -8.887867342138449" fill="#d3ff1c" stroke="none" /><path d="M 80.20201598880116 107.00284435728193 l -20.01942595427906 7.081171699130864 a42.234886582495186,42.234886582495186 0 0,0 -0.23653380553210707,-0.6874779578964025 l 20.1383505907544 -6.735521038145164" fill="#fff717" stroke="none" /><path d="M 80.0844068197444 106.66101706037122 l -34.95974739705793 11.692720961429213 a57.86331050716884,57.86331050716884 0 0,0 -0.30779905550017334,-0.9473080858709797 l 35.155838703574354 -11.08921397558043" fill="#51ff2b" stroke="none" /><path d="M 79.97269907076064 106.31721596034903 l -45.3876796658449 14.316645832673087 a68.59209822383907,68.59209822383907 0 0,0 -0.3454860766529515,-1.1290684881924646 l 45.62739251500398 -13.533250371928576" fill="#39ff8a" stroke="none" /><path d="M 79.86692584326677 105.97154293290107 l -37.38899470214552 11.089711652763338 a59.998956772951,59.998956772951 0 0,0 -0.2851589364329936,-0.9926756670611768 l 37.57434627546461 -10.444478510197564" fill="#3bff2e" stroke="none" /><path d="M 79.76711848015287 105.62410040840567 l -22.977589636053494 6.387042356252716 a44.84877220201156,44.84877220201156 0 0,0 -0.20034998066572557,-0.745576810079385 l 23.084127693060996 -5.990574612997793" fill="#e7ff1a" stroke="none" /><path d="M 79.67330655649465 105.27499134158121 l -26.973912440229903 7.000014781855488 a48.86740316713032,48.86740316713032 0 0,0 -0.20428595704075547,-0.8160208500788726 l 27.090409711565716 -6.534666092379224" fill="#b6ff1f" stroke="none" /><path d="M 79.58551787078972 104.9243191809786 l -36.75559294747862 8.866072144956854 a58.8097983094372,58.8097983094372 0 0,0 -0.22890855388340905,-0.98613205903627 l 36.902762067292585 -8.232071428572011" fill="#47ff2c" stroke="none" /><path d="M 79.50377843672027 104.57218783832718 l -13.058305294111571 2.912977129495205 a34.37926653113632,34.37926653113632 0 0,0 -0.12387334523938527,-0.5786950293983375 l 13.106512678075397 -2.6877682806807037" fill="#ff8e0d" stroke="none" /><path d="M 79.4281124754447 104.21870165774334 l -13.119129947295578 2.6903557192184575 a34.3921463727798,34.3921463727798 0 0,0 -0.11393637753642764,-0.5809591344006315 l 13.163496257807672 -2.464132857749871" fill="#ff8e0d" stroke="none" /><path d="M 79.35854240842038 103.8639653848113 l -38.14995511590377 7.141458172028052 a59.81262037235181,59.81262037235181 0 0,0 -0.18072969312577342,-1.0136280980967902 l 38.267231251368734 -6.483711323198048" fill="#3dff2e" stroke="none" /><path d="M 79.29508885075956 103.50808413554451 l -36.048610552154976 6.10780494902421 a57.5623796276482,57.5623796276482 0 0,0 -0.15711307690696058,-0.9783432798758028 l 36.14840538342323 -5.486382439455194" fill="#54ff2b" stroke="none" /><path d="M 79.23777060512086 103.15116336523772 l -37.542363032812304 5.697948750273969 a58.97230098437834,58.97230098437834 0 0,0 -0.14368446398097476,-1.0049288064283082 l 37.634881547809876 -5.050874471865261" fill="#46ff2d" stroke="none" /><path d="M 79.18660465613746 102.79330883721812 l -27.694935926318276 3.7168615687678566 a48.943237748769526,48.943237748769526 0 0,0 -0.10487484910796759,-0.835955734674949 l 27.754812284673093 -3.2395880798054986" fill="#b5ff20" stroke="none" /><path d="M 79.10278846688536 102.07522291339032 l -19.290360280977243 1.9156526027026257 a40.38524502460946,40.38524502460946 0 0,0 -0.0627421392084342,-0.692354277946944 l 19.320477016462753 -1.5833169362071156" fill="#ffdf14" stroke="none" /><path d="M 79.07016306316243 101.71520430193888 l -15.22397538831059 1.2476078125904135 a36.27501069976461,36.27501069976461 0 0,0 -0.04564336272265894,-0.6227674205301229 l 15.243195309697585 -0.9853672555635299" fill="#ffa80f" stroke="none" /><path d="M 79.0235259727143 100.99374915477108 l -14.578796940297556 0.6906626498883782 a35.59514765675155,35.59514765675155 0 0,0 -0.02372648324005224,-0.6122751061673846 l 14.58852555638881 -0.4396102967069969" fill="#ff9f0e" stroke="none" /><path d="M 79.0095281055655 100.63252640178507 l -12.896858180530442 0.3886336305486432 a33.90271239032741,33.90271239032741 0 0,0 -0.01255681770381846,-0.583465977628691 l 12.901637060919269 -0.16657783712982338" fill="#ff870c" stroke="none" /><line stroke="#e1ed5e" stroke-width="0.3" x1="15.007084014347285" x2="10.007500721073583" y1="101.09737516637583" y2="101.16192664675087" /><path d="M 14.007167355692545 101.11028546245083 a86.0,86.0 0 0,1 10.666146001902534,-42.60595125391555" fill="none" id="id106" stroke="none" /><text fill="#e1ed5e" style="font-size:6.75px; font-family:Arial;" text-anchor="middle"><textPath startOffset="22.20632615414155" xlink:href="#id106">October</textPath></text><path d="M 79.00175016825051 100.2711162175752 l -43.9631798484951 0.5676249748719835 a64.9668441044297,64.9668441044297 0 0,0 -0.004812814069795069,-1.118328494036703 l 43.966436959854406 0.18921299736839506" fill="#34ff5f" stroke="none" /><path d="M 79.00486145842228 99.54816195383935 l -14.232901652169637 -0.3063074083068055 a35.23619730365932,35.23619730365932 0 0,0 0.018269642022067534,-0.6062804750969062 l 14.225520315691924 0.5512580308287061" fill="#ff9a0e" stroke="none" /><path d="M 79.03285615573316 98.82574320788736 l -29.166618470611255 -1.6334652013864197 a50.21232345388401,50.21232345388401 0 0,0 0.05575817653522942,-0.8625543118468839 l 29.13417970307161 2.135278577486315" fill="#a6ff21" stroke="none" /><path d="M 79.05617556472873 98.46500227214037 l -17.735278679982436 -1.2998396047898224 a38.782848277337905,38.782848277337905 0 0,0 0.05452779115897762,-0.6653771659698635 l 17.71027640500396 1.6049306879674643" fill="#ffca12" stroke="none" /><path d="M 79.08570108090925 98.10471618934814 l -17.123698125080285 -1.551774121643142 a38.19386635994009,38.19386635994009 0 0,0 0.06497117560409019,-0.6542508717464457 l 17.094449823793965 1.846300524094018" fill="#ffc212" stroke="none" /><path d="M 79.12142395522702 97.74499172005258 l -13.297717694194453 -1.436231256408842 a34.37505349882302,34.37505349882302 0 0,0 0.06860220750563899,-0.5877418192462036 l 13.271025133685225 1.6649168139799073" fill="#ff8e0d" stroke="none" /><path d="M 79.16333360222342 97.38593545837743 l -13.158755180073044 -1.6508319839392187 a34.26190348812326,34.26190348812326 0 0,0 0.0784499714096821,-0.5845434088450205 l 13.128389209605528 1.8770937348488985" fill="#ff8c0c" stroke="none" /><path d="M 79.21141760316559 97.0276538004421 l -12.112903406745886 -1.7318998342155159 a33.23609030601327,33.23609030601327 0 0,0 0.08585057258192182,-0.5656480083802727 l 12.081296940724663 1.9401469549878807" fill="#ff7e0b" stroke="none" /><path d="M 79.26566170972629 96.67025291283419 l -12.35512636022875 -1.9841214816503374 a33.5134282045795,33.5134282045795 0 0,0 0.09637207349286715,-0.5687934330652047 l 12.31914242521566 2.19650070303137" fill="#ff820b" stroke="none" /><path d="M 79.32604984820605 96.31383870115002 l -15.471689136689863 -2.7585991697167325 a36.715693879734644,36.715693879734644 0 0,0 0.11629132378846067,-0.6212329017449032 l 15.42191208899154 3.0245101489242083" fill="#ffae10" stroke="none" /><path d="M 79.3925641242962 95.95851677861259 l -11.845409096241248 -2.3230945568231114 a33.071059811684144,33.071059811684144 0 0,0 0.11436398325532522,-0.5576793978949294 l 11.803665817070927 2.5266496108814436" fill="#ff7c0b" stroke="none" /><path d="M 79.46518482838121 95.60439243477599 l -11.82673617436838 -2.5315879673371304 a33.09465279263856,33.09465279263856 0 0,0 0.1240349969047308,-0.5560245703051091 l 11.781406790461611 2.734790707192199" fill="#ff7c0b" stroke="none" /><path d="M 79.54389044137918 95.25157060432595 l -15.169014139240199 -3.5211481653317707 a36.572330408731005,36.572330408731005 0 0,0 0.14762543031830375,-0.6120027151552478 l 15.10615590866108 3.7817361121464153" fill="#ffac0f" stroke="none" /><path d="M 79.62865764111835 94.90015583598534 l -24.690311686527973 -6.181072397879777 a46.45225230044939,46.45225230044939 0 0,0 0.2008588048460361,-0.7739909105349169 l 24.580256549811633 6.605159733963557" fill="#d3ff1c" stroke="none" /><path d="M 79.71946130924805 94.55025226153421 l -13.495507805211414 -3.626487159063295 a34.97426706612455,34.97426706612455 0 0,0 0.16123674960695658,-0.5800543757303963 l 13.431084285038096 3.8582528382126338" fill="#ff960d" stroke="none" /><path d="M 79.81627453868168 94.20196356495316 l -14.180083696378555 -4.07341261558393 a35.75355767173122,35.75355767173122 0 0,0 0.17501213742525992,-0.5900539242040413 l 14.107865661841588 4.316895926534511" fill="#ffa10e" stroke="none" /><path d="M 79.91906864156998 93.8553929516997 l -11.771364796432565 -3.6019450395615817 a33.31011930237535,33.31011930237535 0 0,0 0.1724901337695344,-0.5468408612290562 l 11.707619178894825 3.8040360672170523" fill="#ff7f0b" stroke="none" /><path d="M 80.02781315780177 93.51064311812611 l -11.506361739872489 -3.738643561265302 a33.098504707896424,33.098504707896424 0 0,0 0.18072210104357792,-0.5403360793770973 l 11.44030234505714 3.9361527435647212" fill="#ff7c0b" stroke="none" /><path d="M 80.14247586403 93.16781622104843 l -11.474335619700925 -3.9478622389365383 a33.1344960410871,33.1344960410871 0 0,0 0.1902029246034577,-0.5377292808552638 l 11.404679614287657 4.144789146218413" fill="#ff7c0b" stroke="none" /><path d="M 80.2630227832202 92.82701384747504 l -25.20743273250412 -9.161107293432694 a47.82052482345388,47.82052482345388 0 0,0 0.28782356729183745,-0.7712240634675175 l 25.046004576710654 9.593654493929554" fill="#c2ff1e" stroke="none" /><path d="M 80.52162464483688 92.15188598940014 l -11.29979938650222 -4.5528496224747395 a33.182524609458596,33.182524609458596 0 0,0 0.21802232240334576,-0.5279583470751869 l 11.219755377212675 4.7466825400032375" fill="#ff7d0b" stroke="none" /><path d="M 80.65960295795068 91.81776055985345 l -13.350807158375625 -5.648255340960503 a35.49644232826878,35.49644232826878 0 0,0 0.24291278714789175,-0.5606762040199619 l 13.251603661385053 5.877230689567064" fill="#ff9d0e" stroke="none" /><path d="M 80.803312248108 91.48605970444005 l -13.294627634079577 -5.896312290493915 a35.543507917825806,35.543507917825806 0 0,0 0.2528627490437115,-0.5571495492902784 l 13.191162568072512 6.1242838486262645" fill="#ff9e0e" stroke="none" /><path d="M 80.95270993114464 91.15688171328213 l -13.236144475009597 -6.145167676318751 a35.59310132677081,35.59310132677081 0 0,0 0.26278184364171886,-0.5534855804348592 l 13.128404437526127 6.372095672394142" fill="#ff9f0e" stroke="none" /><path d="M 81.10775173730289 90.83032412892265 l -14.139406259049508 -6.86280270098761 a36.716897603252725,36.716897603252725 0 0,0 0.2808667597798756,-0.5662102489942312 l 14.01917948631622 7.105172538480802" fill="#ffae10" stroke="none" /><path d="M 81.26839172434947 90.50648371742162 l -29.572137886172623 -14.987691841600979 a54.15331425208645,54.15331425208645 0 0,0 0.4285604758006059,-0.8278424311870424 l 29.3097679772119 15.494506995048356" fill="#79ff26" stroke="none" /><path d="M 81.6062741919709 89.86733742301443 l -16.000217706481042 -8.814136345737667 a39.26734699336615,39.26734699336615 0 0,0 0.3312338317425457,-0.58922802660583 l 15.846126233446064 9.088247882278283" fill="#ffd013" stroke="none" /><line stroke="#e1ed5e" stroke-width="0.3" x1="26.266209847984243" x2="21.928928074336255" y1="57.711370442889674" y2="55.22380399835377" /><path d="M 25.398753493254645 57.213857153982495 a86.0,86.0 0 0,1 29.58750427330803,-30.492523968695096" fill="none" id="id107" stroke="none" /><text fill="#e1ed5e" style="font-size:6.75px; font-family:Arial;" text-anchor="middle"><textPath startOffset="21.46611528233685" xlink:href="#id107">November</textPath></text><path d="M 81.78341655067845 89.55222093294921 l -13.756517990111508 -7.88979234731019 a36.858455488979246,36.858455488979246 0 0,0 0.320388307784729,-0.5476474733999631 l 13.618670007856453 8.125419233064045" fill="#ffb010" stroke="none" /><path d="M 81.96595687620814 89.24020034530311 l -13.615775607611889 -8.123692323211483 a36.85508506312861,36.85508506312861 0 0,0 0.32973753505616615,-0.5420018089851761 l 13.473922274269505 8.356861905403733" fill="#ffb010" stroke="none" /><path d="M 82.34701348167596 88.62581576622439 l -16.809928376518705 -10.830984440657039 a40.99709768885084,40.99709768885084 0 0,0 0.3873315296203828,-0.5899324929006505 l 16.621000211540405 11.118734997535357" fill="#ffe715" stroke="none" /><path d="M 82.54541684631803 88.32363383020206 l -22.222797642687347 -14.866096790091687 a47.73674566659534,47.73674566659534 0 0,0 0.4627635003005995,-0.6790483346744178 l 21.963609676718008 15.24642314803652" fill="#c3ff1e" stroke="none" /><path d="M 82.7489923806493 88.02491185347247 l -15.702136255281834 -10.89991204541957 a40.11452760539268,40.11452760539268 0 0,0 0.3986378892273526,-0.5638450238486158 l 15.512185746250603 11.168583569599972" fill="#ffdb14" stroke="none" /><path d="M 82.95767976084542 87.72973835380427 l -12.349573488088426 -8.891541514964757 a36.21747271560026,36.21747271560026 0 0,0 0.36862038093291255,-0.5027977853285809 l 12.19469049464188 9.10280174396484" fill="#ffa70f" stroke="none" /><path d="M 83.17141714833178 87.43820079747576 l -13.33149185106772 -9.951374110304227 a37.636060881660605,37.636060881660605 0 0,0 0.3919958109528292,-0.5158205379814512 l 13.15822009989078 10.179379424166706" fill="#ffba11" stroke="none" /><path d="M 83.39014120810768 87.1503855733568 l -11.736955242243303 -9.079869449535103 a35.839142413866895,35.839142413866895 0 0,0 0.38167990266061286,-0.4846947161780061 l 11.57892125898872 9.280556559666158" fill="#ffa20f" stroke="none" /><path d="M 83.6137871275137 86.86637796730984 l -14.291881191860464 -11.455005935213885 a39.31597742349668,39.31597742349668 0 0,0 0.4277981012742619,-0.524429888745365 l 14.09258459850981 11.699319993567332" fill="#ffd113" stroke="none" /><path d="M 84.07557802195018 86.31012108654704 l -40.295777145860356 -34.64140240761635 a74.13921731221913,74.13921731221913 0 0,0 0.8402731880132646,-0.9605775098068701 l 39.693512094269245 35.32989547362616" fill="#40ffc8" stroke="none" /><path d="M 84.31358615837235 86.03803664274999 l -22.51637102851424 -20.041084623440085 a51.14352396747272,51.14352396747272 0 0,0 0.5909667300958561,-0.6525602236331891 l 22.16806065780234 20.42569763434283" fill="#9bff22" stroke="none" /><path d="M 84.5562425177563 85.77008943001954 l -10.866836997628713 -10.012726425716055 a35.776428418574795,35.776428418574795 0 0,0 0.4211953432503111,-0.4493018251834014 l 10.692874332407946 10.198297667777508" fill="#ffa10e" stroke="none" /><path d="M 84.80347519578584 85.50635884689758 l -12.705562545811917 -12.117893173591211 a38.557751979456455,38.557751979456455 0 0,0 0.4622078135476674,-0.4763457810747189 l 12.49509046856113 12.334803150216054" fill="#ffc712" stroke="none" /><path d="M 85.05521093208273 85.24692304244772 l -11.358332090657317 -11.21262713587807 a36.96041087096084,36.96041087096084 0 0,0 0.4508540036308106,-0.4489178932582894 l 11.163642286859194 11.406480879786468" fill="#ffb110" stroke="none" /><path d="M 85.31137513191541 84.99185889309783 l -10.992725535906462 -11.231846239793356 a36.71605499679007,36.71605499679007 0 0,0 0.45548321691007004,-0.43817449378860285 l 10.797759075383965 11.419403820344272" fill="#ffae10" stroke="none" /><path d="M 85.83668400450813 84.49514656593479 l -22.267491064883547 -24.376649184080147 a54.01608977102504,54.01608977102504 0 0,0 0.691892125782637,-0.621187582005246 l 21.84458795150494 24.756335774854673" fill="#7bff26" stroke="none" /><path d="M 86.10567301691215 84.25364557470407 l -41.68298094926353 -47.23906327588782 a84.0,84.0 0 0,0 1.092424805412906,-0.9473400263212777 l 40.863662345203856 47.94956829562878" fill="#4dd2ff" stroke="none" /><path d="M 86.37877921826538 84.01681056812374 l -12.13177062479454 -14.235463263335332 a39.703696768671094,39.703696768671094 0 0,0 0.523980014966577,-0.4388181936759806 l 11.884933072868852 14.442182614405125" fill="#ffd614" stroke="none" /><path d="M 86.65592168130627 83.78471172551755 l -24.90778526973578 -30.267127394019244 a60.19817301519367,60.19817301519367 0 0,0 0.8057858022474828,-0.6515560801043926 l 24.3830960689238 30.69138957138777" fill="#39ff2e" stroke="none" /><path d="M 86.93701828274178 83.55741782278169 l -25.7452626378935 -32.405970226411824 a62.387986839289546,62.387986839289546 0 0,0 0.8465973903971297,-0.6607826917102487 l 25.183632692336946 32.8443313073453" fill="#31ff3f" stroke="none" /><path d="M 87.22198572758235 83.33499621200491 l -27.410390452971985 -35.74845441480127 a66.04754707896427,66.04754707896427 0 0,0 0.9081658692321309,-0.684011704452657 l 26.790978429981465 36.214982708759784" fill="#36ff6c" stroke="none" /><path d="M 87.51073957382395 83.11751280151077 l -7.920926178431464 -10.707194040671572 a34.31859886582495,34.31859886582495 0 0,0 0.477934998785062,-0.34724010223953905 l 7.73544586329262 10.84195337772778" fill="#ff8d0d" stroke="none" /><path d="M 88.09926311788651 82.69761687909137 l -14.406168337426065 -20.945009233258673 a46.421075861331055,46.421075861331055 0 0,0 0.6622636385072709,-0.44716336500129716 l 14.043500004512254 21.189884510558635" fill="#d3ff1c" stroke="none" /><path d="M 88.39885842347998 82.49532879139004 l -21.008893004425314 -31.69979110018287 a59.02959822383907,59.02959822383907 0 0,0 0.851805462691834,-0.5540379674451944 l 20.460120515949193 32.056727991787604" fill="#45ff2d" stroke="none" /><path d="M 88.70189139769569 82.29822771554957 l -22.63246174838455 -35.46033218557718 a63.067368392895354,63.067368392895354 0 0,0 0.920125418374635,-0.5761824525737309 l 22.018717177637672 35.84465897947384" fill="#32ff47" stroke="none" /><path d="M 89.00827224532344 82.1063720568725 l -19.507599158907038 -31.756765560777023 a58.26980793922534,58.26980793922534 0 0,0 0.8591687110569598,-0.5176395351075026 l 18.95806838163243 32.08785170534314" fill="#4dff2c" stroke="none" /><line stroke="#e1ed5e" stroke-width="0.3" x1="56.762969772571076" x2="54.21961505331055" y1="26.818313649435495" y2="22.513508569990535" /><path d="M 56.25429882871897 25.957352633546506 a86.0,86.0 0 0,1 42.265352541879196,-11.944610805530505" fill="none" id="id108" stroke="none" /><text fill="#e1ed5e" style="font-size:6.75px; font-family:Arial;" text-anchor="middle"><textPath startOffset="22.20632615414155" xlink:href="#id108">December</textPath></text><path d="M 89.3179101791058 81.91981866633112 l -20.28847203576477 -34.33965259046946 a60.88525839931522,60.88525839931522 0 0,0 0.9069098939047197,-0.5253407475327918 l 19.69436540939473 34.683797495392305" fill="#32ff2f" stroke="none" /><path d="M 89.63071344664047 81.73862282372117 l -19.00697738058025 -33.473236672712254 a59.49315215065269,59.49315215065269 0 0,0 0.8948787442648957,-0.4979990523187587 l 18.427974547243306 33.795451122591196" fill="#40ff2d" stroke="none" /><path d="M 89.94658935756843 81.56283822128135 l -12.398590497686355 -22.73803656931275 a46.89871335330623,46.89871335330623 0 0,0 0.7120898601976573,-0.380373742084025 l 12.005355590960392 22.948089037898523" fill="#cdff1d" stroke="none" /><path d="M 90.58718382345135 81.22770947309562 l -17.497634228467277 -34.89611048483615 a60.03723518082602,60.03723518082602 0 0,0 0.9278003745443119,-0.4552676143961053 l 16.89436258691254 35.19213325936708" fill="#3bff2e" stroke="none" /></svg>