<?xml version="1.0" encoding="utf-8" ?>
<svg baseProfile="full" height="200mm" version="1.1" viewBox="0,0,200,200" width="200mm" xmlns="http://www.w3.org/2000/svg" xmlns:ev="http://www.w3.org/2001/xml-events" xmlns:xlink="http://www.w3.org/1999/xlink"><defs /><rect fill="#1a1a1a" height="200" width="200" x="0" y="0" /><text alignment-baseline="middle" fill="#e1ed5e" style="dominant-baseline: central; font-size:9.0px; font-family:Arial;" text-anchor="middle" x="100.0" y="100.0">2023</text><line stroke="#e1ed5e" stroke-width="0.3" x1="100.0" x2="100.0" y1="15.0" y2="10.0" /><path d="M 100.0 14.0 a86.0,86.0 0 0,1 42.46469731375804,11.215312516191453" fill="none" id="id109" stroke="none" /><text fill="#e1ed5e" style="font-size:6.75px; font-family:Arial;" text-anchor="middle"><textPath startOffset="22.20632615414155" xlink:href="#id109">January</textPath></text><path d="M 102.52436894288641 79.15227682838746 l 2.9296353025685486 -24.194651084518913 a45.37137468645682,45.37137468645682 0 0,0 0.7745223605927005,0.10055523134552104 l -3.3456723916690954 24.140637530009254" fill="#ffae10" stroke="none" /><path d="M 104.66035177308747 79.52364482259891 l 6.598726929780165 -28.99306380971853 a50.73450766648435,50.73450766648435 0 0,0 0.8498665738422594,0.20113595994072672 l -7.0968171905849475 28.87518193763694" fill="#faff18" stroke="none" /><path d="M 109.41281617654863 81.2277094730956 l 10.831617629620158 -21.601853176115597 a45.16534711351678,45.16534711351678 0 0,0 0.691975083723214,0.3544565143410973 l -11.201853200932128 21.412204136462" fill="#ffaa0f" stroke="none" /><path d="M 109.73455568895987 81.39251694778311 l 12.283462340096984 -23.47968665638412 a47.49866284442601,47.49866284442601 0 0,0 0.7211992348203281,0.38523965452983105 l -12.685806621445623 23.264768275352537" fill="#ffd113" stroke="none" /><path d="M 110.05341064243156 81.56283822128135 l 13.804095212605334 -25.315621304620638 a49.83459253531487,49.83459253531487 0 0,0 0.7495974910865021,0.41715019221765476 l -14.237816792763871 25.074255714842806" fill="#fff617" stroke="none" /><line stroke="#e1ed5e" stroke-width="0.3" x1="143.23703022742887" x2="145.7803849466894" y1="26.81831364943548" y2="22.513508569990506" /><path d="M 143.74570117128098 25.957352633546492 a86.0,86.0 0 0,1 28.547481713284135,27.462654790039103" fill="none" id="id110" stroke="none" /><text fill="#e1ed5e" style="font-size:6.75px; font-family:Arial;" text-anchor="middle"><textPath startOffset="19.985693538727396" xlink:href="#id110">February</textPath></text><path d="M 111.60114157652 82.49532879139004 l 17.906536949573496 -27.018723952262512 a53.41381664560662,53.41381664560662 0 0,0 0.762025177183498,0.5145228012413917 l -18.368966821163536 26.70648923872245" fill="#d2ff1c" stroke="none" /><path d="M 111.90073688211348 82.69761687909136 l 14.021246508404543 -20.38537456329629 a45.741844105388225,45.741844105388225 0 0,0 0.6448921741725993,0.45178818035174495 l -14.370069822160794 20.14100154018061" fill="#ffb410" stroke="none" /><path d="M 113.89432698308785 84.25364557470407 l 23.848674282134503 -27.02755435920173 a57.04508232276559,57.04508232276559 0 0,0 0.7306904931669601,0.6560211393230914 l -24.310375762897454 26.613034211109344" fill="#9dff22" stroke="none" /><path d="M 114.16331599549186 84.49514656593476 l 17.2027273337093 -18.832155270718292 a46.50654621579315,46.50654621579315 0 0,0 0.586407942374887,0.5450022733911656 l -17.524343159879038 18.533248411252487" fill="#ffc111" stroke="none" /><path d="M 114.42810811169701 84.74124197986012 l 19.018392353589004 -20.11331247374197 a48.68112328612112,48.68112328612112 0 0,0 0.60391658741925,0.5809672786148333 l -19.361792184620672 19.782962108364835" fill="#ffe415" stroke="none" /><path d="M 114.94478906791727 85.2469230424477 l 18.864036959345576 -18.62204864361601 a47.50721762254116,47.50721762254116 0 0,0 0.569488781315573,0.5869082486228453 l -19.18179000436426 18.294576199443053" fill="#ffd113" stroke="none" /><path d="M 115.19652480421416 85.50635884689758 l 17.360545704327308 -16.557569766923116 a44.99044942760689,44.99044942760689 0 0,0 0.5296718713209383,0.5650170220219596 l -17.64298489761871 16.256283328023102" fill="#ffa80f" stroke="none" /><path d="M 115.4437574822437 85.77008943001954 l 31.962225493087864 -29.45006167748454 a64.46136205043095,64.46136205043095 0 0,0 0.7448552112423436,0.8224877281057829 l -32.464424344946245 28.89552116210921" fill="#3aff2e" stroke="none" /><path d="M 116.15771136456269 86.58626213691792 l 24.437780422436155 -20.28764923113166 a52.76151481432586,52.76151481432586 0 0,0 0.5740993188288739,0.7037778826166369 l -24.783378233341438 19.86398717890692" fill="#dbff1b" stroke="none" /><path d="M 117.04232023915458 87.72973835380427 l 41.03656234083528 -29.545821808090263 a71.56634290779473,71.56634290779473 0 0,0 0.7111901243640308,1.0059279949785107 l -41.539065085003195 28.835067312779962" fill="#39ff8c" stroke="none" /><path d="M 117.65298651832404 88.62581576622439 l 22.08649198330931 -14.230783478772995 a47.27409991890312,47.27409991890312 0 0,0 0.43485959603063745,0.6878434491625953 l -22.328179175585902 13.848492381896195" fill="#ffcd13" stroke="none" /><line stroke="#e1ed5e" stroke-width="0.3" x1="172.23445277983987" x2="176.4835382374775" y1="55.19839476539836" y2="52.563006222186495" /><path d="M 173.08426987136738 54.67131705675599 a86.0,86.0 0 0,1 12.851231095245387,41.99856678651699" fill="none" id="id111" stroke="none" /><text fill="#e1ed5e" style="font-size:6.75px; font-family:Arial;" text-anchor="middle"><textPath startOffset="22.20632615414155" xlink:href="#id111">March</textPath></text><path d="M 118.21658344932153 89.55222093294921 l 23.950119359253964 -13.736140829651625 a48.60959583576938,48.60959583576938 0 0,0 0.4100389743890341,0.729413582059805 l -24.183015974935433 13.321843737657026" fill="#ffe215" stroke="none" /><path d="M 118.3937258080291 89.86733742301442 l 48.88575886093944 -26.929992570703597 a76.81256058691511,76.81256058691511 0 0,0 0.6280045014792518,1.1635969638869226 l -49.34207146163716 26.084514623484214" fill="#42ffd4" stroke="none" /><path d="M 118.73160827565052 90.50648371742162 l 22.065024139848752 -11.182951451074196 a45.7370914508798,45.7370914508798 0 0,0 0.34986694181991046,0.7053104055387656 l -22.25425109462207 10.80148145703648" fill="#ffb410" stroke="none" /><path d="M 118.89224826269711 90.83032412892265 l 27.395274268203426 -13.296764998303493 a51.45168323180506,51.45168323180506 0 0,0 0.37986485229242306,0.8000922565431609 l -27.620097314337606 12.823230326119791" fill="#efff19" stroke="none" /><path d="M 119.196687751892 91.48605970444005 l 27.76396497659962 -12.313621143079178 a51.372076268789016,51.372076268789016 0 0,0 0.3515545054521588,0.8114362687009333 l -27.97181019189446 11.83388572979164" fill="#f0ff19" stroke="none" /><path d="M 119.34039704204932 91.81776055985345 l 25.13810262083524 -10.635044061786992 a48.29520774003734,48.29520774003734 0 0,0 0.317318633116715,0.7684122395803303 l -25.317442940838156 10.200757251753359" fill="#ffdd14" stroke="none" /><path d="M 119.47837535516314 92.15188598940014 l 53.41364843493668 -21.521117392799653 a78.58625124945777,78.58625124945777 0 0,0 0.4947433002759808,1.2590677349709511 l -53.776185285094364 20.598500652932916" fill="#44ffea" stroke="none" /><path d="M 119.7369772167798 92.82701384747503 l 31.621672699444794 -11.492226894803172 a54.645229428738475,54.645229428738475 0 0,0 0.3136816217178835,0.8868201854179184 l -31.814807401972487 10.946209082958639" fill="#bfff1e" stroke="none" /><path d="M 119.85752413597 93.16781622104841 l 23.613537206985793 -8.124478397435285 a45.97211021632123,45.97211021632123 0 0,0 0.25101364611551663,0.7504988522654663 l -23.74988814687308 7.7168064422475044" fill="#ffb811" stroke="none" /><path d="M 119.97218684219823 93.5106431181261 l 26.273428176067778 -8.536754301965026 a48.62551722837259,48.62551722837259 0 0,0 0.25179801654857775,0.7982685224719399 l -26.41648167638456 8.083235613066666" fill="#ffe315" stroke="none" /><path d="M 120.18372546131832 94.20196356495316 l 32.477667165652676 -9.329630345629932 a54.79113592214699,54.79113592214699 0 0,0 0.2525955625219239,0.9087206340247438 l -32.633449498740966 8.769198408186234" fill="#bdff1f" stroke="none" /><path d="M 120.28053869075195 94.5502522615342 l 59.872473833328854 -16.088817158408453 a82.99647700054695,82.99647700054695 0 0,0 0.3588754549281772,1.3828935223497143 l -60.140545620127334 15.05582721050989" fill="#4bdeff" stroke="none" /><path d="M 120.45610955862082 95.25157060432595 l 23.680908769880087 -5.4969945774359354 a45.31054070874903,45.31054070874903 0 0,0 0.16981875627386775,0.7612641862638909 l -23.772021913155996 5.088552221622081" fill="#ffad10" stroke="none" /><path d="M 120.53481517161879 95.60439243477599 l 25.84265999090673 -5.531785448867366 a47.42808592497595,47.42808592497595 0 0,0 0.16401242825122758,0.7997828479813064 l -25.93405171507295 5.086126944722648" fill="#ffd013" stroke="none" /><path d="M 120.6074358757038 95.95851677861258 l 31.08336502070211 -6.095998500402379 a52.67549176772344,52.67549176772344 0 0,0 0.16684153345820435,0.89127414311964 l -31.183692278070176 5.560046279820176" fill="#ddff1b" stroke="none" /><path d="M 120.73433829027371 96.67025291283417 l 14.336854661869479 -2.3023691125881385 a35.52054768685288,35.52054768685288 0 0,0 0.09175144637238464,0.6045273938857425 l -14.374362001681163 2.0552426063103137" fill="#ff0000" stroke="none" /><path d="M 120.91429891909075 98.10471618934814 l 33.62554460165121 -3.0471951536318755 a54.76333289327273,54.76333289327273 0 0,0 0.07699598435422474,0.9395460327982943 l -33.67301506982493 2.4679352036258124" fill="#beff1f" stroke="none" /><path d="M 120.94382443527127 98.46500227214037 l 28.936155001691098 -2.1207651123062283 a50.01376761028233,50.01376761028233 0 0,0 0.05553769058639476,0.8591434918078326 l -28.968373283281906 1.6223625562453605" fill="#fff917" stroke="none" /><path d="M 120.96714384426684 98.82574320788733 l 26.34355561152674 -1.4753606564153725 a47.38483676894933,47.38483676894933 0 0,0 0.038599218169593726,0.8147684891309382 l -26.36504843792983 1.0216810606614344" fill="#ffcf13" stroke="none" /><path d="M 120.98425023603335 99.18683210126433 l 28.568626230854292 -1.107072661667794 a49.590068460856614,49.590068460856614 0 0,0 0.025711991303204094,0.8532558155307393 l -28.58344991661314 0.6151466987120557" fill="#fff216" stroke="none" /><line stroke="#e1ed5e" stroke-width="0.3" x1="184.98032266829074" x2="189.97916517819016" y1="98.17113171792111" y2="98.06355123074" /><path d="M 185.9800911702706 98.14961562048488 a86.0,86.0 0 0,1 -9.607161424134198,41.387399972396054" fill="none" id="id112" stroke="none" /><text fill="#e1ed5e" style="font-size:6.75px; font-family:Arial;" text-anchor="middle"><textPath startOffset="21.466115282336823" xlink:href="#id112">April</textPath></text><path d="M 120.99513854157772 99.54816195383933 l 23.83807265886303 -0.5130210573789001 a44.84359240329668,44.84359240329668 0 0,0 0.009965939360107172,0.7718729862908108 l -23.843371605340852 0.10261181302762666" fill="#ffa50f" stroke="none" /><path d="M 120.99980553446 99.90962569577887 l 55.69132744124147 -0.23967197983782426 a76.69184316240121,76.69184316240121 0 0,0 -0.005681414680036065,1.3201606858236947 l -55.68720172927193 -0.7189981841895552" fill="#41ffd2" stroke="none" /><path d="M 120.99824983174949 100.27111621757518 l 29.263932098658362 0.37783751719960756 a50.266371197404894,50.266371197404894 0 0,0 -0.018617556391693428,0.8650846892388842 l -29.25309247958166 -0.8815120222286066" fill="#fffd17" stroke="none" /><path d="M 120.9904718944345 100.63252640178507 l 36.36387561637535 1.0957881992488394 a57.380382098334685,57.380382098334685 0 0,0 -0.03824776026474702,0.9870047423308901 l -36.3396257232594 -1.7215701885937356" fill="#98ff23" stroke="none" /><path d="M 120.9764740272857 100.99374915477107 l 26.609023045841482 1.260588129668156 a47.63886615242442,47.63886615242442 0 0,0 -0.04585501545338402,0.8187721045771924 l -26.58338167950057 -1.718431950580772" fill="#ffd313" stroke="none" /><path d="M 120.95626037817324 101.35467743843564 l 29.69510355886299 1.919583269975968 a50.757082775399354,50.757082775399354 0 0,0 -0.06386556186119625,0.8713948501708827 l -29.657661438337453 -2.430451256643621" fill="#faff18" stroke="none" /><path d="M 120.81339534386255 102.79330883721812 l 33.09825631665909 4.442026413201093 a54.395002168870114,54.395002168870114 0 0,0 -0.13253199552020323,0.9269284679888393 l -33.01689027012229 -5.011100353170343" fill="#c3ff1e" stroke="none" /><path d="M 120.76222939487914 103.15116336523771 l 35.51409038597583 5.390110013986722 a56.920800407370386,56.920800407370386 0 0,0 -0.1553619247477014,0.9674388537084748 l -35.41604670686684 -6.000628097388402" fill="#9fff22" stroke="none" /><path d="M 120.70491114924044 103.5080841355445 l 37.6214518553624 6.374295328226496 a59.15763725175867,59.15763725175867 0 0,0 -0.1787505974491346,1.0025282785155702 l -37.50615481557408 -7.020942357475285" fill="#80ff26" stroke="none" /><path d="M 120.64145759157962 103.86396538481128 l 24.615355694192544 4.60785687809068 a46.04292476849669,46.04292476849669 0 0,0 -0.15253377914956043,0.7777664536794057 l -24.53239198206732 -5.03088705883803" fill="#ffb911" stroke="none" /><path d="M 120.5718875245553 104.21870165774334 l 35.30071184074237 7.239159332574611 a57.03533938102333,57.03533938102333 0 0,0 -0.20550637052108367,0.9600573464809761 l -35.17087143149684 -7.845730498471756" fill="#9dff22" stroke="none" /><path d="M 120.49622156327973 104.57218783832717 l 59.23799610394177 13.21449636544496 a81.6940120325142,81.6940120325142 0 0,0 -0.3179820147809675,1.3698581973138912 l -59.00175352323025 -14.232223220107416" fill="#49edff" stroke="none" /><path d="M 120.23288151984713 105.62410040840565 l 34.62649153967326 9.625068234541953 a56.939335759953224,56.939335759953224 0 0,0 -0.27061737903133126,0.9420545980728752 l -34.455681523755835 -10.21968030811941" fill="#9eff22" stroke="none" /><path d="M 120.13307415673323 105.97154293290107 l 34.30486287797845 10.174946949898484 a56.7820228957245,56.7820228957245 0 0,0 -0.2860008488243547,0.9346673218563569 l -34.12463525664796 -10.763941244306897" fill="#a1ff22" stroke="none" /><path d="M 119.67450827220406 107.3425965602758 l 34.859979691021394 13.00986857863173 a58.208532146427025,58.208532146427025 0 0,0 -0.3584141039522984,0.9357061267556724 l -34.63087130747559 -13.607998272220545" fill="#8dff24" stroke="none" /><path d="M 119.41010516605496 108.01547362559984 l 36.09240655534559 14.90449074612603 a60.04875997208759,60.04875997208759 0 0,0 -0.40275280584224243,0.9519886617555217 l -35.83050276831104 -15.523553933547714" fill="#73ff27" stroke="none" /><path d="M 119.26925614724726 108.34839909993367 l 33.37419319889315 14.459358593479218 a57.37182732021952,57.37182732021952 0 0,0 -0.40039775138267125,0.90279122744861 l -33.12035436277921 -15.031698157420516" fill="#98ff23" stroke="none" /><path d="M 119.12269723197855 108.67885076344098 l 36.933353037973305 16.762230522272677 a61.559153574863736,61.559153574863736 0 0,0 -0.4462317019023475,0.9611433872618312 l -36.63934671923113 -17.395493976813338" fill="#5fff29" stroke="none" /><path d="M 118.97047184881838 109.00673069616215 l 35.57717489144372 16.89119995175316 a60.38334684948042,60.38334684948042 0 0,0 -0.45387212642355407,0.9351110129157344 l -35.28114950840545 -17.501099920634168" fill="#6fff27" stroke="none" /><path d="M 118.81262510543309 109.33194174019688 l 56.43787531629926 27.995825220590632 a84.0,84.0 0 0,0 -0.6536853208549238,1.2897831531892228 l -55.94761132565807 -28.96316258548255" fill="#4dd2ff" stroke="none" /><line stroke="#e1ed5e" stroke-width="0.3" x1="174.80103733775053" x2="179.2010983576182" y1="140.37084112569926" y2="142.7455964860345" /><path d="M 175.68104954172406 140.8457921977663 a86.0,86.0 0 0,1 -30.038265399797805,32.042727171017184" fill="none" id="id113" stroke="none" /><text fill="#e1ed5e" style="font-size:6.75px; font-family:Arial;" text-anchor="middle"><textPath startOffset="22.206326154141568" xlink:href="#id113">May</textPath></text><path d="M 118.48025628344425 109.97397251340804 l 38.95983629704993 21.026999322610635 a65.27192727684212,65.27192727684212 0 0,0 -0.5421411389355597,0.9841436427067947 l -38.59211874866286 -21.694513483715237" fill="#30ff2f" stroke="none" /><path d="M 118.30583269289576 110.29060199501025 l 27.409344730678463 15.408130419377555 a52.443324594987075,52.443324594987075 0 0,0 -0.4491346306448211,0.7831040861999268 l -27.140058103881262 -15.877654351435798" fill="#e0ff1b" stroke="none" /><path d="M 118.12598468904814 110.60418214915192 l 27.500437808145346 16.088486043751132 a52.86084529355185,52.86084529355185 0 0,0 -0.466230451196341,0.7814290537305154 l -27.21942648125078 -16.55947719136775" fill="#daff1c" stroke="none" /><path d="M 117.94076556474637 110.91462005526583 l 32.726814839968014 19.9100059753964 a59.30734586877393,59.30734586877393 0 0,0 -0.5381022150211234,0.8675921060893305 l -32.37924798527893 -20.470394412851004" fill="#7eff26" stroke="none" /><path d="M 117.75023020441432 111.22182372390056 l 30.76936440545454 19.452614387423587 a57.40271957452426,57.40271957452426 0 0,0 -0.5351987296010878,0.8306403135459013 l -30.429960812476402 -19.97937630089094" fill="#98ff23" stroke="none" /><path d="M 117.14729908036423 112.12312394758627 l 29.334193021938233 20.739246235846462 a56.92507779642796,56.92507779642796 0 0,0 -0.5725584167236417,0.7952335634548542 l -28.97285481283899 -21.241113404752447" fill="#9fff22" stroke="none" /><path d="M 116.93607887273984 112.41649034213515 l 23.58951789638467 17.294382208359455 a50.249974539350845,50.249974539350845 0 0,0 -0.5174281353806239,0.6931795442397516 l -23.288328494308956 -17.69787463210852" fill="#fffc17" stroke="none" /><path d="M 116.71984013943494 112.70617746262583 l 28.79496841198529 21.88262421304198 a57.166275012730324,57.166275012730324 0 0,0 -0.6021328722787155,0.7783379057482522 l -28.414028722488506 -22.375040112903484" fill="#9bff22" stroke="none" /><path d="M 116.498646956653 112.99209946851258 l 28.605392241684736 22.52573209889325 a57.409848556286896,57.409848556286896 0 0,0 -0.6180637347723795,0.7711295407722097 l -28.213410594857503 -23.01478947324371" fill="#98ff23" stroke="none" /><path d="M 116.27256486870786 113.27417163493432 l 23.059761662748087 18.810755196965015 a50.75898383720272,50.75898383720272 0 0,0 -0.5581167813975756,0.672287616888667 l -22.73254888145697 -19.20490407096745" fill="#faff18" stroke="none" /><path d="M 115.80600337817218 113.82643327865902 l 44.807752548551434 39.195955242852385 a80.53198800520528,80.53198800520528 0 0,0 -0.9216738398703457,1.0355103296916255 l -44.12641985903275 -39.96143974228488" fill="#47fbff" stroke="none" /><path d="M 115.32070863581623 114.36230785411682 l 29.840405098043465 27.973711575438767 a61.9020575976463,61.9020575976463 0 0,0 -0.7354360869892737,0.7711017969735247 l -29.354462459675226 -28.4832204889948" fill="#5bff2a" stroke="none" /><path d="M 115.07121518719521 114.62390073753431 l 23.60254112796787 22.90201648120777 a53.88741866737077,53.88741866737077 0 0,0 -0.6516769124826735,0.6601452717630911 l -23.204823590429662 -23.304902246951528" fill="#cbff1d" stroke="none" /><path d="M 114.81725581225074 114.88116024355365 l 25.354014526454744 25.463362296385213 a56.9333949418177,56.9333949418177 0 0,0 -0.7004164426012534,0.6855049072051032 l -24.911948131477693 -25.89601730651289" fill="#9eff22" stroke="none" /><path d="M 114.55890576462653 115.13401014063108 l 21.659032291303987 22.51460512432673 a52.24133677837919,52.24133677837919 0 0,0 -0.6534251016762754,0.6178542183733715 l -21.2682713552369 -22.884093979446025" fill="#e3ff1b" stroke="none" /><line stroke="#e1ed5e" stroke-width="0.3" x1="143.8653032363475" x2="146.44561519142675" y1="172.8068346515853" y2="177.08958963109032" /><path d="M 144.38136562736335 173.6633856474863 a86.0,86.0 0 0,1 -40.68145358897372,12.25698825130547" fill="none" id="id114" stroke="none" /><text fill="#e1ed5e" style="font-size:6.75px; font-family:Arial;" text-anchor="middle"><textPath startOffset="21.466115282336833" xlink:href="#id114">June</textPath></text><line stroke="#e1ed5e" stroke-width="0.3" x1="102.19456741930631" x2="102.32365962044197" y1="184.97166512339345" y2="189.96999836594603" /><path d="M 102.22038585953345 185.97133177190398 a86.0,86.0 0 0,1 -42.740103519485714,-10.115201625700543" fill="none" id="id115" stroke="none" /><text fill="#e1ed5e" style="font-size:6.75px; font-family:Arial;" text-anchor="middle"><textPath startOffset="22.20632615414155" xlink:href="#id115">July</textPath></text><line stroke="#e1ed5e" stroke-width="0.3" x1="58.666819895761336" x2="56.23545636021788" y1="174.27360380694188" y2="178.64263932499728" /><path d="M 58.180547188652646 175.14741091055294 a86.0,86.0 0 0,1 -31.652253787137756,-30.449443065178592" fill="none" id="id116" stroke="none" /><text fill="#e1ed5e" style="font-size:6.75px; font-family:Arial;" text-anchor="middle"><textPath startOffset="22.20632615414155" xlink:href="#id116">August</textPath></text><line stroke="#e1ed5e" stroke-width="0.3" x1="26.63291911575756" x2="22.317208475507996" y1="142.92168965132927" y2="145.44649492493687" /><path d="M 25.769776987707644 143.4266507060508 a86.0,86.0 0 0,1 -11.730757126820373,-40.83630448921669" fill="none" id="id117" stroke="none" /><text fill="#e1ed5e" style="font-size:6.75px; font-family:Arial;" text-anchor="middle"><textPath startOffset="21.46611528233685" xlink:href="#id117">September</textPath></text><line stroke="#e1ed5e" stroke-width="0.3" x1="15.007084014347285" x2="10.007500721073583" y1="101.09737516637583" y2="101.16192664675087" /><path d="M 14.007167355692545 101.11028546245083 a86.0,86.0 0 0,1 10.666146001902534,-42.60595125391555" fill="none" id="id118" stroke="none" /><text fill="#e1ed5e" style="font-size:6.75px; font-family:Arial;" text-anchor="middle"><textPath startOffset="22.20632615414155" xlink:href="#id118">October</textPath></text><line stroke="#e1ed5e" stroke-width="0.3" x1="26.266209847984243" x2="21.928928074336255" y1="57.711370442889674" y2="55.22380399835377" /><path d="M 25.398753493254645 57.213857153982495 a86.0,86.0 0 0,1 29.58750427330803,-30.492523968695096" fill="none" id="id119" stroke="none" /><text fill="#e1ed5e" style="font-size:6.75px; font-family:Arial;" text-anchor="middle"><textPath startOffset="21.46611528233685" xlink:href="#id119">November</textPath></text><line stroke="#e1ed5e" stroke-width="0.3" x1="56.762969772571076" x2="54.21961505331055" y1="26.818313649435495" y2="22.513508569990535" /><path d="M 56.25429882871897 25.957352633546506 a86.0,86.0 0 0,1 42.265352541879196,-11.944610805530505" fill="none" id="id120" stroke="none" /><text fill="#e1ed5e" style="font-size:6.75px; font-family:Arial;" text-anchor="middle"><textPath startOffset="22.20632615414155" xlink:href="#id120">December</textPath></text></svg>