<?xml version="1.0" encoding="utf-8" ?>
<svg baseProfile="full" height="200mm" version="1.1" viewBox="0,0,200,200" width="200mm" xmlns="http://www.w3.org/2000/svg" xmlns:ev="http://www.w3.org/2001/xml-events" xmlns:xlink="http://www.w3.org/1999/xlink"><defs /><rect fill="#1a1a1a" height="200" width="200" x="0" y="0" /><text alignment-baseline="middle" fill="#e1ed5e" style="dominant-baseline: central; font-size:9.0px; font-family:Arial;" text-anchor="middle" x="100.0" y="100.0">2023</text><line stroke="#e1ed5e" stroke-width="0.3" x1="100.0" x2="100.0" y1="15.0" y2="10.0" /><path d="M 100.0 14.0 a86.0,86.0 0 0,1 42.46469731375804,11.215312516191453" fill="none" id="id109" stroke="none" /><text fill="#e1ed5e" style="font-size:6.75px; font-family:Arial;" text-anchor="middle"><textPath startOffset="22.20632615414155" xlink:href="#id109">January</textPath></text><path d="M 102.52436894288641 79.15227682838746 l 3.3069083754793556 -27.31039397396945 a48.509875717953406,48.509875717953406 0 0,0 0.8280988555619605,0.10751099804823236 l -3.776521959549162 27.24942465275708" fill="#ff0b01" stroke="none" /><path d="M 104.66035177308747 79.52364482259891 l 7.4484989078536055 -32.72673750862621 a54.56366314839335,54.56366314839335 0 0,0 0.9140097261028876,0.21631657169868515 l -8.010732320919017 32.593675024786656" fill="#ff9b0e" stroke="none" /><path d="M 109.41281617654863 81.2277094730956 l 12.226493525653655 -24.383700295849543 a48.27731629120915,48.27731629120915 0 0,0 0.7396533430503361,0.3788791706020884 l -12.644407356292746 24.169628599934956" fill="#ff0500" stroke="none" /><path d="M 109.73455568895987 81.39251694778311 l 13.865304141009718 -26.50335773519398 a50.91111215188041,50.91111215188041 0 0,0 0.7730123950657029,0.4129164503295378 l -14.319461582603731 26.26076255836269" fill="#ff4606" stroke="none" /><path d="M 110.05341064243156 81.56283822128135 l 15.581761332018539 -28.575720687593932 a53.54785859351383,53.54785859351383 0 0,0 0.8054513624508588,0.4482328111602158 l -16.071336783541433 28.303272478873538" fill="#ff840c" stroke="none" /><line stroke="#e1ed5e" stroke-width="0.3" x1="143.23703022742887" x2="145.7803849466894" y1="26.81831364943548" y2="22.513508569990506" /><path d="M 143.74570117128098 25.957352633546492 a86.0,86.0 0 0,1 28.547481713284135,27.462654790039103" fill="none" id="id110" stroke="none" /><text fill="#e1ed5e" style="font-size:6.75px; font-family:Arial;" text-anchor="middle"><textPath startOffset="19.985693538727396" xlink:href="#id110">February</textPath></text><path d="M 111.60114157652 82.49532879139004 l 20.21250800823513 -30.498145777450727 a57.588008634600556,57.588008634600556 0 0,0 0.8215760497810409,0.55473181624862 l -20.734488752422713 30.145702048903434" fill="#ffde14" stroke="none" /><path d="M 111.90073688211348 82.69761687909136 l 15.826876974294905 -23.01056579347762 a48.928053510680414,48.928053510680414 0 0,0 0.6898130021570141,0.48325809105582623 l -16.22062111603557 22.734722859657857" fill="#ff1502" stroke="none" /><path d="M 113.89432698308785 84.25364557470407 l 26.91986291212586 -30.50811334803557 a61.686902060297435,61.686902060297435 0 0,0 0.790147564926776,0.7094022854053856 l -27.441021464648625 30.040212053860888" fill="#cbff1d" stroke="none" /><path d="M 114.16331599549186 84.49514656593476 l 19.4180630780407 -21.25732576285708 a49.791232559426746,49.791232559426746 0 0,0 0.6278250398987397,0.5834949517412363 l -19.781096001734287 20.919926225041202" fill="#ff2b04" stroke="none" /><path d="M 114.42810811169701 84.74124197986012 l 21.467546116438307 -22.703468045915393 a52.24584768530543,52.24584768530543 0 0,0 0.6481389892235913,0.6235091941132467 l -21.855168349274315 22.330575765039843" fill="#ff6609" stroke="none" /><path d="M 114.94478906791727 85.2469230424477 l 21.29331311700097 -21.020161988820394 a50.92076859866563,50.92076859866563 0 0,0 0.6104084369518427,0.6290795506952997 l -21.651985817655923 20.650518242574982" fill="#ff4606" stroke="none" /><path d="M 115.19652480421416 85.50635884689758 l 19.59620500961273 -18.68982330046886 a48.079895601377785,48.079895601377785 0 0,0 0.5660438737575805,0.6038161382568387 l -19.915016205340777 18.349737745333968" fill="#ff0000" stroke="none" /><path d="M 115.4437574822437 85.77008943001954 l 36.078262399890946 -33.242586725478084 a70.0582367191924,70.0582367191924 0 0,0 0.8095274603399617,0.8939004408437017 l -36.645133500846946 32.61663349736483" fill="#31ff2f" stroke="none" /><path d="M 116.15771136456269 86.58626213691792 l 27.584833063086915 -22.900255571878237 a56.85170456722683,56.85170456722683 0 0,0 0.618604772458945,0.7583363063830318 l -27.97493632762227 22.422035095887104" fill="#ffce13" stroke="none" /><path d="M 117.04232023915458 87.72973835380427 l 46.32117574047893 -33.350678670458215 a78.07818400895819,78.07818400895819 0 0,0 0.7759015081571357,1.0974576581744007 l -46.88838986843995 32.54839451195202" fill="#40ffc9" stroke="none" /><path d="M 117.65298651832404 88.62581576622439 l 24.930750001724565 -16.06339773224607 a50.65763042376814,50.65763042376814 0 0,0 0.4659836303544428,0.7370741970098452 l -25.203561228324965 15.631875887522018" fill="#ff4006" stroke="none" /><line stroke="#e1ed5e" stroke-width="0.3" x1="172.23445277983987" x2="176.4835382374775" y1="55.19839476539836" y2="52.563006222186495" /><path d="M 173.08426987136738 54.67131705675599 a86.0,86.0 0 0,1 12.851231095245387,41.99856678651699" fill="none" id="id111" stroke="none" /><text fill="#e1ed5e" style="font-size:6.75px; font-family:Arial;" text-anchor="middle"><textPath startOffset="22.20632615414155" xlink:href="#id111">March</textPath></text><path d="M 118.21658344932153 89.55222093294921 l 27.034371900628074 -15.505055907987392 a52.165109060795594,52.165109060795594 0 0,0 0.44003097434603844,0.782766003386028 l -27.297260516266547 15.03740639466657" fill="#ff6409" stroke="none" /><path d="M 118.3937258080291 89.86733742301442 l 55.1811774240873 -30.397987730956764 a84.0,84.0 0 0,0 0.6867676031261407,1.272476066670165 l -55.696253126431905 29.44363068095414" fill="#4dd2ff" stroke="none" /><path d="M 118.73160827565052 90.50648371742162 l 24.9065175686702 -12.623071473679095 a48.92268881802195,48.92268881802195 0 0,0 0.374235242762452,0.7544354132650501 l -25.120112824386062 12.192476471915095" fill="#ff1502" stroke="none" /><path d="M 118.89224826269711 90.83032412892265 l 30.92318755397584 -15.009098061154221 a55.37319527055507,55.37319527055507 0 0,0 0.4088171527380944,0.8610731850389105 l -31.17696290055569 14.47458246047477" fill="#ffae10" stroke="none" /><path d="M 119.196687751892 91.48605970444005 l 31.339357577080026 -13.899346739448102 a55.28333666852586,55.28333666852586 0 0,0 0.37832043191247383,0.8732157172884218 l -31.573968718835182 13.357831877573078" fill="#ffac0f" stroke="none" /><line stroke="#e1ed5e" stroke-width="0.3" x1="184.98032266829074" x2="189.97916517819016" y1="98.17113171792111" y2="98.06355123074" /><path d="M 185.9800911702706 98.14961562048488 a86.0,86.0 0 0,1 -9.607161424134198,41.387399972396054" fill="none" id="id112" stroke="none" /><text fill="#e1ed5e" style="font-size:6.75px; font-family:Arial;" text-anchor="middle"><textPath startOffset="21.466115282336823" xlink:href="#id112">April</textPath></text><line stroke="#e1ed5e" stroke-width="0.3" x1="174.80103733775053" x2="179.2010983576182" y1="140.37084112569926" y2="142.7455964860345" /><path d="M 175.68104954172406 140.8457921977663 a86.0,86.0 0 0,1 -30.038265399797805,32.042727171017184" fill="none" id="id113" stroke="none" /><text fill="#e1ed5e" style="font-size:6.75px; font-family:Arial;" text-anchor="middle"><textPath startOffset="22.206326154141568" xlink:href="#id113">May</textPath></text><line stroke="#e1ed5e" stroke-width="0.3" x1="143.8653032363475" x2="146.44561519142675" y1="172.8068346515853" y2="177.08958963109032" /><path d="M 144.38136562736335 173.6633856474863 a86.0,86.0 0 0,1 -40.68145358897372,12.25698825130547" fill="none" id="id114" stroke="none" /><text fill="#e1ed5e" style="font-size:6.75px; font-family:Arial;" text-anchor="middle"><textPath startOffset="21.466115282336833" xlink:href="#id114">June</textPath></text><line stroke="#e1ed5e" stroke-width="0.3" x1="102.19456741930631" x2="102.32365962044197" y1="184.97166512339345" y2="189.96999836594603" /><path d="M 102.22038585953345 185.97133177190398 a86.0,86.0 0 0,1 -42.740103519485714,-10.115201625700543" fill="none" id="id115" stroke="none" /><text fill="#e1ed5e" style="font-size:6.75px; font-family:Arial;" text-anchor="middle"><textPath startOffset="22.20632615414155" xlink:href="#id115">July</textPath></text><line stroke="#e1ed5e" stroke-width="0.3" x1="58.666819895761336" x2="56.23545636021788" y1="174.27360380694188" y2="178.64263932499728" /><path d="M 58.180547188652646 175.14741091055294 a86.0,86.0 0 0,1 -31.652253787137756,-30.449443065178592" fill="none" id="id116" stroke="none" /><text fill="#e1ed5e" style="font-size:6.75px; font-family:Arial;" text-anchor="middle"><textPath startOffset="22.20632615414155" xlink:href="#id116">August</textPath></text><line stroke="#e1ed5e" stroke-width="0.3" x1="26.63291911575756" x2="22.317208475507996" y1="142.92168965132927" y2="145.44649492493687" /><path d="M 25.769776987707644 143.4266507060508 a86.0,86.0 0 0,1 -11.730757126820373,-40.83630448921669" fill="none" id="id117" stroke="none" /><text fill="#e1ed5e" style="font-size:6.75px; font-family:Arial;" text-anchor="middle"><textPath startOffset="21.46611528233685" xlink:href="#id117">September</textPath></text><line stroke="#e1ed5e" stroke-width="0.3" x1="15.007084014347285" x2="10.007500721073583" y1="101.09737516637583" y2="101.16192664675087" /><path d="M 14.007167355692545 101.11028546245083 a86.0,86.0 0 0,1 10.666146001902534,-42.60595125391555" fill="none" id="id118" stroke="none" /><text fill="#e1ed5e" style="font-size:6.75px; font-family:Arial;" text-anchor="middle"><textPath startOffset="22.20632615414155" xlink:href="#id118">October</textPath></text><line stroke="#e1ed5e" stroke-width="0.3" x1="26.266209847984243" x2="21.928928074336255" y1="57.711370442889674" y2="55.22380399835377" /><path d="M 25.398753493254645 57.213857153982495 a86.0,86.0 0 0,1 29.58750427330803,-30.492523968695096" fill="none" id="id119" stroke="none" /><text fill="#e1ed5e" style="font-size:6.75px; font-family:Arial;" text-anchor="middle"><textPath startOffset="21.46611528233685" xlink:href="#id119">November</textPath></text><line stroke="#e1ed5e" stroke-width="0.3" x1="56.762969772571076" x2="54.21961505331055" y1="26.818313649435495" y2="22.513508569990535" /><path d="M 56.25429882871897 25.957352633546506 a86.0,86.0 0 0,1 42.265352541879196,-11.944610805530505" fill="none" id="id120" stroke="none" /><text fill="#e1ed5e" style="font-size:6.75px; font-family:Arial;" text-anchor="middle"><textPath startOffset="22.20632615414155" xlink:href="#id120">December</textPath></text></svg>