<?xml version="1.0" encoding="utf-8" ?>
<svg baseProfile="full" height="200mm" version="1.1" viewBox="0,0,200,200" width="200mm" xmlns="http://www.w3.org/2000/svg" xmlns:ev="http://www.w3.org/2001/xml-events" xmlns:xlink="http://www.w3.org/1999/xlink"><defs /><rect fill="#1a1a1a" height="200" width="200" x="0" y="0" /><text alignment-baseline="middle" fill="#e1ed5e" style="dominant-baseline: central; font-size:9.0px; font-family:Arial;" text-anchor="middle" x="100.0" y="100.0">2023</text><line stroke="#e1ed5e" stroke-width="0.3" x1="100.0" x2="100.0" y1="15.0" y2="10.0" /><path d="M 100.0 14.0 a86.0,86.0 0 0,1 42.46469731375804,11.215312516191453" fill="none" id="id109" stroke="none" /><text fill="#e1ed5e" style="font-size:6.75px; font-family:Arial;" text-anchor="middle"><textPath startOffset="22.20632615414155" xlink:href="#id109">January</textPath></text><path d="M 102.52436894288641 79.15227682838746 l 3.2050536379298773 -26.4692176561683 a47.66255524423005,47.66255524423005 0 0,0 0.8136344788922663,0.10563310682611603 l -3.6602028453299895 26.410126226178047" fill="#ff0a01" stroke="none" /><path d="M 104.66035177308747 79.52364482259891 l 7.219080727712151 -31.71873460037853 a53.52988243450128,53.52988243450128 0 0,0 0.896692603816116,0.2122181683471877 l -7.76399701849079 31.58977051989047" fill="#ff940d" stroke="none" /><path d="M 109.41281617654863 81.2277094730956 l 11.84991027997321 -23.632667877614217 a47.43715878563795,47.43715878563795 0 0,0 0.7267813494221873,0.37228563551480565 l -12.254952116984153 23.425189716786914" fill="#ff0500" stroke="none" /><path d="M 109.73455568895987 81.39251694778311 l 13.438244557261337 -25.68703861177502 a49.989832173084146,49.989832173084146 0 0,0 0.7590240767431562,0.40544437512777504 l -13.878413680532804 25.45191551014549" fill="#ff4206" stroke="none" /><path d="M 110.05341064243156 81.56283822128135 l 15.101833849660851 -27.695571557214663 a52.545365261850435,52.545365261850435 0 0,0 0.7903721484347452,0.4398412448861672 l -15.576330087167632 27.431514914768314" fill="#ff7d0b" stroke="none" /><line stroke="#e1ed5e" stroke-width="0.3" x1="143.23703022742887" x2="145.7803849466894" y1="26.81831364943548" y2="22.513508569990506" /><path d="M 143.74570117128098 25.957352633546492 a86.0,86.0 0 0,1 28.547481713284135,27.462654790039103" fill="none" id="id110" stroke="none" /><text fill="#e1ed5e" style="font-size:6.75px; font-family:Arial;" text-anchor="middle"><textPath startOffset="19.985693538727396" xlink:href="#id110">February</textPath></text><path d="M 111.60114157652 82.49532879139004 l 19.589950784194382 -29.558784815126604 a56.46107628758774,56.46107628758774 0 0,0 0.8054987335483524,0.5438763405607155 l -20.095854212149277 29.21719656226722" fill="#ffd413" stroke="none" /><path d="M 111.90073688211348 82.69761687909136 l 15.339399784906185 -22.301826731597824 a48.06785291314018,48.06785291314018 0 0,0 0.6776854492692427,0.47476196523709463 l -15.721016373759078 22.034479923596795" fill="#ff1402" stroke="none" /><path d="M 113.89432698308785 84.25364557470407 l 26.090715182447664 -29.568445378630926 a60.43372136687946,60.43372136687946 0 0,0 0.7740955726845724,0.694990648279118 l -26.595821742728226 29.11495572158251" fill="#d9ff1c" stroke="none" /><path d="M 114.16331599549186 84.49514656593476 l 18.819975228616578 -20.60258753284315 a48.904445535688495,48.904445535688495 0 0,0 0.6166434107254578,0.573102846042641 l -19.171826523136883 20.27558010072587" fill="#ff2803" stroke="none" /><path d="M 114.42810811169701 84.74124197986012 l 20.806332974963166 -22.004187776638357 a51.283457061151395,51.283457061151395 0 0,0 0.6361999947577613,0.6120238908963711 l -21.182016213333345 21.642780798979683" fill="#ff6108" stroke="none" /><path d="M 114.94478906791727 85.2469230424477 l 20.63746645515428 -20.372728543583655 a49.999191195586235,49.999191195586235 0 0,0 0.5993611052319013,0.6176943042700265 l -20.985091824089288 20.014470043763513" fill="#ff4306" stroke="none" /><path d="M 115.19652480421416 85.50635884689758 l 18.992630283134094 -18.114165667729207 a47.24581877003958,47.24581877003958 0 0,0 0.5562243000102407,0.5933413016331562 l -19.301621905114796 17.784554949217995" fill="#ff0000" stroke="none" /><path d="M 115.4437574822437 85.77008943001954 l 34.96703053896907 -32.21869535567304 a68.54721395765333,68.54721395765333 0 0,0 0.7920674945179915,0.874620710494813 l -35.51644167410309 31.61202185790868" fill="#45ff2d" stroke="none" /><path d="M 116.15771136456269 86.58626213691792 l 26.735203858715742 -22.194914130190565 a55.747450821803056,55.747450821803056 0 0,0 0.6065893607465828,0.7436068323419487 l -27.113291711538732 21.731423128240515" fill="#ffc412" stroke="none" /><path d="M 117.04232023915458 87.72973835380427 l 44.89445607899273 -32.323458004695404 a76.32014211848985,76.32014211848985 0 0,0 0.758430976900142,1.0727468306804553 l -45.44419967569676 31.545884673683155" fill="#3dffac" stroke="none" /><path d="M 117.65298651832404 88.62581576622439 l 24.16286812838139 -15.568635563356631 a49.74415783240417,49.74415783240417 0 0,0 0.45758088291457544,0.7237830684841375 l -24.42727660754192 15.150404847158287" fill="#ff3c05" stroke="none" /><line stroke="#e1ed5e" stroke-width="0.3" x1="172.23445277983987" x2="176.4835382374775" y1="55.19839476539836" y2="52.563006222186495" /><path d="M 173.08426987136738 54.67131705675599 a86.0,86.0 0 0,1 12.851231095245387,41.99856678651699" fill="none" id="id111" stroke="none" /><text fill="#e1ed5e" style="font-size:6.75px; font-family:Arial;" text-anchor="middle"><textPath startOffset="22.20632615414155" xlink:href="#id111">March</textPath></text><path d="M 118.21658344932153 89.55222093294921 l 26.201697226249067 -15.027490998143426 a51.205205234119994,51.205205234119994 0 0,0 0.43193384920367006,0.7683621212592577 l -26.45648871674517 14.574245366949375" fill="#ff5f08" stroke="none" /><path d="M 118.3937258080291 89.86733742301442 l 53.481564460547936 -29.461711695815616 a82.05956266789914,82.05956266789914 0 0,0 0.6709029662739575,1.243081304003836 l -53.98077552604036 28.53674940847932" fill="#49f0ff" stroke="none" /><path d="M 118.73160827565052 90.50648371742162 l 24.139382068624585 -12.234273392198071 a48.06265345619457,48.06265345619457 0 0,0 0.3676563823156157,0.7411728320517342 l -24.346398463893607 11.816940971647387" fill="#ff1402" stroke="none" /><path d="M 118.89224826269711 90.83032412892265 l 29.970735053066452 -14.546808946883962 a54.31448048759352,54.31448048759352 0 0,0 0.40100072168300904,0.8446097877984545 l -30.216693968591215 14.028756743444967" fill="#ffa50f" stroke="none" /><path d="M 119.196687751892 91.48605970444005 l 30.374086792847894 -13.471238623495092 a54.22738958375459,54.22738958375459 0 0,0 0.37109426972218,0.8565367386555687 l -30.601471772412754 12.946402740252921" fill="#ffa30f" stroke="none" /><path d="M 119.34039704204932 91.81776055985345 l 27.501364140759765 -11.634856608223638 a50.86126115716803,50.86126115716803 0 0,0 0.33417861987174363,0.8092400348297856 l -27.697564447517706 11.159742002940549" fill="#ff5708" stroke="none" /><path d="M 119.47837535516314 92.15188598940014 l 58.435126065489385 -23.54434203179955 a84.0,84.0 0 0,0 0.5288258004731983,1.3458039804168624 l -58.83174541584429 22.534989046486903" fill="#4dd2ff" stroke="none" /><line stroke="#e1ed5e" stroke-width="0.3" x1="184.98032266829074" x2="189.97916517819016" y1="98.17113171792111" y2="98.06355123074" /><path d="M 185.9800911702706 98.14961562048488 a86.0,86.0 0 0,1 -9.607161424134198,41.387399972396054" fill="none" id="id112" stroke="none" /><text fill="#e1ed5e" style="font-size:6.75px; font-family:Arial;" text-anchor="middle"><textPath startOffset="21.466115282336823" xlink:href="#id112">April</textPath></text><line stroke="#e1ed5e" stroke-width="0.3" x1="174.80103733775053" x2="179.2010983576182" y1="140.37084112569926" y2="142.7455964860345" /><path d="M 175.68104954172406 140.8457921977663 a86.0,86.0 0 0,1 -30.038265399797805,32.042727171017184" fill="none" id="id113" stroke="none" /><text fill="#e1ed5e" style="font-size:6.75px; font-family:Arial;" text-anchor="middle"><textPath startOffset="22.206326154141568" xlink:href="#id113">May</textPath></text><line stroke="#e1ed5e" stroke-width="0.3" x1="143.8653032363475" x2="146.44561519142675" y1="172.8068346515853" y2="177.08958963109032" /><path d="M 144.38136562736335 173.6633856474863 a86.0,86.0 0 0,1 -40.68145358897372,12.25698825130547" fill="none" id="id114" stroke="none" /><text fill="#e1ed5e" style="font-size:6.75px; font-family:Arial;" text-anchor="middle"><textPath startOffset="21.466115282336833" xlink:href="#id114">June</textPath></text><line stroke="#e1ed5e" stroke-width="0.3" x1="102.19456741930631" x2="102.32365962044197" y1="184.97166512339345" y2="189.96999836594603" /><path d="M 102.22038585953345 185.97133177190398 a86.0,86.0 0 0,1 -42.740103519485714,-10.115201625700543" fill="none" id="id115" stroke="none" /><text fill="#e1ed5e" style="font-size:6.75px; font-family:Arial;" text-anchor="middle"><textPath startOffset="22.20632615414155" xlink:href="#id115">July</textPath></text><line stroke="#e1ed5e" stroke-width="0.3" x1="58.666819895761336" x2="56.23545636021788" y1="174.27360380694188" y2="178.64263932499728" /><path d="M 58.180547188652646 175.14741091055294 a86.0,86.0 0 0,1 -31.652253787137756,-30.449443065178592" fill="none" id="id116" stroke="none" /><text fill="#e1ed5e" style="font-size:6.75px; font-family:Arial;" text-anchor="middle"><textPath startOffset="22.20632615414155" xlink:href="#id116">August</textPath></text><line stroke="#e1ed5e" stroke-width="0.3" x1="26.63291911575756" x2="22.317208475507996" y1="142.92168965132927" y2="145.44649492493687" /><path d="M 25.769776987707644 143.4266507060508 a86.0,86.0 0 0,1 -11.730757126820373,-40.83630448921669" fill="none" id="id117" stroke="none" /><text fill="#e1ed5e" style="font-size:6.75px; font-family:Arial;" text-anchor="middle"><textPath startOffset="21.46611528233685" xlink:href="#id117">September</textPath></text><line stroke="#e1ed5e" stroke-width="0.3" x1="15.007084014347285" x2="10.007500721073583" y1="101.09737516637583" y2="101.16192664675087" /><path d="M 14.007167355692545 101.11028546245083 a86.0,86.0 0 0,1 10.666146001902534,-42.60595125391555" fill="none" id="id118" stroke="none" /><text fill="#e1ed5e" style="font-size:6.75px; font-family:Arial;" text-anchor="middle"><textPath startOffset="22.20632615414155" xlink:href="#id118">October</textPath></text><line stroke="#e1ed5e" stroke-width="0.3" x1="26.266209847984243" x2="21.928928074336255" y1="57.711370442889674" y2="55.22380399835377" /><path d="M 25.398753493254645 57.213857153982495 a86.0,86.0 0 0,1 29.58750427330803,-30.492523968695096" fill="none" id="id119" stroke="none" /><text fill="#e1ed5e" style="font-size:6.75px; font-family:Arial;" text-anchor="middle"><textPath startOffset="21.46611528233685" xlink:href="#id119">November</textPath></text><line stroke="#e1ed5e" stroke-width="0.3" x1="56.762969772571076" x2="54.21961505331055" y1="26.818313649435495" y2="22.513508569990535" /><path d="M 56.25429882871897 25.957352633546506 a86.0,86.0 0 0,1 42.265352541879196,-11.944610805530505" fill="none" id="id120" stroke="none" /><text fill="#e1ed5e" style="font-size:6.75px; font-family:Arial;" text-anchor="middle"><textPath startOffset="22.20632615414155" xlink:href="#id120">December</textPath></text></svg>