<?xml version="1.0" encoding="utf-8" ?>
<svg baseProfile="full" height="200mm" version="1.1" viewBox="0,0,200,200" width="200mm" xmlns="http://www.w3.org/2000/svg" xmlns:ev="http://www.w3.org/2001/xml-events" xmlns:xlink="http://www.w3.org/1999/xlink"><defs /><rect fill="#1a1a1a" height="200" width="200" x="0" y="0" /><text alignment-baseline="middle" fill="#e1ed5e" style="dominant-baseline: central; font-size:9.0px; font-family:Arial;" text-anchor="middle" x="100.0" y="100.0">2024</text><line stroke="#e1ed5e" stroke-width="0.3" x1="100.0" x2="100.0" y1="15.0" y2="10.0" /><path d="M 100.0 14.0 a86.0,86.0 0 0,1 42.35913384403234,11.155469271406648" fill="none" id="id121" stroke="none" /><text fill="#e1ed5e" style="font-size:6.75px; font-family:Arial;" text-anchor="middle"><textPath startOffset="22.145653131862478" xlink:href="#id121">January</textPath></text><path d="M 100.0 79.0 l 0.0 -5.281303088366201 a26.2813030883662,26.2813030883662 0 0,0 0.45115351519830343,0.0038726103249541437 l -0.09066059034944865 5.280524876235682" fill="#ff4406" stroke="none" /><path d="M 101.80034050326958 79.07731436759882 l 1.95723775661573 -22.74606954360408 a43.83012175434891,43.83012175434891 0 0,0 0.7490785635487556,0.07093851878211321 l -2.3474158835494987 22.709119269316783" fill="#daff1c" stroke="none" /><path d="M 102.15924093988457 79.11130261209362 l 1.3106000579692687 -12.678866680323383 a33.74642431466031,33.74642431466031 0 0,0 0.5757205848232728,0.06451069236767168 l -1.528056544393338 12.654500227448741" fill="#ffa80f" stroke="none" /><path d="M 102.51750503828377 79.15144685158666 l 0.4688231648367444 -3.882528344797085 a24.910731582203045,24.910731582203045 0 0,0 0.42410185778871795,0.05490847630573987 l -0.5354028445162541 3.873908272290948" fill="#ff3104" stroke="none" /><path d="M 104.64783097203109 79.52079915486377 l 3.8076437151326106 -16.777180766288836 a38.203835186554215,38.203835186554215 0 0,0 0.638309398608699,0.15063928004526836 l -4.095085267481195 16.709345342597338" fill="#ffe115" stroke="none" /><path d="M 105.3480935250658 79.69241777938227 l 0.9813296940578791 -3.726268688872418 a24.853321464673133,24.853321464673133 0 0,0 0.41164035495058754,0.11219440922513337 l -1.0451514499431593 3.7088737855031426" fill="#ff3004" stroke="none" /><path d="M 106.72888874123014 80.10723608172694 l 2.6558862238614176 -7.851655700791137 a29.288680768244294,29.288680768244294 0 0,0 0.4748869879049172,0.16519034562804927 l -2.790278983811353 7.804906922594498" fill="#ff6d0a" stroke="none" /><path d="M 109.06512990194946 81.05736502329252 l 1.3430700938977804 -2.806499941205117 a24.111314705571733,24.111314705571733 0 0,0 0.37181914972458124,0.1818753782254925 l -1.3910494928844288 2.7830308128824033" fill="#ff2603" stroke="none" /><line stroke="#e1ed5e" stroke-width="0.3" x1="143.13028292997686" x2="145.6673583964461" y1="26.7553504044142" y2="22.446841604673864" /><path d="M 143.63769802327073 25.89364864446614 a86.0,86.0 0 0,1 29.32050498858742,28.57503671076993" fill="none" id="id122" stroke="none" /><text fill="#e1ed5e" style="font-size:6.75px; font-family:Arial;" text-anchor="middle"><textPath startOffset="20.669276256404974" xlink:href="#id122">February</textPath></text><path d="M 114.65682725009322 84.96080404539774 l 3.4379449027407825 -3.5276343366273766 a25.925816599025364,25.925816599025364 0 0,0 0.31605802507520137,0.3133566906656319 l -3.497994847945946 3.4680976357330855" fill="#ff3f05" stroke="none" /><path d="M 114.91283532996326 85.21462403516908 l 3.917563884673144 -3.8840806338655307 a26.516646550293448,26.516646550293448 0 0,0 0.3177113457748869,0.3259998296069504 l -3.9836620315988425 3.8162581121908383" fill="#ff4706" stroke="none" /><path d="M 115.16444852881244 85.47280134310134 l 10.385820351853118 -9.949380960314215 a35.382470089467574,35.382470089467574 0 0,0 0.41640814621967537,0.4422110211066304 l -10.555084331809054 9.769628479263089" fill="#ffbd11" stroke="none" /><path d="M 115.41159269507618 85.73525988315684 l 1.9559150587962852 -1.8103657783055043 a23.665150646489945,23.665150646489945 0 0,0 0.2733914265124662,0.30050506886599715 l -1.986704186150629 1.7765231338818352" fill="#ff1f03" stroke="none" /><path d="M 117.01052211995028 87.68569379921539 l 5.204633083929868 -3.7677529829068894 a27.425275720040432,27.425275720040432 0 0,0 0.2727964769794909,0.3837224081104183 l -5.2685446594393195 3.677853348086967" fill="#ff5407" stroke="none" /><line stroke="#e1ed5e" stroke-width="0.3" x1="172.87174338648825" x2="177.1583165268699" y1="56.24261187166439" y2="53.66864786411523" /><path d="M 173.72905801456457 55.72781907015455 a86.0,86.0 0 0,1 12.242430191666344,42.057860355516425" fill="none" id="id123" stroke="none" /><text fill="#e1ed5e" style="font-size:6.75px; font-family:Arial;" text-anchor="middle"><textPath startOffset="22.145653131862474" xlink:href="#id123">March</textPath></text><path d="M 118.18653347947321 89.5 l 15.545711954855449 -8.975320981880179 a38.950641963760354,38.950641963760354 0 0,0 0.32934925827438616,0.5819285817344287 l -15.697494578151211 8.707135630046633" fill="#ffea16" stroke="none" /><path d="M 118.36410011445183 89.81374322990088 l 21.319185019488106 -11.825392553096455 a45.379244429021895,45.379244429021895 0 0,0 0.3720118075903922,0.6844598254032009 l -21.51904217669384 11.45767789421865" fill="#c8ff1d" stroke="none" /><path d="M 118.70294669586156 90.45014215332178 l 4.282678790107265 -2.1867663055232938 a25.80866764231077,25.80866764231077 0 0,0 0.19808777573700406,0.3963082452144109 l -4.319586479056006 2.112926204145132" fill="#ff3d05" stroke="none" /><path d="M 118.8641267826498 90.77261029715802 l 4.321763733018486 -2.113991208161769 a25.811091413829,25.811091413829 0 0,0 0.19127339041355304,0.399687820753902 l -4.357416381391951 2.0394908853427633" fill="#ff3e05" stroke="none" /><path d="M 119.31412917781788 91.75594674310238 l 20.573039975489426 -8.781407416960251 a43.36879724204523,43.36879724204523 0 0,0 0.2863872062385295,0.6872250393707344 l -20.720753026264436 8.426949868148238" fill="#dfff1b" stroke="none" /><path d="M 119.58574465831526 92.42381321644754 l 4.92527653630905 -1.905202771235116 a26.280922888912357,26.280922888912357 0 0,0 0.1591489044051619,0.4221613769619776 l -4.957256124528652 1.8203731140789807" fill="#ff4406" stroke="none" /><path d="M 119.71291397450082 92.76114493625339 l 2.691539489241829 -0.9883705821561849 a23.867274181137883,23.867274181137883 0 0,0 0.13792992076845131,0.38581453671279 l -2.708109580054223 0.9420210890624782" fill="#ff2203" stroke="none" /><path d="M 120.16314734710363 94.1308016681162 l 16.10858454952362 -4.68897419333962 a37.77715634948176,37.77715634948176 0 0,0 0.17590034823745732,0.6242082814641498 l -16.18670338983566 4.411757987972457" fill="#ffdb14" stroke="none" /><path d="M 120.35273937422433 94.82641323984039 l 15.475233525925638 -3.9337438468603354 a36.96737903773329,36.96737903773329 0 0,0 0.1510601063541762,0.61637678331272 l -15.540481158796105 3.667511238939521" fill="#ffd113" stroke="none" /><path d="M 120.51834098615036 95.52812308129327 l 15.354301048950923 -3.346398449563958 a36.7147365006563,36.7147365006563 0 0,0 0.1289251769542177,0.6169536431653756 l -15.409483936729506 3.082328355113178" fill="#ffce13" stroke="none" /><path d="M 120.592083275326 95.88100663000786 l 15.451611944637259 -3.090755136558401 a36.75769903894027,36.75769903894027 0 0,0 0.11845379910198502,0.6198003307126737 l -15.502392036021401 2.8250522408124126" fill="#ffcf13" stroke="none" /><path d="M 120.65975698304385 96.23510406497455 l 21.171380602361122 -3.858130801544527 a42.520049486278126,42.520049486278126 0 0,0 0.12469547656436508,0.719210372289865 l -21.23449089641772 3.4941273963340693" fill="#e9ff1a" stroke="none" /><path d="M 120.7213421655516 96.59031103205396 l 7.627452239505967 -1.2550943634247216 a28.730025195757456,28.730025195757456 0 0,0 0.07589994898526996,0.4873321194350602 l -7.647873680629502 1.1239740620582201" fill="#ff6609" stroke="none" /><path d="M 120.82617615685814 97.30363454192243 l 15.70635417402918 -2.0335019999933466 a36.837445874383306,36.837445874383306 0 0,0 0.07581131229587651,0.6278264192587295 l -15.73894757258472 1.763581903811204" fill="#ffd013" stroke="none" /><path d="M 120.86939407059847 97.66154086499901 l 17.69334565658036 -1.9825762856072138 a38.80407507430485,38.80407507430485 0 0,0 0.0684940107126808,0.6626174208875877 l -17.724772059774708 1.6785543424366947" fill="#ffe815" stroke="none" /><path d="M 120.9064616781168 98.02013634271609 l 16.158183174670096 -1.5301967462409651 a37.230477059790886,37.230477059790886 0 0,0 0.05479329386442871,0.6367811312400063 l -16.182070091232266 1.2525945676252968" fill="#ffd413" stroke="none" /><path d="M 120.93736805541906 98.37931529534042 l 21.24354243401496 -1.6443845379450026 a42.307090267195726,42.307090267195726 0 0,0 0.04983380132582896,0.7245725342615768 l -21.268640196505856 1.2794685795290917" fill="#ecff1a" stroke="none" /><path d="M 120.99303781780057 99.45929381324524 l 8.088009575459452 -0.20831843651872495 a29.090691902656868,29.090691902656868 0 0,0 0.008572844603891634,0.4993252196622084 l -8.09039385166201 0.06944630088745014" fill="#ff6b09" stroke="none" /><line stroke="#e1ed5e" stroke-width="0.3" x1="184.99686870605535" x2="189.99668451229388" y1="99.2704041080226" y2="99.22748670261217" /><path d="M 185.99683186730306 99.26182062694052 a86.0,86.0 0 0,1 -10.086455211305974,41.156179273409016" fill="none" id="id124" stroke="none" /><text fill="#e1ed5e" style="font-size:6.75px; font-family:Arial;" text-anchor="middle"><textPath startOffset="21.40746469413373" xlink:href="#id124">April</textPath></text><path d="M 120.99922638620191 99.81974689727618 l 16.1963277835015 -0.13902599467314572 a37.19692445798947,37.19692445798947 0 0,0 0.0,0.6385581947939432 l -16.1963277835015 -0.13902599467314375" fill="#ffd413" stroke="none" /><path d="M 120.99922638620191 100.18025310272382 l 16.17717594157024 0.13886159914411353 a37.17777191050226,37.17777191050226 0 0,0 -0.010956056403678539,0.6381353591685229 l -16.172408453567893 -0.41654387428170747" fill="#ffd413" stroke="none" /><path d="M 120.99303781780057 100.54070618675476 l 21.50108510603767 0.553791682731942 a42.50821577827733,42.50821577827733 0 0,0 -0.02505011787913333,0.7293068499747785 l -21.488410301161693 -0.9228047972708312" fill="#e9ff1a" stroke="none" /><path d="M 120.98066250479742 100.90099992219065 l 12.229582307236967 0.5251908849267758 a33.240854090915946,33.240854090915946 0 0,0 -0.029376067477780186,0.5698878611894398 l -12.218764650302614 -0.7350505394929462" fill="#ffa20e" stroke="none" /><path d="M 120.96210409425399 101.26102812881392 l 15.073464132754212 0.9067821715130714 a36.10071438270394,36.10071438270394 0 0,0 -0.04252327013997248,0.6182790152602544 l -15.055676901449175 -1.1654046109276692" fill="#ffc612" stroke="none" /><path d="M 120.9064616781168 101.97986365728391 l 20.773164493325197 1.9672402752955869 a41.86610642567251,41.86610642567251 0 0,0 -0.07389887625274415,0.7149045920889366 l -20.736333224590787 -2.323549389667455" fill="#f1ff19" stroke="none" /><path d="M 120.86939407059847 102.33845913500097 l 20.882460859782846 2.3399232959838048 a42.013148564445316,42.013148564445316 0 0,0 -0.08646288717229207,0.7160367392176761 l -20.839215886350893 -2.6980537121248895" fill="#efff19" stroke="none" /><path d="M 120.82617615685814 102.69636545807757 l 16.074922913667905 2.081220602342814 a37.20909084051236,37.20909084051236 0 0,0 -0.08745107937974225,0.6327524466853375 l -16.036827317732953 -2.3568613572282366" fill="#ffd413" stroke="none" /><path d="M 120.77682067341334 103.0534771498775 l 3.1319926337624553 0.4602950610733227 a24.165635702539188,24.165635702539188 0 0,0 -0.06384159096700397,0.4099088108754158 l -3.123629550657184 -0.5139920538801891" fill="#ff2603" stroke="none" /><path d="M 120.592083275326 104.11899336999214 l 11.378989304067664 2.2761165479952683 a32.604400205187005,32.604400205187005 0 0,0 -0.11449157658709763,0.5478836403865298 l -11.338240016656203 -2.4711166396672075" fill="#ff990e" stroke="none" /><path d="M 120.43855184770803 104.8234425847677 l 5.203611327983478 1.2280381047050446 a26.346554819631567,26.346554819631567 0 0,0 -0.10766014461174243,0.4392901291303521 l -5.18176365685544 -1.3171840584434962" fill="#ff4506" stroke="none" /><path d="M 120.35273937422433 105.17358676015961 l 5.177249764958804 1.3160366447748082 a26.341897376322024,26.341897376322024 0 0,0 -0.11516491784326849,0.43729995129508387 l -5.153895366310805 -1.4047171004426953" fill="#ff4506" stroke="none" /><path d="M 120.26092885502905 105.52220625578681 l 4.606785176894062 1.2555997854262162 a25.774829890918966,25.774829890918966 0 0,0 -0.12001436825025012,0.4258886540427031 l -4.584552316569233 -1.3344963633719278" fill="#ff3d05" stroke="none" /><path d="M 119.94978838288452 106.5578916946017 l 8.302664830122579 2.7292508415394945 a29.739739895294278,29.739739895294278 0 0,0 -0.16358921507392557,0.4836224464674763 l -8.25459019347629 -2.8713749624811316" fill="#ff730a" stroke="none" /><path d="M 119.83427380445688 106.89939002012753 l 9.579378798954645 3.3322052088278453 a31.14239073037522,31.14239073037522 0 0,0 -0.17997310683159118,0.5034168108423434 l -9.520765522079111 -3.49615697605111" fill="#ff860c" stroke="none" /><path d="M 119.0197475246899 108.90220220490707 l 5.629220850497756 2.634759594056548 a27.215310571657035,27.215310571657035 0 0,0 -0.20167937266727237,0.42143232144372805 l -5.583162219870571 -2.731004417565379" fill="#ff5107" stroke="none" /><path d="M 118.8641267826498 109.22738970284198 l 4.31664078251853 2.111485316357916 a25.805388422021394,25.805388422021394 0 0,0 -0.1980626069269698,0.39625789073441925 l -4.279758262379827 -2.185275063256081" fill="#ff3d05" stroke="none" /><path d="M 118.70294669586154 109.54985784667822 l 4.831441717443552 2.4669685663118672 a26.424828382190974,26.424828382190974 0 0,0 -0.20975265095395149,0.4022283651279098 l -4.788380997514652 -2.54954317454428" fill="#ff4606" stroke="none" /><line stroke="#e1ed5e" stroke-width="0.3" x1="174.33088141563837" x2="178.70328620479359" y1="141.23008692659167" y2="143.65538615756765" /><path d="M 175.20536237346943 141.71514677278685 a86.0,86.0 0 0,1 -30.301960400862466,31.631185727798858" fill="none" id="id125" stroke="none" /><text fill="#e1ed5e" style="font-size:6.75px; font-family:Arial;" text-anchor="middle"><textPath startOffset="22.145653131862474" xlink:href="#id125">May</textPath></text><path d="M 118.36410011445183 110.18625677009912 l 4.813604649121776 2.6700253559993667 a26.504527692702283,26.504527692702283 0 0,0 -0.22411046638527793,0.3959817202526505 l -4.7670608177151195 -2.75226384635114" fill="#ff4706" stroke="none" /><path d="M 118.18653347947321 110.5 l 5.005817205023153 2.8901099108341755 a26.780219821668354,26.780219821668354 0 0,0 -0.23327648828033848,0.39615447621158106 l -4.955467006613048 -2.975615555339306" fill="#ff4b07" stroke="none" /><path d="M 117.81537515405839 111.11811171558189 l 7.71816367858102 4.816704968352138 a30.097840255880264,30.097840255880264 0 0,0 -0.27730474332299665,0.4359691155973599 l -7.634341243632133 -4.948487758628169" fill="#ff780b" stroke="none" /><path d="M 117.423217284605 111.72311816256416 l 3.990784488598899 2.6851779069822754 a25.81004586533094,25.81004586533094 0 0,0 -0.25049296383913106,0.3654767203142119 l -3.9441017879444473 -2.7532893623665315" fill="#ff3e05" stroke="none" /><path d="M 117.21940702142032 112.02048342749411 l 3.9574292208467683 2.7625929455929517 a25.82629939198262,25.82629939198262 0 0,0 -0.25689161923000126,0.36135023386585635 l -3.9094225030868066 -2.830120406168312" fill="#ff3e05" stroke="none" /><path d="M 116.79662413953412 112.60449989151573 l 4.204465086885204 3.155108984476935 a26.256637648798296,26.256637648798296 0 0,0 -0.27362920146495395,0.3581894083329969 l -4.149683908065946 -3.226819306050809" fill="#ff4406" stroke="none" /><path d="M 116.35404254752997 113.17365903436017 l 4.107928918871155 3.30905675201205 a26.27493474751437,26.27493474751437 0 0,0 -0.28596285289723417,0.3488281836251425 l -4.050519246735294 -3.379087217335685" fill="#ff4406" stroke="none" /><path d="M 116.1254893667686 113.45245675266167 l 14.182711058296153 11.831721990429028 a39.4699468927747,39.4699468927747 0 0,0 -0.438502532769991,0.516554881004114 l -13.977513962019048 -12.073443653882698" fill="#fff016" stroke="none" /><path d="M 115.6541949942343 113.99807769240083 l 3.5946949902874867 3.214398426304357 a25.822259772785564,25.822259772785564 0 0,0 -0.29831140906361975,0.3278964950281239 l -3.538985880381987 -3.2756324968901525" fill="#ff3e05" stroke="none" /><path d="M 115.16444852881244 114.52719865689866 l 3.446336620208817 3.301512522871738 a25.772548694195926,25.772548694195926 0 0,0 -0.3087958771163441,0.31685177335336456 l -3.3891539419416654 -3.36018698829284" fill="#ff3d05" stroke="none" /><path d="M 114.65682725009322 115.03919595460226 l 7.394830517739317 7.587747560212746 a31.595160754967488,31.595160754967488 0 0,0 -0.39167093609650167,0.3752118968254323 l -7.263487095777504 -7.7135715873437585" fill="#ff8c0c" stroke="none" /><path d="M 114.39649973595853 115.28858382429668 l 9.943795578852816 10.559966313147715 a35.5048943136042,35.5048943136042 0 0,0 -0.44731133371541365,0.41402469251652646 l -9.761054473823435 -10.729108751796621" fill="#ffbf11" stroke="none" /><path d="M 113.86319453409587 115.77377054828091 l 3.1598320047132655 3.5953087790030183 a25.78652102412456,25.78652102412456 0 0,0 -0.3350043848051298,0.28936880869794623 l -3.0976481401452802 -3.6490217201656825" fill="#ff3d05" stroke="none" /><path d="M 113.31354834802062 116.24036423190432 l 3.3504320460612247 4.086982323564283 a26.284772408382494,26.284772408382494 0 0,0 -0.3514014097638523,0.2830641013051319 l -3.27977986594212 -4.1438947186628186" fill="#ff4406" stroke="none" /><path d="M 112.7482090630111 116.68781488649013 l 6.681687940530268 8.746543999218492 a32.00667913881806,32.00667913881806 0 0,0 -0.43947763164620546,0.3297922079098102 l -6.530557319973296 -8.859955234392316" fill="#ff910d" stroke="none" /><path d="M 112.45986205192187 116.90419585922612 l 9.362407381417174 12.701903715292639 a36.779512982604366,36.779512982604366 0 0,0 -0.5114436295294122,0.37024574637126006 l -9.142982741513794 -12.860750233036976" fill="#ffcf13" stroke="none" /><path d="M 111.8722381534696 117.32195027204791 l 1.3553814650275213 1.977542063540976 a23.397442706054527,23.397442706054527 0 0,0 -0.33325056963898114,0.2242258557534908 l -1.3212346072915369 -2.000517593351588" fill="#ff1c02" stroke="none" /><path d="M 111.5731344415666 117.5232005979908 l 2.659833892548309 4.027327522356985 a25.82639444184608,25.82639444184608 0 0,0 -0.3720407326502927,0.24115230803530882 l -2.590307527641006 -4.0723936720961875" fill="#ff3e05" stroke="none" /><path d="M 111.27062007382361 117.71928675628689 l 1.8243488347646395 2.868179384537244 a24.399220741992426,24.399220741992426 0 0,0 -0.3553408063085387,0.22175894402893173 l -1.7748438996663858 -2.8990741254077235" fill="#ff2a04" stroke="none" /><line stroke="#e1ed5e" stroke-width="0.3" x1="143.1302829299769" x2="145.66735839644613" y1="173.24464959558577" y2="177.55315839532614" /><path d="M 143.63769802327073 174.10635135553383 a86.0,86.0 0 0,1 -40.68552437913181,11.842963189579606" fill="none" id="id126" stroke="none" /><text fill="#e1ed5e" style="font-size:6.75px; font-family:Arial;" text-anchor="middle"><textPath startOffset="21.407464694133747" xlink:href="#id126">June</textPath></text><path d="M 110.34350942703117 118.27599006163325 l 5.464623924024011 9.65546686359928 a32.09460026251867,32.09460026251867 0 0,0 -0.48180996483647365,0.26725186563072856 l -5.298069771031443 -9.747851644663152" fill="#ff930d" stroke="none" /><path d="M 109.71004243097381 118.62028667847754 l 2.4308214654393225 4.661420675804168 a26.257160423047328,26.257160423047328 0 0,0 -0.4014504498542845,0.20498346014330077 l -2.3504437938714555 -4.7024620876203045" fill="#ff4406" stroke="none" /><path d="M 108.07796709384702 119.3841803445677 l 1.6833312940392438 4.039382310453509 a25.376095713703776,25.376095713703776 0 0,0 -0.40353495028551195,0.16411415124688555 l -1.6137418825632908 -4.067683718279686" fill="#ff3705" stroke="none" /><path d="M 106.0420521117495 120.11202640906438 l 5.55902340473334 18.50418093998048 a40.321165944991776,40.321165944991776 0 0,0 -0.6646079943313634,0.19345770104916576 l -5.240555398020369 -18.596882335332165" fill="#fffa17" stroke="none" /><path d="M 105.69591212413111 120.21278271476187 l 1.4249662929694937 5.05670267166311 a26.253643578099304,26.253643578099304 0 0,0 -0.43483359665211135,0.11851583038664916 l -1.3379512953826873 -5.0804189961939015" fill="#ff4406" stroke="none" /><path d="M 104.9986988182912 120.39639698878246 l 1.2566620681538372 5.127610075049913 a26.279354566165267,26.279354566165267 0 0,0 -0.43907526370173716,0.10362056669365076 l -1.1684546507122209 -5.148426785389789" fill="#ff4406" stroke="none" /><path d="M 104.29559338865022 120.5559693870025 l 1.0743520089015222 5.141163282398988 a26.2522178301474,26.2522178301474 0 0,0 -0.44191672693161604,0.08839572198608135 l -0.9859387964389474 -5.158848401047931" fill="#ff4406" stroke="none" /><path d="M 103.58742460773223 120.69131181640829 l 1.6255042473203456 9.375476537599692 a30.51534678112883,30.51534678112883 0 0,0 -0.5169045405802163,0.08505644544722502 l -1.4643222036870571 -9.401998981542588" fill="#ff7e0b" stroke="none" /><path d="M 103.2317021107853 120.74984581791261 l 0.8062482664508561 5.176692234096203 a26.239100948989908,26.239100948989908 0 0,0 -0.44565850285382164,0.0654964528261108 l -0.717264657989349 -5.189769760221196" fill="#ff4306" stroke="none" /><path d="M 101.80034050326958 120.92268563240118 l 0.40989859008939855 4.763642947559003 a25.781245756702525,25.781245756702525 0 0,0 -0.44126567039420356,0.03415675364765534 l -0.32806392491995917 -4.769977468201712" fill="#ff3d05" stroke="none" /><path d="M 101.08105385017728 120.97215588758144 l 0.27001065503269933 5.238134573707982 a26.245089090387893,26.245089090387893 0 0,0 -0.45013357148066313,0.019330672364930766 l -0.18005132295120668 -5.2419978144987445" fill="#ff4406" stroke="none" /><line stroke="#e1ed5e" stroke-width="0.3" x1="101.45913802915013" x2="101.54496967792366" y1="184.9874750549273" y2="189.98673829345242" /><path d="M 101.47630435890484 185.9873277026323 a86.0,86.0 0 0,1 -42.54439059252881,-10.42667462771756" fill="none" id="id127" stroke="none" /><text fill="#e1ed5e" style="font-size:6.75px; font-family:Arial;" text-anchor="middle"><textPath startOffset="22.145653131862474" xlink:href="#id127">July</textPath></text><path d="M 100.0 121.0 l 5.897824228414336e-16 4.815938956865466 a25.815938956865466,25.815938956865466 0 0,0 -0.44316492106094557,-0.003804037852179351 l 0.08267199621209284 -4.815229317207722" fill="#ff3e05" stroke="none" /><path d="M 99.27912038922189 120.98762331915562 l -0.11173247865067873 3.2529692050866688 a24.25488752432824,24.25488752432824 0 0,0 -0.4159993174184347,-0.017864800624846227 l 0.1675575566699522 -3.2505718360359936" fill="#ff2803" stroke="none" /><path d="M 98.19965949673042 120.92268563240118 l -0.4929865275447259 5.729250726790359 a26.750421689473605,26.750421689473605 0 0,0 -0.4571780011422397,-0.04329523203434599 l 0.5912640920719809 -5.719943739250829" fill="#ff4b06" stroke="none" /><path d="M 97.48249496171623 120.84855314841334 l -0.6334935412376335 5.2462352856593 a26.28434468399692,26.28434468399692 0 0,0 -0.4474874362664623,-0.05793620763527606 l 0.7234587993948898 -5.234587481823627" fill="#ff4406" stroke="none" /><path d="M 97.12497278360702 120.80226474461374 l -0.5449152759604831 3.942735487608971 a24.980213032392392,24.980213032392392 0 0,0 -0.42427689739171853,-0.062354093139203766 l 0.6125172789598865 -3.932800321170885" fill="#ff3204" stroke="none" /><path d="M 96.41257539226777 120.69131181640829 l -0.7837197530021007 4.520287269896366 a25.587724234697724,25.587724234697724 0 0,0 -0.4321465254057686,-0.07875149248710264 l 0.8612010119589265 -4.5061676034778975" fill="#ff3a05" stroke="none" /><path d="M 96.05791012581884 120.62667999033965 l -0.892818141711265 4.671601786469475 a25.756152592749054,25.756152592749054 0 0,0 -0.43356621241608173,-0.08672538521317573 l 0.9728808396583047 -4.655587004593437" fill="#ff3d05" stroke="none" /><path d="M 95.70440661134978 120.55596938700252 l -6.422051779038848 30.731842571614788 a52.39568277485252,52.39568277485252 0 0,0 -0.8788442228668757,-0.19154000793874554 l 6.948658418524861 -30.617071105542323" fill="#7bff26" stroke="none" /><path d="M 94.30408787586889 120.21278271476187 l -0.6517372633094008 2.3127856264805016 a23.402860548271754,23.402860548271754 0 0,0 -0.38574599335303655,-0.11228503674272658 l 0.6913432690440442 -2.3012568954352592" fill="#ff1c02" stroke="none" /><path d="M 91.59046798132341 119.24265499422711 l -6.479784154412872 14.827014231411265 a37.18109865572336,37.18109865572336 0 0,0 -0.5826572016524247,-0.2606151551987197 l 6.733354758920932 -14.713595325302691" fill="#ffd413" stroke="none" /><path d="M 91.26138138417905 119.09545874513695 l -5.552828439946832 12.133932267264479 a34.34414538102926,34.34414538102926 0 0,0 -0.5339881466354472,-0.24993341526755164 l 5.760305300453769 -12.0368226204264" fill="#ffb010" stroke="none" /><path d="M 90.6110303473126 118.78422872680471 l -7.300061663492342 14.605013444427223 a37.32780811997405,37.32780811997405 0 0,0 -0.5707115743058271,-0.29140939632151813 l 7.549700459511752 -14.477546096432869" fill="#ffd614" stroke="none" /><path d="M 90.28995756902619 118.62028667847754 l -9.94509867756782 19.071038024649404 a42.50835835307252,42.50835835307252 0 0,0 -0.6441254785952573,-0.3429605368401109 l 10.27101297194964 -18.897507020086717" fill="#e9ff1a" stroke="none" /><path d="M 89.97174638481275 118.45085714620012 l -7.798158287731496 14.347732924553057 a37.32999426683363,37.32999426683363 0 0,0 -0.5604046499389843,-0.3108470125875468 l 8.043307125826583 -14.211752996532361" fill="#ffd614" stroke="none" /><line stroke="#e1ed5e" stroke-width="0.3" x1="58.13341422392154" x2="55.67067388415222" y1="173.97424548756322" y2="178.32567169271397" /><path d="M 57.64086615596768 174.84453072859336 a86.0,86.0 0 0,1 -31.369924170532247,-30.572349798747897" fill="none" id="id128" stroke="none" /><text fill="#e1ed5e" style="font-size:6.75px; font-family:Arial;" text-anchor="middle"><textPath startOffset="22.145653131862474" xlink:href="#id128">August</textPath></text><path d="M 89.65649057296885 118.27599006163327 l -10.161619029893567 17.954607158292387 a41.63071543881354,41.63071543881354 0 0,0 -0.6189249013503777,-0.35733645840280587 l 10.468336399104343 -17.77752380261341" fill="#f4ff19" stroke="none" /><path d="M 89.34428304082925 118.09573695890944 l -8.290426240573511 14.078956216788784 a37.338548754545045,37.338548754545045 0 0,0 -0.5495296351292069,-0.32997675662621756 l 8.530888632260146 -13.934565459626649" fill="#ffd614" stroke="none" /><path d="M 89.03521579738668 117.91015095944536 l -2.7486320737958208 4.489683924825762 a26.264241637875106,26.264241637875106 0 0,0 -0.38250224871414473,-0.2387096929416227 l 2.825298451299678 -4.441838435042592" fill="#ff4406" stroke="none" /><path d="M 88.72937992617639 117.7192867562869 l -13.012319508505541 20.457527556193664 a45.24522412154313,45.24522412154313 0 0,0 -0.6517776365961198,-0.4224743894876033 l 13.361582777358672 -20.231139325002164" fill="#caff1d" stroke="none" /><path d="M 88.4268655584334 117.5232005979908 l -10.35008141717956 15.671342434886947 a39.780712421357556,39.780712421357556 0 0,0 -0.566598035589219,-0.38123244481133983 l 10.617575740865785 -15.491360316018486" fill="#fff417" stroke="none" /><path d="M 88.1277618465304 117.32195027204791 l -12.228041684919809 17.841078257751146 a42.62935682925725,42.62935682925725 0 0,0 -0.600068911373029,-0.41889470383858385 l 12.532505687466603 -17.62853873810743" fill="#e8ff1a" stroke="none" /><path d="M 87.83215693770417 117.11559508785305 l -10.81973505040982 15.219312340943755 a39.67335360057935,39.67335360057935 0 0,0 -0.5516844111199066,-0.3993769689621949 l 11.07940047190368 -15.031334600608494" fill="#fff316" stroke="none" /><path d="M 87.54013794807813 116.9041958592261 l -12.534717848742613 17.005752124085483 a42.1261628520994,42.1261628520994 0 0,0 -0.5784263403362461,-0.4340619093129423 l 12.824797177989625 -16.788071187508525" fill="#eeff19" stroke="none" /><path d="M 87.2517909369889 116.68781488649013 l -11.394338143510168 14.915554393023024 a39.769781687059634,39.769781687059634 0 0,0 -0.5389563986745326,-0.4190957554579493 l 11.648704486819929 -14.717757585944282" fill="#fff417" stroke="none" /><path d="M 86.96720088162412 116.46651593811092 l -13.264910397917332 16.759780957334275 a42.374005371071654,42.374005371071654 0 0,0 -0.5664985411852553,-0.45633112445119234 l 13.550659709457848 -16.529601539089672" fill="#ebff1a" stroke="none" /><path d="M 86.40962598614128 116.0094264158162 l -11.548485982905499 13.604087449607722 a38.84485146572924,38.84485146572924 0 0,0 -0.5046510754959325,-0.4359055795921632 l 11.780316538164293 -13.403837737550836" fill="#ffe815" stroke="none" /><path d="M 86.13680546590413 115.77377054828092 l -14.194113699952137 16.150295813031946 a42.501277138244745,42.501277138244745 0 0,0 -0.5438847415104133,-0.48634508961835343 l 14.469263468285922 -15.904255193530211" fill="#eaff1a" stroke="none" /><path d="M 85.86807049272751 115.53346607816431 l -13.34155122867894 14.664701896094705 a40.825500520511156,40.825500520511156 0 0,0 -0.5143434289968278,-0.47606859917793226 l 13.591324428989735 -14.433515550784396" fill="#feff18" stroke="none" /><path d="M 85.60350026404147 115.28858382429668 l -14.848349261474349 15.768432362032748 a42.659107436520266,42.659107436520266 0 0,0 -0.5288256854358953,-0.5066030441266225 l 15.116847432775558 -15.511217187600543" fill="#e8ff1a" stroke="none" /><path d="M 85.34317274990678 115.03919595460226 l -13.071799770676515 13.412818127421053 a39.729005295635254,39.729005295635254 0 0,0 -0.48433077908962535,-0.48019122465541314 l 13.300122469896102 -13.18644689253698" fill="#fff316" stroke="none" /><path d="M 85.08716467003676 114.78537596483092 l -3.7293450528015546 3.6974705002921207 a26.251600006034913,26.251600006034913 0 0,0 -0.3145356691632321,-0.32274130564155545 l 3.7922675231155965 -3.632906502582828" fill="#ff4406" stroke="none" /><path d="M 84.83555147118756 114.52719865689866 l -18.354963297774418 17.583639633200324 a46.41828201143616,46.41828201143616 0 0,0 -0.546286076529137,-0.5801368823145938 l 18.654105208039805 -17.26596129094124" fill="#bcff1f" stroke="none" /><path d="M 84.58840730492382 114.26474011684316 l -11.237957794891 10.401685961982881 a36.312960727810385,36.312960727810385 0 0,0 -0.4195051315145392,-0.4611096260169945 l 11.41486062724742 -10.207238760408211" fill="#ffc912" stroke="none" /><path d="M 84.3458050057657 113.99807769240083 l -13.226378875693834 11.82710954854484 a38.743100586895196,38.743100586895196 0 0,0 -0.43906806131525794,-0.49957885516443 l 13.427458000967684 -11.598318415569109" fill="#ffe715" stroke="none" /><path d="M 84.1078160697243 113.72728997021213 l -16.01071414445371 13.829673546150547 a42.156626333338366,42.156626333338366 0 0,0 -0.46835095751271794,-0.551716250298249 l 16.245759665473543 -13.552790513402744" fill="#eeff19" stroke="none" /><path d="M 83.8745106332314 113.45245675266167 l -15.146649463270032 12.635873691515629 a40.72527043949246,40.72527043949246 0 0,0 -0.44323286172919063,-0.5406720226543914 l 15.361329144237853 -12.373999387162742" fill="#ffff18" stroke="none" /><path d="M 83.64595745247003 113.17365903436017 l -11.96311745932085 9.636640600577186 a36.36167378283369,36.36167378283369 0 0,0 -0.38739652682288245,-0.48946285639464365 l 12.126780416785294 -9.429857800267861" fill="#ffca12" stroke="none" /><path d="M 83.4222238831116 112.89097897827486 l -8.266652963970806 6.428199345187147 a31.471833557127987,31.471833557127987 0 0,0 -0.32797850204820006,-0.4293343874324456 l 8.375783443373301 -6.28534404451383" fill="#ff8a0c" stroke="none" /><path d="M 83.20337586046588 112.60449989151573 l -20.15746945966099 15.126540875527132 a46.201900997269206,46.201900997269206 0 0,0 -0.470594919747795,-0.6384523890091134 l 20.414166398992617 -14.778282177249139" fill="#bfff1e" stroke="none" /><path d="M 82.98947788004972 112.3143062007846 l -15.339843548861342 11.104863754373758 a39.93749717113502,39.93749717113502 0 0,0 -0.3972542934072626,-0.5587879131954395 l 15.528212940798566 -10.839898614468815" fill="#fff617" stroke="none" /><path d="M 82.78059297857968 112.02048342749411 l -17.643728583981023 12.31669283263474 a42.517483139964696,42.517483139964696 0 0,0 -0.4126428299383898,-0.6020582208604877 l 17.85256115073474 -12.011999876704202" fill="#e9ff1a" stroke="none" /><path d="M 82.576782715395 111.72311816256416 l -13.610920817252717 9.158034961943908 a37.40508365896713,37.40508365896713 0 0,0 -0.3538798087220215,-0.5358191341441948 l 13.766125064895466 -8.923035949460653" fill="#ffd714" stroke="none" /><path d="M 82.37810715431573 111.42229804090323 l -15.34437465988035 9.946038269059203 a39.285882832184186,39.285882832184186 0 0,0 -0.361958252232658,-0.5690584921774455 l 15.512850603738897 -9.681166102203086" fill="#ffee16" stroke="none" /><path d="M 82.18462484594161 111.11811171558189 l -13.901588735352506 8.675619527917435 a37.38659646052413,37.38659646052413 0 0,0 -0.33511215018327717,-0.5473805126685799 l 14.048468849991187 -8.435701899124298" fill="#ffd614" stroke="none" /><path d="M 81.99639281039703 110.81064883170644 l -6.134552389588379 3.6836224499412724 a28.15554382100451,28.15554382100451 0 0,0 -0.2452566271645254,-0.41649937114545527 l 6.1968827268826745 -3.5777719105022583" fill="#ff5e08" stroke="none" /><line stroke="#e1ed5e" stroke-width="0.3" x1="26.387840678322732" x2="22.057713659400548" y1="142.50000000000003" y2="145.00000000000006" /><path d="M 25.521815274538298 143.00000000000003 a86.0,86.0 0 0,1 -11.493303480769221,-40.785679425670985" fill="none" id="id129" stroke="none" /><text fill="#e1ed5e" style="font-size:6.75px; font-family:Arial;" text-anchor="middle"><textPath startOffset="21.40746469413373" xlink:href="#id129">September</textPath></text><path d="M 81.81346652052679 110.50000000000001 l -21.422016591625678 12.368007045759729 a45.736014091519436,45.736014091519436 0 0,0 -0.386723339026949,-0.6833030849459714 l 21.631173295674007 -11.998447190714636" fill="#c4ff1e" stroke="none" /><path d="M 81.63589988554817 110.18625677009913 l -16.435095207663338 9.116270265513185 a39.79411445210543,39.79411445210543 0 0,0 -0.32622580289856046,-0.6002187337554038 l 16.58916636017723 -8.832796698283193" fill="#fff417" stroke="none" /><path d="M 81.4637452351635 109.86951160357371 l -19.41755256722978 10.338753044052012 a42.998435449072886,42.998435449072886 0 0,0 -0.34130915409818835,-0.6545053062821271 l 19.59216979030292 -10.003901494665383" fill="#e4ff1a" stroke="none" /><path d="M 81.29705330413844 109.54985784667822 l -14.611273240894505 7.460620226244419 a37.40579653294308,37.40579653294308 0 0,0 -0.2870985491220892,-0.5743894179378327 l 14.737191703228332 -7.208698952142834" fill="#ffd714" stroke="none" /><path d="M 81.1358732173502 109.22738970284198 l -19.45389222853939 9.515873535949941 a42.65654109020685,42.65654109020685 0 0,0 -0.3161067893962617,-0.6605416127467342 l 19.614378275895564 -9.180519421138102" fill="#e8ff1a" stroke="none" /><path d="M 80.9802524753101 108.90220220490708 l -14.830358378298662 6.941356549737115 a37.37443007800124,37.37443007800124 0 0,0 -0.26698786328041163,-0.5834166649055015 l 14.94733070643413 -6.685750902616925" fill="#ffd614" stroke="none" /><path d="M 80.83023694016515 108.57439118712176 l -7.837127600879206 3.505447491634587 a29.585378917035047,29.585378917035047 0 0,0 -0.20338696682425664,-0.465389182683361 l 7.896148449720431 -3.370396239175377" fill="#ff710a" stroke="none" /><path d="M 80.68587082218212 108.24405325689762 l -26.300796349692657 11.2262460196604 a49.59651182088381,49.59651182088381 0 0,0 -0.3275121138427274,-0.785909846623873 l 26.48963430807187 -10.773103663595245" fill="#99ff23" stroke="none" /><path d="M 80.5471966667186 107.91128576633889 l -16.609443939591447 6.754916254218263 a38.93049139270681,38.93049139270681 0 0,0 -0.24645100523649197,-0.6212175269081954 l 16.722953619794062 -6.468797710096503" fill="#ffe915" stroke="none" /><path d="M 80.41425534168474 107.57618678355246 l -20.5331183651361 7.942651285255944 a43.01578204915436,43.01578204915436 0 0,0 -0.26048988516086763,-0.690980368449289 l 20.666438934111405 -7.58900263661251" fill="#e4ff1b" stroke="none" /><path d="M 80.28708602549918 107.23885506374661 l -18.10030416382898 6.646682404294571 a40.28210045110967,40.28210045110967 0 0,0 -0.23279185052473653,-0.6511602374620975 l 18.211736184397658 -6.334987210451552" fill="#fffa17" stroke="none" /><path d="M 80.16572619554312 106.89939002012753 l -20.47771092119235 7.12321084994721 a42.68125405470648,42.68125405470648 0 0,0 -0.23477652709010033,-0.6940750852869124 l 20.596972869854817 -6.770634090186136" fill="#e7ff1a" stroke="none" /><path d="M 80.05021161711548 106.5578916946017 l -15.515677702774124 5.100311441420269 a37.3324655632836,37.3324655632836 0 0,0 -0.19490264156030682,-0.6105297487181586 l 15.600945060111686 -4.8332126590107185" fill="#ffd614" stroke="none" /><path d="M 79.94057633289273 106.21446072829308 l -20.7013579098058 6.413333597603784 a42.67203421795085,42.67203421795085 0 0,0 -0.2107666867627095,-0.7015737520832552 l 20.80840091657214 -6.057022241929805" fill="#e8ff1a" stroke="none" /><path d="M 79.83685265289637 105.86919833188381 l -4.578620279133641 1.332769633728869 a25.76865164979406,25.76865164979406 0 0,0 -0.11998560073913583,-0.4257865682944065 l 4.600824371947351 -1.2539751415314668" fill="#ff3d05" stroke="none" /><path d="M 79.73907114497094 105.5222062557868 l -4.7298528728708105 1.2891424332224133 a25.902386807682444,25.902386807682444 0 0,0 -0.11324340862904618,-0.4300036678302297 l 4.751285762304589 -1.2077582610193809" fill="#ff3f05" stroke="none" /><path d="M 79.64726062577567 105.17358676015961 l -6.957887997939909 1.7686679204669586 a28.17916371207435,28.17916371207435 0 0,0 -0.11514874946835255,-0.46984619243798265 l 6.9872242739245545 -1.6489659034208763" fill="#ff5e08" stroke="none" /><path d="M 79.56144815229197 104.8234425847677 l -15.909451892692314 3.7545873274838035 a37.346485418143956,37.346485418143956 0 0,0 -0.1418973283506134,-0.625225810526963 l 15.971560082600593 -3.480927183017814" fill="#ffd614" stroke="none" /><path d="M 79.48165901384964 104.47187691870673 l -16.002114242244133 3.4875863199028405 a37.37775682322234,37.37775682322234 0 0,0 -0.1312533977330742,-0.6280950224176054 l 16.059625350801575 -3.2123748461998263" fill="#ffd614" stroke="none" /><path d="M 79.407916724674 104.11899336999214 l -12.141114792257376 2.4285629902023556 a33.38162293870038,33.38162293870038 0 0,0 -0.10757419970956457,-0.5628736694104226 l 12.181015284249098 -2.2197867557586184" fill="#ffa30f" stroke="none" /><path d="M 79.34024301695615 103.76489593502545 l -11.263730303069718 2.0526268758173134 a32.44923130308837,32.44923130308837 0 0,0 -0.09516151581130478,-0.5488663350108659 l 11.297306636373257 -1.8589675078858547" fill="#ff970e" stroke="none" /><path d="M 79.2786578344484 103.40968896794605 l -12.461926661753397 2.0506052898722613 a33.62951298260437,33.62951298260437 0 0,0 -0.08884358097103098,-0.5704395219187337 l 12.495291734862697 -1.8363775860220775" fill="#ffa70f" stroke="none" /><path d="M 79.22317932658666 103.0534771498775 l -18.686349205135464 2.7462498333792844 a39.88707321856943,39.88707321856943 0 0,0 -0.09374503723333946,-0.6782923903823992 l 18.730738758924016 -2.4250691347967996" fill="#fff517" stroke="none" /><path d="M 79.17382384314188 102.69636545807758 l -21.5126315068059 2.7852408464432092 a42.69218478900439,42.69218478900439 0 0,0 -0.08786034093322813,-0.7276096610447308 l 21.55727393399879 -2.4155375084750794" fill="#e7ff1a" stroke="none" /><path d="M 79.13060592940153 102.33845913500099 l -3.3620218846627656 0.37672156468304235 a24.383062265204206,24.383062265204206 0 0,0 -0.04303913248293752,-0.41636456481885387 l 3.367993409627369 -0.31895247758125705" fill="#ff2904" stroke="none" /><path d="M 79.06263194458094 101.62068470465958 l -22.071231994806276 1.708452944624879 a43.13725577465639,43.13725577465639 0 0,0 -0.050811658765446556,-0.7387903668233903 l 22.09730761473679 -1.3293191536471454" fill="#e2ff1b" stroke="none" /><path d="M 79.03789590574601 101.26102812881392 l -3.1022370705171456 0.18662287862809268 a24.10784538555544,24.10784538555544 0 0,0 -0.021304918665838474,-0.41330973046250385 l 3.104983578639557 -0.13334135478885803" fill="#ff2603" stroke="none" /><path d="M 79.01933749520258 100.90099992219065 l -5.324728238721508 0.22866674146621538 a26.329635943935667,26.329635943935667 0 0,0 -0.015516070765011516,-0.4517334708051141 l 5.327868996483367 -0.13722700609698135" fill="#ff4506" stroke="none" /><path d="M 79.00696218219943 100.54070618675478 l -2.668352851579117 0.06872730415748468 a23.66923779061873,23.66923779061873 0 0,0 -0.0069751760511753795,-0.40626903610906545 l 2.6691394592289583 -0.022911352079366863" fill="#ff1f03" stroke="none" /><line stroke="#e1ed5e" stroke-width="0.3" x1="15.003131293944662" x2="10.003315487706104" y1="100.72959589197737" y2="100.7725132973878" /><path d="M 14.003168132696942 100.73817937305945 a86.0,86.0 0 0,1 10.791469493833604,-42.45332614584628" fill="none" id="id130" stroke="none" /><text fill="#e1ed5e" style="font-size:6.75px; font-family:Arial;" text-anchor="middle"><textPath startOffset="22.145653131862435" xlink:href="#id130">October</textPath></text><path d="M 79.00077361379809 100.18025310272382 l -11.635670675269946 0.09987823850825853 a32.63609933465096,32.63609933465096 0 0,0 0.0,-0.5602626824641479 l 11.635670675269946 0.09987823850825424" fill="#ff9a0e" stroke="none" /><path d="M 79.00077361379809 99.81974689727619 l -62.99767915860572 -0.540759308171441 a84.0,84.0 0 0,0 0.024754273605335886,-1.4418123361237905 l 62.97911345340172 1.6221185602642838" fill="#4dd2ff" stroke="none" /><path d="M 79.00696218219943 99.45929381324524 l -10.164778171579425 -0.26180862874940386 a31.168149243372916,31.168149243372916 0 0,0 0.01836740964836277,-0.5347470913103451 l 10.158786074934211 0.4362619846238875" fill="#ff860c" stroke="none" /><path d="M 79.01933749520258 99.09900007780938 l -7.183568531717198 -0.3084933417449629 a28.190189496235725,28.190189496235725 0 0,0 0.024912624284201004,-0.4832982556523999 l 7.177214317976426 0.43176339077407483" fill="#ff5e08" stroke="none" /><path d="M 79.03789590574601 98.7389718711861 l -0.48378465371645485 -0.029103283424309227 a21.484659253783136,21.484659253783136 0 0,0 0.025306922174140573,-0.3679570943060351 l 0.48321377037725055 0.037403801884669345" fill="#ff0000" stroke="none" /><path d="M 79.17382384314186 97.30363454192245 l -1.4592399933445894 -0.1889278321408984 a22.471419411294338,22.471419411294338 0 0,0 0.052813703273100865,-0.3821336477672941 l 1.4557817735162806 0.21394978810825946" fill="#ff0e01" stroke="none" /><path d="M 79.22317932658666 96.9465228501225 l -5.321331186731193 -0.7820524343460461 a26.378491573754168,26.378491573754168 0 0,0 0.06968758819786497,-0.4474443067329952 l 5.30712210639506 0.8732849230104913" fill="#ff4506" stroke="none" /><path d="M 79.407916724674 95.88100663000787 l -9.883258616227568 -1.9769285200462303 a31.079039996379052,31.079039996379052 0 0,0 0.10913521689114543,-0.5222515202173784 l 9.847865688512055 2.146296491549018" fill="#ff850c" stroke="none" /><path d="M 79.56144815229197 95.17655741523228 l -2.3351957467073263 -0.5510998378145692 a23.39934370332373,23.39934370332373 0 0,0 0.09561693147988058,-0.3901497097957867 l 2.3253912887111476 0.5911053722184736" fill="#ff1c02" stroke="none" /><path d="M 79.64726062577567 94.8264132398404 l -5.3017502730875155 -1.3476841870856737 a26.47035726678837,26.47035726678837 0 0,0 0.11572653542610688,-0.4394325047342837 l 5.277834256856683 1.438497196192742" fill="#ff4706" stroke="none" /><path d="M 79.73907114497095 94.47779374421319 l -2.3907871594349905 -0.6516196716622722 a23.477997465336976,23.477997465336976 0 0,0 0.10931971405856143,-0.38793709919509867 l 2.3792489533018473 0.692564694760384" fill="#ff1d02" stroke="none" /><path d="M 79.83685265289637 94.1308016681162 l -5.120397821232044 -1.4904731802832112 a26.332915164225042,26.332915164225042 0 0,0 0.13006413646979267,-0.4329412092401198 l 5.094057364758622 1.5781519931140544" fill="#ff4506" stroke="none" /><path d="M 80.05021161711548 93.44210830539832 l -10.757959729776502 -3.5363550434092375 a32.324288257570046,32.324288257570046 0 0,0 0.17780602528793127,-0.5256519197035566 l 10.695668282916206 3.720508637586956" fill="#ff960d" stroke="none" /><path d="M 80.28708602549916 92.7611449362534 l -1.8828552698974248 -0.6914105353693188 a23.005789743667115,23.005789743667115 0 0,0 0.13931574047671474,-0.36955155332014905 l 1.8707088456062742 0.7236303688836128" fill="#ff1602" stroke="none" /><path d="M 80.5471966667186 92.08871423366112 l -4.913372929846117 -1.9982259964610118 a26.304162580528356,26.304162580528356 0 0,0 0.173700358620473,-0.41681762729387767 l 4.878346726689166 2.0822761331961535" fill="#ff4406" stroke="none" /><path d="M 80.68587082218212 91.75594674310238 l -5.033078891161962 -2.148322093266349 a26.472400838852764,26.472400838852764 0 0,0 0.181986559180747,-0.41642086196048705 l 4.995458449964238 2.234405025002703" fill="#ff4706" stroke="none" /><path d="M 80.83023694016515 91.42560881287825 l -4.907868299805502 -2.1952270649384333 a26.376448001689774,26.376448001689774 0 0,0 0.18842271248554876,-0.41173763166646293 l 4.869461122464907 2.2791536788195677" fill="#ff4506" stroke="none" /><path d="M 80.9802524753101 91.09779779509293 l -9.11324282695432 -4.26545779762074 a31.06207359575142,31.06207359575142 0 0,0 0.23018585439404185,-0.48099990444154883 l 9.038677714600373 4.421270204127375" fill="#ff850c" stroke="none" /><line stroke="#e1ed5e" stroke-width="0.3" x1="26.387840678322718" x2="22.05771365940052" y1="57.49999999999999" y2="54.99999999999999" /><path d="M 25.521815274538284 56.99999999999999 a86.0,86.0 0 0,1 29.574782752854787,-30.34633250058573" fill="none" id="id131" stroke="none" /><text fill="#e1ed5e" style="font-size:6.75px; font-family:Arial;" text-anchor="middle"><textPath startOffset="21.40746469413373" xlink:href="#id131">November</textPath></text><path d="M 81.81346652052679 89.5 l -2.9272660807635074 -1.6900578597184723 a24.380115719436944,24.380115719436944 0 0,0 0.21236971976967833,-0.3606502126243137 l 2.89782265086405 1.7400592406363589" fill="#ff2904" stroke="none" /><path d="M 81.99639281039701 89.18935116829357 l -4.17510063804031 -2.507027972758306 a25.869974804242545,25.869974804242545 0 0,0 0.23188371509001285,-0.3787646218618011 l 4.131448958494904 2.57832971074465" fill="#ff3e05" stroke="none" /><path d="M 82.576782715395 88.27688183743585 l -4.3823672291732985 -2.9486522506231925 a26.28201596234215,26.28201596234215 0 0,0 0.25507355191948045,-0.3721599352159738 l 4.331103940438505 3.0234469209092008" fill="#ff4406" stroke="none" /><path d="M 82.98947788004972 87.6856937992154 l -4.35374767842016 -3.1517775677292152 a26.374832154010953,26.374832154010953 0 0,0 0.268643968169462,-0.36446713738984254 l 4.29900169066688 3.226051014387921" fill="#ff4506" stroke="none" /><path d="M 83.42222388311158 87.10902102172516 l -11.333557802975825 -8.813043098005524 a35.35685415126507,35.35685415126507 0 0,0 0.3766911990737263,-0.47593702449904696 l 11.180600173260537 9.006300066419255" fill="#ffbd11" stroke="none" /><path d="M 84.34580500576568 86.00192230759919 l -2.3081677248216255 -2.063977812403985 a24.096391877008493,24.096391877008493 0 0,0 0.2783733367036975,-0.3059810608683736 l 2.2723966872760624 2.1032964488300165" fill="#ff2503" stroke="none" /><path d="M 85.08716467003674 85.21462403516908 l -3.806731780698552 -3.774195807138781 a26.360574674491936,26.360574674491936 0 0,0 0.321358100318431,-0.31861146639265875 l 3.7413817602501447 3.8389872837601127" fill="#ff4506" stroke="none" /><path d="M 85.34317274990677 84.96080404539775 l -7.519913638603753 -7.7160938614411565 a31.774377272521537,31.774377272521537 0 0,0 0.3938926023111251,-0.37734020280291936 l 7.386348550427328 7.844046194549644" fill="#ff8e0d" stroke="none" /><path d="M 85.86807049272753 84.46653392183569 l -0.6538690547280205 -0.7187166321451163 a21.971647229221045,21.971647229221045 0 0,0 0.2811690489900292,-0.25142309738127644 l 0.6414349789145994 0.7298352594097937" fill="#ff0701" stroke="none" /><path d="M 86.13680546590413 84.22622945171909 l -1.718493566644518 -1.9553302193285123 a23.60317813551395,23.60317813551395 0 0,0 0.3066395875324321,-0.26486797238640536 l 1.6846744993492375 1.9845423241796283" fill="#ff1e03" stroke="none" /><path d="M 87.25179093698888 83.31218511350988 l -6.105142150827619 -7.991827053129222 a31.056940903124577,31.056940903124577 0 0,0 0.42643695633292245,-0.3200062420391683 l 5.9670522055839434 8.09545232243239" fill="#ff850c" stroke="none" /><path d="M 89.03521579738668 82.08984904055464 l -1.8952181430397732 -3.0956964054825624 a24.62976418581494,24.62976418581494 0 0,0 0.362488253502393,-0.21766378109471354 l 1.841797132979946 3.127774187113199" fill="#ff2d04" stroke="none" /><line stroke="#e1ed5e" stroke-width="0.3" x1="56.869717070023135" x2="54.33264160355391" y1="26.7553504044142" y2="22.446841604673864" /><path d="M 56.362301976729285 25.89364864446614 a86.0,86.0 0 0,1 42.16139366436587,-11.88097634709845" fill="none" id="id132" stroke="none" /><text fill="#e1ed5e" style="font-size:6.75px; font-family:Arial;" text-anchor="middle"><textPath startOffset="22.145653131862474" xlink:href="#id132">December</textPath></text></svg>