<?xml version="1.0" encoding="utf-8" ?>
<svg baseProfile="full" height="200mm" version="1.1" viewBox="0,0,200,200" width="200mm" xmlns="http://www.w3.org/2000/svg" xmlns:ev="http://www.w3.org/2001/xml-events" xmlns:xlink="http://www.w3.org/1999/xlink"><defs /><rect fill="#1a1a1a" height="200" width="200" x="0" y="0" /><text alignment-baseline="middle" fill="#e1ed5e" style="dominant-baseline: central; font-size:9.0px; font-family:Arial;" text-anchor="middle" x="100.0" y="100.0">2023</text><line stroke="#e1ed5e" stroke-width="0.3" x1="100.0" x2="100.0" y1="15.0" y2="10.0" /><path d="M 100.0 14.0 a86.0,86.0 0 0,1 42.46469731375804,11.215312516191453" fill="none" id="id109" stroke="none" /><text fill="#e1ed5e" style="font-size:6.75px; font-family:Arial;" text-anchor="middle"><textPath startOffset="22.20632615414155" xlink:href="#id109">January</textPath></text><path d="M 102.52436894288641 79.15227682838746 l 2.5307435703920502 -20.900368594118753 a42.0530299574457,42.0530299574457 0 0,0 0.7178758029220287,0.09320088239277695 l -2.890134101821925 20.85370938856184" fill="#ff920d" stroke="none" /><path d="M 104.66035177308747 79.52364482259891 l 5.700260962745986 -25.045441580418277 a46.68593231715661,46.68593231715661 0 0,0 0.7820478638688821,0.18508546242466745 l -6.130532513577392 24.943610205852742" fill="#ffdb14" stroke="none" /><path d="M 109.41281617654863 81.2277094730956 l 9.356811972149899 -18.660599490345085 a41.87505457768278,41.87505457768278 0 0,0 0.6415647448579956,0.32863438082614826 l -9.67663720459665 18.496772584206436" fill="#ff8f0d" stroke="none" /><path d="M 109.73455568895987 81.39251694778311 l 10.610977179343282 -20.28275191398973 a43.890671940880154,43.890671940880154 0 0,0 0.6664170552166905,0.35597691141259213 l -10.958539281088283 20.097096276075384" fill="#ffaf10" stroke="none" /><path d="M 110.05341064243156 81.56283822128135 l 11.924564526428181 -21.868710344587193 a45.90854735387843,45.90854735387843 0 0,0 0.6905430578469506,0.3842864640567226 l -12.299231673347167 21.66020848297029" fill="#ffcf13" stroke="none" /><line stroke="#e1ed5e" stroke-width="0.3" x1="143.23703022742887" x2="145.7803849466894" y1="26.81831364943548" y2="22.513508569990506" /><path d="M 143.74570117128098 25.957352633546492 a86.0,86.0 0 0,1 28.547481713284135,27.462654790039103" fill="none" id="id110" stroke="none" /><text fill="#e1ed5e" style="font-size:6.75px; font-family:Arial;" text-anchor="middle"><textPath startOffset="19.985693538727396" xlink:href="#id110">February</textPath></text><path d="M 111.60114157652 82.49532879139004 l 15.468428173769402 -23.339922843787512 a49.0004333630931,49.0004333630931 0 0,0 0.6990618956013219,0.4720097124550737 l -15.867894763777265 23.07020121903377" fill="#fffe18" stroke="none" /><path d="M 111.90073688211348 82.69761687909136 l 12.112149051083637 -17.609753528319448 a42.37305719741155,42.37305719741155 0 0,0 0.5973972741330673,0.41851496767494606 l -12.413477464800355 17.398653717880567" fill="#ff970d" stroke="none" /><path d="M 113.89432698308785 84.25364557470407 l 20.60149911798584 -23.347550924854733 a52.137275091071416,52.137275091071416 0 0,0 0.667826387437309,0.5995811245029317 l -21.000336493019137 22.989470791582505" fill="#d2ff1c" stroke="none" /><path d="M 114.16331599549186 84.49514656593476 l 14.860447494888732 -16.26801664569302 a43.03363940280611,43.03363940280611 0 0,0 0.5426175450227855,0.5043038715022966 l -15.138272923706364 16.009808188116082" fill="#ffa20e" stroke="none" /><path d="M 114.42810811169701 84.74124197986012 l 16.42889615845367 -17.374734724687695 a44.912131559911636,44.912131559911636 0 0,0 0.5571601350685963,0.5359876084985932 l -16.725539537134686 17.089364029426797" fill="#ffc011" stroke="none" /><path d="M 114.94478906791727 85.2469230424477 l 16.295557404242732 -16.086517605464476 a43.89806192204678,43.89806192204678 0 0,0 0.5262243304739503,0.5423204289779572 l -16.57004599841979 15.803632980936406" fill="#ffaf10" stroke="none" /><path d="M 115.19652480421416 85.50635884689758 l 14.996777715370811 -14.30313295044614 a41.72397051827619,41.72397051827619 0 0,0 0.4912156652028035,0.5239946226165633 l -15.240760702544078 14.04286891095152" fill="#ff8c0c" stroke="none" /><path d="M 115.4437574822437 85.77008943001954 l 27.61032971958472 -25.44021577450233 a58.5437729307727,58.5437729307727 0 0,0 0.6764770859039421,0.7469828942630937 l -28.044150446104698 24.961180092969688" fill="#7aff26" stroke="none" /><path d="M 116.15771136456269 86.58626213691792 l 21.110394056389858 -17.525334230182498 a48.43694729913783,48.43694729913783 0 0,0 0.5270435950985004,0.6460931292546023 l -21.408936143564766 17.159356931319795" fill="#fff617" stroke="none" /><path d="M 117.04232023915458 87.72973835380427 l 35.4491278160147 -25.52293744795358 a64.6813575669106,64.6813575669106 0 0,0 0.64277062181747,0.9091534607769359 l -35.88321105763605 24.90895748684485" fill="#30ff31" stroke="none" /><path d="M 117.65298651832404 88.62581576622439 l 19.07925110346315 -12.293155997598266 a43.69668493525621,43.69668493525621 0 0,0 0.4019520792869799,0.6357916604313688 l -19.288030778996088 11.96291668945269" fill="#ffac0f" stroke="none" /><line stroke="#e1ed5e" stroke-width="0.3" x1="172.23445277983987" x2="176.4835382374775" y1="55.19839476539836" y2="52.563006222186495" /><path d="M 173.08426987136738 54.67131705675599 a86.0,86.0 0 0,1 12.851231095245387,41.99856678651699" fill="none" id="id111" stroke="none" /><text fill="#e1ed5e" style="font-size:6.75px; font-family:Arial;" text-anchor="middle"><textPath startOffset="22.20632615414155" xlink:href="#id111">March</textPath></text><path d="M 118.21658344932153 89.55222093294921 l 20.689131690013802 -11.865862640364321 a44.850343106268454,44.850343106268454 0 0,0 0.3783283603184791,0.6730039379936918 l -20.890317691624713 11.507975192435836" fill="#ffbf11" stroke="none" /><path d="M 118.3937258080291 89.86733742301442 l 42.22959759277542 -23.26327290269234 a69.2132635173443,69.2132635173443 0 0,0 0.5658741320279108,1.04847882526138 l -42.623779824021796 22.5329130940985" fill="#36ff73" stroke="none" /><path d="M 118.73160827565052 90.50648371742162 l 19.060706267264475 -9.660309069186697 a42.36895165231898,42.36895165231898 0 0,0 0.3241022783145809,0.6533704160930989 l -19.224168558532465 9.330779064594648" fill="#ff970d" stroke="none" /><path d="M 118.89224826269711 90.83032412892265 l 23.665203021207915 -11.486311110795079 a47.30545907162547,47.30545907162547 0 0,0 0.34925351502903296,0.7356169734021571 l -23.859414730078704 11.077251721752381" fill="#ffe515" stroke="none" /><path d="M 119.196687751892 91.48605970444005 l 23.98369373536572 -10.637029635999234 a47.23669119132492,47.23669119132492 0 0,0 0.3232548266898,0.7461167083362363 l -24.1632392718982 10.222613783076394" fill="#ffe415" stroke="none" /><path d="M 119.34039704204932 91.81776055985345 l 21.715362155745918 -9.18700336407276 a44.57876129839492,44.57876129839492 0 0,0 0.2929001087931143,0.7092808460707557 l -21.870283951425233 8.811847947548701" fill="#ffba11" stroke="none" /><path d="M 119.47837535516314 92.15188598940014 l 46.14098117584192 -18.590856487061277 a70.74545294589151,70.74545294589151 0 0,0 0.4453811998089293,1.1334465734639838 l -46.454155925532554 17.793860908701507" fill="#39ff88" stroke="none" /><path d="M 119.7369772167798 92.82701384747503 l 27.31614573288315 -9.927474350821246 a50.064180096578056,50.064180096578056 0 0,0 0.2873848891631112,0.8124757813294877 l -27.48298370285607 9.455800943065144" fill="#f0ff19" stroke="none" /><path d="M 119.85752413597 93.16781622104841 l 20.39837771220141 -7.01826997001015 a42.57197085714658,42.57197085714658 0 0,0 0.23244844704522688,0.69499127006844 l -20.516163453018404 6.666105597019396" fill="#ff9a0e" stroke="none" /><path d="M 119.97218684219823 93.5106431181261 l 22.69610465522613 -7.374411430246326 a44.86409668232856,44.86409668232856 0 0,0 0.2323202138045831,0.7365185649838958 l -22.81968035279892 6.9826426988360115" fill="#ffbf11" stroke="none" /><path d="M 120.18372546131832 94.20196356495316 l 28.05559015784195 -8.0593314774152 a50.19022033091997,50.19022033091997 0 0,0 0.2313846341058163,0.832413639055797 l -28.19016156251413 7.57520653494045" fill="#eeff19" stroke="none" /><path d="M 120.28053869075195 94.5502522615342 l 51.72038924582759 -13.898204511379715 a74.55519351454211,74.55519351454211 0 0,0 0.32237547853523063,1.2422442240302596 l -51.951961056233124 13.005863861800606" fill="#3fffba" stroke="none" /><path d="M 120.45610955862082 95.25157060432595 l 20.45657613351089 -4.748537700624069 a42.000478980260795,42.000478980260795 0 0,0 0.15741302115949815,0.7056517082663752 l -20.535283541672424 4.395707822807729" fill="#ff910d" stroke="none" /><path d="M 120.53481517161879 95.60439243477599 l 22.323988776512493 -4.778591535006196 a43.82970459625548,43.82970459625548 0 0,0 0.15156876226751284,0.7391031133666889 l -22.402936834695 4.393612765476096" fill="#ffae10" stroke="none" /><path d="M 120.6074358757038 95.95851677861258 l 26.85113266600882 -5.265982764642056 a48.36263693296231,48.36263693296231 0 0,0 0.15318122787649005,0.8183002444762016 l -26.937799617795168 4.803004442703291" fill="#fff517" stroke="none" /><path d="M 120.73433829027371 96.67025291283417 l 12.384784796715325 -1.9888843581462625 a33.54346664407531,33.54346664407531 0 0,0 0.08664454185983385,0.5708792739066239 l -12.417185232014457 1.7754059718475566" fill="#ff0000" stroke="none" /><path d="M 120.91429891909075 98.10471618934814 l 29.047175505753504 -2.632296769506601 a50.16620289212844,50.16620289212844 0 0,0 0.07053252548600226,0.8606754632650122 l -29.088182515059003 2.13190738903382" fill="#efff19" stroke="none" /><path d="M 120.94382443527127 98.46500227214037 l 24.996281331738906 -1.832007099168678 a46.06332640386833,46.06332640386833 0 0,0 0.05115093086232913,0.7912822605023491 l -25.02411285360565 1.401465774413294" fill="#ffd213" stroke="none" /><path d="M 120.96714384426684 98.82574320788733 l 22.75668371646294 -1.274479281417395 a43.79234413591309,43.79234413591309 0 0,0 0.035672809293451076,0.7529966229724583 l -22.77525013398989 0.882571551821937" fill="#ffae10" stroke="none" /><path d="M 120.98425023603335 99.18683210126433 l 24.678794348661576 -0.956336448436495 a45.6973170588657,45.6973170588657 0 0,0 0.023693635747342515,0.7862764207596675 l -24.691599678864566 0.5313898802518284" fill="#ffcc13" stroke="none" /><line stroke="#e1ed5e" stroke-width="0.3" x1="184.98032266829074" x2="189.97916517819016" y1="98.17113171792111" y2="98.06355123074" /><path d="M 185.9800911702706 98.14961562048488 a86.0,86.0 0 0,1 -9.607161424134198,41.387399972396054" fill="none" id="id112" stroke="none" /><text fill="#e1ed5e" style="font-size:6.75px; font-family:Arial;" text-anchor="middle"><textPath startOffset="21.466115282336823" xlink:href="#id112">April</textPath></text><path d="M 120.99513854157772 99.54816195383933 l 20.592340984921808 -0.4431694079119951 a41.59710917491577,41.59710917491577 0 0,0 0.00924444821156862,0.7159927017253578 l -20.59691844025109 0.08864044812617462" fill="#ff8a0c" stroke="none" /><path d="M 120.99980553446 99.90962569577887 l 48.108537170121835 -0.2070388493222748 a69.108982671993,69.108982671993 0 0,0 -0.005119668174405181,1.1896305812814887 l -48.10497320465793 -0.6211012101628987" fill="#36ff71" stroke="none" /><path d="M 120.99824983174949 100.27111621757518 l 25.27942912830744 0.32639211661173256 a46.28153612553844,46.28153612553844 0 0,0 -0.017141661277428614,0.7965056426974906 l -25.270065404345008 -0.761487575099338" fill="#ffd513" stroke="none" /><path d="M 120.9904718944345 100.63252640178507 l 31.41266229622274 0.9465884498760389 a52.42692129735225,52.42692129735225 0 0,0 -0.034945956159083934,0.9017998496004577 l -31.391714207212452 -1.4871655464905027" fill="#ceff1d" stroke="none" /><path d="M 120.9764740272857 100.99374915477107 l 22.986005776431124 1.0889496386370021 a44.01178552111097,44.01178552111097 0 0,0 -0.04236375187319313,0.756433248054669 l -22.963855673670402 -1.4844546030270944" fill="#ffb110" stroke="none" /><path d="M 120.95626037817324 101.35467743843564 l 25.65189337315482 1.6582176675931688 a46.70543365634632,46.70543365634632 0 0,0 -0.05876753744167313,0.8018363573657487 l -25.619549277048808 -2.0995271614556876" fill="#ffdb14" stroke="none" /><path d="M 120.81339534386255 102.79330883721812 l 28.591681459850626 3.837211333050316 a49.84802314745424,49.84802314745424 0 0,0 -0.12145340044218662,0.8494447998162794 l -28.521394008391837 -4.328801604847005" fill="#f3ff19" stroke="none" /><path d="M 120.76222939487914 103.15116336523771 l 30.67858167323113 4.65620626896563 a52.0299150869007,52.0299150869007 0 0,0 -0.14201254540534664,0.8843122558006541 l -30.593887373464497 -5.183597754459489" fill="#d4ff1c" stroke="none" /><path d="M 120.70491114924044 103.5080841355445 l 32.49901013559508 5.506387400351797 a53.962189884718896,53.962189884718896 0 0,0 -0.163052044159698,0.9144824547307167 l -32.399411649096194 -6.064988605815731" fill="#b8ff1f" stroke="none" /><path d="M 120.64145759157962 103.86396538481128 l 21.263791128327142 3.980462741314851 a42.633143479025875,42.633143479025875 0 0,0 -0.14123764996637897,0.7201677343393899 l -21.192123545385098 -4.345894202722186" fill="#ff9b0e" stroke="none" /><path d="M 120.5718875245553 104.21870165774334 l 30.494256210967713 6.253493709573473 a52.128858723631645,52.128858723631645 0 0,0 -0.18782762883434712,0.8774681508766985 l -30.382094543408922 -6.77747567986634" fill="#d2ff1c" stroke="none" /><path d="M 120.49622156327973 104.57218783832717 l 51.17230039913887 11.415243966884997 a73.4300688819232,73.4300688819232 0 0,0 -0.2858158225756631,1.231287083160904 l -50.96822401063265 -12.294399707394465" fill="#3dffac" stroke="none" /><path d="M 120.23288151984713 105.62410040840565 l 29.911836040626902 8.314543290694065 a52.04592671276173,52.04592671276173 0 0,0 -0.24736031933428898,0.8610937222278784 l -29.764283084406514 -8.828194488426526" fill="#d3ff1c" stroke="none" /><path d="M 120.13307415673323 105.97154293290107 l 29.63399952393681 8.789551911106267 a51.91003317019765,51.91003317019765 0 0,0 -0.26146151179645305,0.8544713486126361 l -29.478311239634227 -9.29835023227096" fill="#d5ff1c" stroke="none" /><path d="M 119.67450827220406 107.3425965602758 l 30.113533035904414 11.238477781910678 a53.14231252973262,53.14231252973262 0 0,0 -0.3272192859868614,0.8542663006678793 l -29.915619470324046 -11.755167649411701" fill="#c4ff1e" stroke="none" /><path d="M 119.41010516605496 108.01547362559984 l 31.178155775851728 12.875132987596048 a54.73197958957583,54.73197958957583 0 0,0 -0.3670926486949681,0.8676985840994949 l -30.951912145964453 -13.409906097361706" fill="#aeff20" stroke="none" /><path d="M 119.26925614724726 108.34839909993367 l 28.830047474192277 12.490608902875325 a52.41953131618562,52.41953131618562 0 0,0 -0.36583569755215406,0.8248629201765328 l -28.61077069190885 -12.985020159544545" fill="#ceff1d" stroke="none" /><path d="M 119.12269723197855 108.67885076344098 l 31.90460111261019 14.479927615044284 a56.03672181999465,56.03672181999465 0 0,0 -0.40620054524230803,0.8749198371549872 l -31.65062595052805 -15.026967519478102" fill="#9cff22" stroke="none" /><path d="M 118.97047184881838 109.00673069616215 l 30.733076752009115 14.59133689323966 a55.02100996409278,55.02100996409278 0 0,0 -0.41356605907625715,0.8520685759175045 l -30.477357436318144 -15.118194425122441" fill="#aaff21" stroke="none" /><path d="M 118.81262510543309 109.33194174019688 l 48.75343697493232 24.183984475034002 a75.42207936083831,75.42207936083831 0 0,0 -0.58693221603018,1.1580729445013076 l -48.32992608911587 -25.019611631238003" fill="#40ffc6" stroke="none" /><line stroke="#e1ed5e" stroke-width="0.3" x1="174.80103733775053" x2="179.2010983576182" y1="140.37084112569926" y2="142.7455964860345" /><path d="M 175.68104954172406 140.8457921977663 a86.0,86.0 0 0,1 -30.038265399797805,32.042727171017184" fill="none" id="id113" stroke="none" /><text fill="#e1ed5e" style="font-size:6.75px; font-family:Arial;" text-anchor="middle"><textPath startOffset="22.206326154141568" xlink:href="#id113">May</textPath></text><path d="M 118.48025628344425 109.97397251340804 l 33.65516353719556 18.164016283419198 a59.24397364631054,59.24397364631054 0 0,0 -0.4920736477023632,0.8932566030326384 l -33.337513480041686 -18.740643404849642" fill="#71ff27" stroke="none" /><path d="M 118.30583269289576 110.29060199501025 l 23.677357685104113 13.310198356912895 a48.16208105519026,48.16208105519026 0 0,0 -0.4124692447106317,0.7191748952890896 l -23.4447364442411 -13.715793098060301" fill="#fff216" stroke="none" /><path d="M 118.12598468904814 110.60418214915192 l 23.75604775956642 13.897918480456566 a48.52275319157255,48.52275319157255 0 0,0 -0.427968659754958,0.7173000904606257 l -23.513298224113235 -14.304780664803296" fill="#fff717" stroke="none" /><path d="M 117.94076556474637 110.91462005526583 l 28.270814515050798 17.19910992488552 a54.091514555134864,54.091514555134864 0 0,0 -0.49077839126991674,0.7912910339688636 l -27.97057148411292 -17.683197290219656" fill="#b6ff1f" stroke="none" /><path d="M 117.75023020441432 111.22182372390056 l 26.57988558025715 16.803995618542093 a52.44621735928733,52.44621735928733 0 0,0 -0.4889863949151704,0.7589177438719978 l -26.286694321964934 -17.25903496233554" fill="#ceff1d" stroke="none" /><path d="M 117.14729908036423 112.12312394758627 l 25.34012350200114 17.915442929066717 a52.03361007748401,52.03361007748401 0 0,0 -0.5233595201911,0.7269005992282462 l -25.027984189434438 -18.348977133746097" fill="#d3ff1c" stroke="none" /><path d="M 116.93607887273984 112.41649034213515 l 20.377628810174002 14.939622873650926 a46.267371994969075,46.267371994969075 0 0,0 -0.4764189482637659,0.6382410364711406 l -20.117448595215144 -15.28817678963138" fill="#ffd513" stroke="none" /><path d="M 116.71984013943494 112.70617746262583 l 24.874318350950727 18.90314145310433 a52.24196649093196,52.24196649093196 0 0,0 -0.5502650877579169,0.711291802407405 l -24.54524644597474 -19.328511249624984" fill="#d0ff1d" stroke="none" /><path d="M 116.498646956653 112.99209946851258 l 24.710554392458334 19.458685395983352 a52.45237567692618,52.45237567692618 0 0,0 -0.5646925052725078,0.7045407257694314 l -24.37194397513097 -19.881153955331033" fill="#cdff1d" stroke="none" /><path d="M 116.27256486870786 113.27417163493432 l 19.92000284527132 16.24953035184971 a46.70707587438335,46.70707587438335 0 0,0 -0.513564316793852,0.6186213032187011 l -19.637342528583925 -16.590012912182182" fill="#ffdb14" stroke="none" /><path d="M 115.80600337817218 113.82643327865902 l 38.706842304413826 33.85913312460919 a72.42626310678978,72.42626310678978 0 0,0 -0.8289053043218081,0.9312838965703505 l -38.11827815044368 -34.52039119092041" fill="#3bff9e" stroke="none" /><path d="M 115.32070863581623 114.36230785411682 l 25.777411022306122 24.164881767868728 a56.3329368984236,56.3329368984236 0 0,0 -0.6692713665589944,0.7017283521254432 l -25.357633104368162 -24.60501723657668" fill="#98ff23" stroke="none" /><path d="M 115.07121518719521 114.62390073753431 l 20.388878831487585 19.783735848627245 a49.409550931567736,49.409550931567736 0 0,0 -0.5975246986127439,0.6052893650139193 l -20.045313507819305 -20.131765707621827" fill="#faff18" stroke="none" /><path d="M 114.81725581225074 114.88116024355365 l 21.901876042453452 21.996335296629432 a52.040794781396016,52.040794781396016 0 0,0 -0.6402258004845324,0.6265956954430255 l -21.520000289593124 -22.37008109499503" fill="#d3ff1c" stroke="none" /><path d="M 114.55890576462653 115.13401014063108 l 18.709993241846114 19.449073442127723 a47.98759538875602,47.98759538875602 0 0,0 -0.6002200810656727,0.5675455504961016 l -18.372437326389633 -19.768253629369745" fill="#ffef16" stroke="none" /><path d="M 114.29624159901734 115.38237550388516 l 36.95253913541027 39.7599487156095 a75.28023277789,75.28023277789 0 0,0 -0.9567775259361047,0.8739935849664474 l -36.2626620600073 -40.390135067162525" fill="#40ffc4" stroke="none" /><path d="M 113.48314897796784 116.09983520530334 l 19.808369703000395 23.65259691375862 a51.85152915262853,51.85152915262853 0 0,0 -0.6892052698635429,0.5671690162418136 l -19.398294304592163 -23.990061048857616" fill="#d6ff1c" stroke="none" /><path d="M 113.20401910651253 116.32954008644616 l 15.506038142925002 19.176469633550415 a45.661188262051084,45.661188262051084 0 0,0 -0.6154312957712379,0.4889358422077386 l -15.173649354436412 -19.44053938976328" fill="#ffcb12" stroke="none" /><path d="M 112.92097659922987 116.55440617244103 l 15.789507334161316 20.229579062005442 a46.662120155619704,46.662120155619704 0 0,0 -0.6374296066777142,0.48875384100763747 l -15.438948998990108 -20.498372244840454" fill="#ffdb14" stroke="none" /><path d="M 111.45004920935366 117.60387380957326 l 17.35997467450569 26.690086472094425 a52.8391180246463,52.8391180246463 0 0,0 -0.7667162298047512,0.48935457378426245 l -16.897976642654008 -26.984955474702495" fill="#c8ff1d" stroke="none" /><path d="M 111.1453310114006 117.79835938074945 l 15.347009894848858 24.50816375476243 a49.91679102775478,49.91679102775478 0 0,0 -0.7321623766276563,0.4497539314937591 l -14.922868318288893 -24.768706153084565" fill="#f2ff19" stroke="none" /><line stroke="#e1ed5e" stroke-width="0.3" x1="143.8653032363475" x2="146.44561519142675" y1="172.8068346515853" y2="177.08958963109032" /><path d="M 144.38136562736335 173.6633856474863 a86.0,86.0 0 0,1 -40.68145358897372,12.25698825130547" fill="none" id="id114" stroke="none" /><text fill="#e1ed5e" style="font-size:6.75px; font-family:Arial;" text-anchor="middle"><textPath startOffset="21.466115282336833" xlink:href="#id114">June</textPath></text><path d="M 110.8373102113329 117.98757091392108 l 16.428746722347167 27.26813581344574 a52.8348072022991,52.8348072022991 0 0,0 -0.7830423585417391,0.46263522766396403 l -15.956936492777047 -27.54688961340345" fill="#c8ff1d" stroke="none" /><path d="M 110.5260780823613 118.17145234162733 l 10.860413502615502 18.748624590182835 a42.66701422603958,42.66701422603958 0 0,0 -0.6386870730355373,0.3626631887782675 l -10.536077662658766 -18.932790944755734" fill="#ff9c0e" stroke="none" /><path d="M 110.21172684928248 118.3499491758327 l 30.635180547847472 55.049847527498095 a84.0,84.0 0 0,0 -1.2695087525254052,0.692237392960918 l -29.683048983453418 -55.56902557221878" fill="#4dd2ff" stroke="none" /><path d="M 109.2508944713604 118.85261126421891 l 13.667632759820634 27.853584117808012 a52.02622009631739,52.02622009631739 0 0,0 -0.8073660029153118,0.38758474495054773 l -13.18615408890509 -28.08472313925812" fill="#d4ff1c" stroke="none" /><path d="M 107.93186726928326 119.44442032107085 l 17.224522918773566 42.22471860561218 a66.60275267023349,66.60275267023349 0 0,0 -1.0652600428346544,0.42388895550565836 l -16.495141799897045 -42.51495440552391" fill="#32ff4d" stroke="none" /><path d="M 104.83641907484287 120.43548508189849 l 5.250671664335258 22.1858405580696 a43.79870773080657,43.79870773080657 0 0,0 -0.7351505694162094,0.16731787615436328 l -4.868000945526186 -22.27293516780165" fill="#ffae10" stroke="none" /><path d="M 104.48393922423573 120.51570834832081 l 4.479746059781421 20.496523043904524 a41.980361809307205,41.980361809307205 0 0,0 -0.7072862124008064,0.14821870262362133 l -4.126268385951237 -20.570597727254686" fill="#ff910d" stroke="none" /><path d="M 103.7750983002368 120.6578951692458 l 5.8357177890442165 31.933909195375403 a53.462750324207725,53.462750324207725 0 0,0 -0.9067054055190275,0.1576423569643562 l -5.285163412053139 -32.02963013086077" fill="#bfff1e" stroke="none" /><path d="M 103.41894727170886 120.7198165907248 l 4.775065150639798 28.938286047496373 a50.32960358681272,50.32960358681272 0 0,0 -0.8559966380956974,0.13368907041055192 l -4.276232648935584 -29.01619342525403" fill="#ecff1a" stroke="none" /><line stroke="#e1ed5e" stroke-width="0.3" x1="102.19456741930631" x2="102.32365962044197" y1="184.97166512339345" y2="189.96999836594603" /><path d="M 102.22038585953345 185.97133177190398 a86.0,86.0 0 0,1 -42.740103519485714,-10.115201625700543" fill="none" id="id115" stroke="none" /><text fill="#e1ed5e" style="font-size:6.75px; font-family:Arial;" text-anchor="middle"><textPath startOffset="22.20632615414155" xlink:href="#id115">July</textPath></text><path d="M 99.45781275523022 120.99299961872073 l -0.8613725093633329 33.35156430749152 a54.36268580849913,54.36268580849913 0 0,0 -0.9352443814722115,-0.03221170750543264 l 1.4353372425101873 -33.33179580155999" fill="#b3ff20" stroke="none" /><path d="M 98.73552117531835 120.96189622390904 l -1.6251228103253847 26.940471470310833 a47.989442884047676,47.989442884047676 0 0,0 -0.8241323901647702,-0.05683699477464021 l 2.088617961269085 -26.908506131019905" fill="#ffef16" stroke="none" /><line stroke="#e1ed5e" stroke-width="0.3" x1="58.666819895761336" x2="56.23545636021788" y1="174.27360380694188" y2="178.64263932499728" /><path d="M 58.180547188652646 175.14741091055294 a86.0,86.0 0 0,1 -31.652253787137756,-30.449443065178592" fill="none" id="id116" stroke="none" /><text fill="#e1ed5e" style="font-size:6.75px; font-family:Arial;" text-anchor="middle"><textPath startOffset="22.20632615414155" xlink:href="#id116">August</textPath></text><line stroke="#e1ed5e" stroke-width="0.3" x1="26.63291911575756" x2="22.317208475507996" y1="142.92168965132927" y2="145.44649492493687" /><path d="M 25.769776987707644 143.4266507060508 a86.0,86.0 0 0,1 -11.730757126820373,-40.83630448921669" fill="none" id="id117" stroke="none" /><text fill="#e1ed5e" style="font-size:6.75px; font-family:Arial;" text-anchor="middle"><textPath startOffset="21.46611528233685" xlink:href="#id117">September</textPath></text><line stroke="#e1ed5e" stroke-width="0.3" x1="15.007084014347285" x2="10.007500721073583" y1="101.09737516637583" y2="101.16192664675087" /><path d="M 14.007167355692545 101.11028546245083 a86.0,86.0 0 0,1 10.666146001902534,-42.60595125391555" fill="none" id="id118" stroke="none" /><text fill="#e1ed5e" style="font-size:6.75px; font-family:Arial;" text-anchor="middle"><textPath startOffset="22.20632615414155" xlink:href="#id118">October</textPath></text><line stroke="#e1ed5e" stroke-width="0.3" x1="26.266209847984243" x2="21.928928074336255" y1="57.711370442889674" y2="55.22380399835377" /><path d="M 25.398753493254645 57.213857153982495 a86.0,86.0 0 0,1 29.58750427330803,-30.492523968695096" fill="none" id="id119" stroke="none" /><text fill="#e1ed5e" style="font-size:6.75px; font-family:Arial;" text-anchor="middle"><textPath startOffset="21.46611528233685" xlink:href="#id119">November</textPath></text><line stroke="#e1ed5e" stroke-width="0.3" x1="56.762969772571076" x2="54.21961505331055" y1="26.818313649435495" y2="22.513508569990535" /><path d="M 56.25429882871897 25.957352633546506 a86.0,86.0 0 0,1 42.265352541879196,-11.944610805530505" fill="none" id="id120" stroke="none" /><text fill="#e1ed5e" style="font-size:6.75px; font-family:Arial;" text-anchor="middle"><textPath startOffset="22.20632615414155" xlink:href="#id120">December</textPath></text></svg>